<?xml version="1.0" encoding="utf-8"?>
<!-- Generator: Adobe Illustrator 20.1.0, SVG Export Plug-In . SVG Version: 6.00 Build 0)  -->
<svg version="1.1" id="Layer_1" xmlns="http://www.w3.org/2000/svg" xmlns:xlink="http://www.w3.org/1999/xlink" x="0px" y="0px"
	 viewBox="0 0 930 831" style="enable-background:new 0 0 930 831;" xml:space="preserve">
<style type="text/css">
	.st0{fill:#ADDDD6;}
	.st1{fill:#FBCAB6;}
	.st2{fill:#5A8C83;}
	.st3{fill:none;stroke:#000000;stroke-width:5;stroke-miterlimit:10;}
	.st4{fill:none;stroke:#000000;stroke-width:5;stroke-linecap:round;stroke-linejoin:round;stroke-miterlimit:10;}
	.st5{fill:#FFFFFF;stroke:#000000;stroke-width:5;stroke-miterlimit:10;}
	.st6{fill:#DDA08D;}
	.st7{fill:#E8B356;}
	.st8{fill:#B27969;}
	.st9{fill:none;stroke:#DDA08D;stroke-width:9;stroke-miterlimit:10;}
	.st10{fill:none;stroke:#84BAB1;stroke-width:8;stroke-miterlimit:10;}
	.st11{fill:#84BAB1;}
	.st12{fill:none;}
	.st13{fill:#FFD479;}
	.st14{fill:#D99D61;}
	.st15{fill:#FFFFFF;}
	.st16{fill:#9B6233;}
	.st17{fill:#E9C29D;}
	.st18{fill:#D45354;}
	.st19{fill:#DD7277;}
	.st20{fill:#E2A942;}
	.st21{fill:#F9C573;}
	.st22{fill:none;stroke:#F9C780;stroke-width:4;stroke-linecap:round;stroke-miterlimit:10;}
	.st23{fill:#F2CFB2;}
	.st24{fill:none;stroke:#945E33;stroke-width:9;stroke-linecap:round;stroke-miterlimit:10;}
</style>
<g id="Layer_1_1_">
	<path class="st0" d="M352.2,512c0,0,144.8,16,144.8,96v222H302.7V512H352.2z"/>
	<polygon class="st1" points="432.7,651.4 432.7,830 497,830 497,652.9 	"/>
	<polygon class="st2" points="363.5,482 352.2,476 330.3,490.6 346.1,505.6 	"/>
	<polygon class="st2" points="242,482 253.3,476 275.2,490.6 259.4,505.6 	"/>
	<path class="st0" d="M253.3,512c0,0-144.8,16-144.8,96v222h194.3V574L253.3,512z"/>
	<path class="st1" d="M427.8,247.3h8.5c13.5,0,23.2,17.6,19.4,35c-4,17.8-11.9,35.7-27.9,35.7V247.3z"/>
	<path class="st3" d="M-247.6,87.4h11.2c8.8,0,15.9,7.4,15.5,16.2c-0.8,19.3-5.5,48.8-26.7,48.8V87.4z"/>
	<path class="st3" d="M-454.2,67.4h-11.2c-8.8,0-15.9,7.4-15.5,16.2c0.8,19.3,5.5,48.8,26.7,48.8V67.4z"/>
	<path class="st3" d="M-442.4,0c0,0-10.9-17.1-17.7-39.6c0,0-29.2,24,5.9,107V11.7c0-6.5,5.2-11.7,11.7-11.7H-442.4z"/>
	<path class="st3" d="M-259.3,0h-183.2c-6.5,0-11.7,5.2-11.7,11.7v147.1c0,7.2,2.2,14.2,6.4,20.1c10.3,14.5,32.2,42.2,58.8,57.9
		v37.6c0,21,17,38,38,38l0,0c21,0,38-17,38-38v-37.6c26.6-15.8,48.5-23.4,58.8-37.9c4.2-5.9,6.4-12.9,6.4-20.1V11.7
		C-247.6,5.2-252.8,0-259.3,0z"/>
	<path d="M-325.9,243.4c-8.1,3.3-16.4,5.2-24.9,5.2s-16.9-1.9-24.9-5.2c0,0,9.8,14,24.8,14S-325.9,243.4-325.9,243.4z"/>
	<path class="st3" d="M-326.6,265.8c59,0,106.9,67.9,106.9,126.9V573l-260-20V372.7c0-59,47.9-106.9,106.9-106.9L-326.6,265.8
		L-326.6,265.8z"/>
	<polygon class="st4" points="-321.3,55.7 -289.5,51.2 -261.5,87.6 -291.4,61.7 -322.1,65.2 	"/>
	<polygon class="st4" points="-378.1,55.7 -409.9,51.2 -437.9,67.6 -408,61.7 -377.3,65.2 	"/>
	<path class="st5" d="M-442.5,0c0,0-82.9-118.6,92.8-118.6S-231-5.3-195,87.6c0,0-18.7-0.6-25.9-16.4v16.2c0,0-57.1-33.9-57.1-87.4
		C-278,0-442.5,0-442.5,0z"/>
	<path class="st5" d="M-247.6,75.1c0,0-56.4-23.5-56.4-75.1h56.4V75.1z"/>
	<path class="st3" d="M302.7,490.6"/>
	<path class="st1" d="M253.3,455.3V512l49.4,62l49.4-62v-56.8c29.5-23,53.9-60.2,66.5-81.6c6-10.2,9.2-22.1,9.2-34.4V197.6
		c0-5.3-4.1-9.6-9.1-9.6H186.8c-5,0-9.1,4.3-9.1,9.6v141.7c0,12.2,3.2,24.2,9.2,34.4c12.9,21.9,38.2,60.4,68.6,83.2L253.3,455.3z"/>
	<path class="st3" d="M302.7,490.6"/>
	<path class="st6" d="M319.2,171.2c0,0-25.5,103.4,123.1,116.9c10.4,0.9,21.6,1.4,33.7,1.4l-83.3-144L319.2,171.2z"/>
	<path class="st1" d="M177.7,247.3h-8.5c-13.5,0-23.2,17.6-19.4,35c4,17.8,11.9,35.7,27.9,35.7V247.3z"/>
	<path class="st6" d="M179,270.7h-2.9c-4.5,0-7.8,6.9-6.5,13.7c1.3,6.9,4,13.9,9.4,13.9V270.7z"/>
	<path class="st6" d="M427.8,270.7h2.9c4.5,0,7.8,6.9,6.5,13.7c-1.3,6.9-4,13.9-9.4,13.9V270.7z"/>
	<path class="st3" d="M427.8,263.4"/>
	<path class="st3" d="M442.2,229.6"/>
	<path class="st7" d="M413,106c0,0,55,127.4,87,127.4c0,0-126.5,94.1-126.5-87.2L413,106z"/>
	<path class="st7" d="M171.1,127.6c-27.5,24,6.5,119.7,6.5,119.7v-49.2c0-5.6,4.1-10.1,9.1-10.1h6.6L171.1,127.6z"/>
	<path class="st6" d="M275.2,428.9c14.2-42.7,54.7-62.7,55.1,0H275.2z"/>
	<path class="st8" d="M264.5,277.1H224l0,0c0-11.2,9.1-20.3,20.3-20.3l0,0C255.5,256.8,264.5,265.9,264.5,277.1L264.5,277.1z"/>
	<path class="st9" d="M320.5,304"/>
	<path class="st9" d="M320.5,344.7"/>
	<path class="st9" d="M320.5,304l2.4,37.3c0.3,5.2-3.8,9.7-9.1,9.7h-11.1h-11.1c-5.2,0-9.4-4.4-9.1-9.7L285,304"/>
	<path d="M337.7,374"/>
	<path d="M267.2,374"/>
	<path class="st8" d="M340.1,277.1h40.5l0,0c0-11.2-9.1-20.3-20.3-20.3l0,0C349.2,256.8,340.1,265.9,340.1,277.1L340.1,277.1z"/>
	<polyline class="st7" points="204,251.2 236.7,229.2 270.7,235.5 270.7,246.7 236.7,241.8 204,251.2 	"/>
	<polygon class="st1" points="108.6,650.5 108.6,829.1 172.9,829.1 172.9,652 	"/>
	<line class="st10" x1="302.7" y1="830" x2="302.7" y2="574"/>
	<polygon class="st11" points="302.7,582 234.6,515 242,482 302.7,564.5 	"/>
	<polygon class="st11" points="302.7,582 370.9,515 363.5,482 302.7,564.5 	"/>
	<line class="st12" x1="302.7" y1="582" x2="224" y2="517.2"/>
	<path class="st11" d="M380.7,709.4h-14.4c-11.7,0-21.1-9.5-21.1-21.1v-35.6h56.7v35.6C401.9,699.9,392.4,709.4,380.7,709.4z"/>
	<polyline class="st7" points="400.7,251.2 368,229.2 334,235.5 334,246.7 368,241.8 400.7,251.2 	"/>
	<path class="st13" d="M193.3,188c0,0-95.4-160.5,109.4-160.5C518,27.5,423,229.6,497,282.7c0,0-168,11.3-168-94.7L193.3,188
		L193.3,188z"/>
</g>
<g id="Layer_2">
	<path class="st14" d="M813.3,676.8H710.2v-0.1H604.8l-5.8,12c-8,16.7-12.2,35-12.2,53.5v86.9h121v0.1h123.4v-86.9
		c0-18.5-4.2-36.8-12.2-53.5L813.3,676.8z"/>
	<rect x="1031.6" y="368.3" class="st14" width="70.5" height="139.2"/>
	<path class="st14" d="M961.3,368.7c0,0-17.3-0.5-17.3,164.5h122.1l-1.2-168.9L961.3,368.7z"/>
	<path class="st14" d="M1170.9,368.7c0,0,17.3-0.5,17.3,164.5h-122.1l1.2-168.9L1170.9,368.7z"/>
	<path class="st15" d="M767.5,875.4H653c-6.6,0-12-5.4-12-12v-57.3c0-38.1,31.2-69.3,69.3-69.3l0,0c38.1,0,69.3,31.2,69.3,69.3v57.3
		C779.5,870,774.1,875.4,767.5,875.4z"/>
	<path class="st16" d="M708.9,732.2L708.9,732.2c-3.3,0-6-2.7-6-6v-24.3c0-3.3,2.7-6,6-6l0,0c3.3,0,6,2.7,6,6v24.3
		C714.9,729.5,712.2,732.2,708.9,732.2z"/>
	<path class="st17" d="M752.2,471l58.8-58.8c7-7,18.8-2,18.8,7.8v110.3L752.2,471z"/>
	<polyline class="st14" points="797.2,492.7 797.2,425.9 730,493.1 	"/>
	<path class="st18" d="M604.8,644.6v32.1c0,0,49,31.4,104.1,31.4v-46L604.8,644.6z"/>
	<path class="st18" d="M812.9,644.6v32.1c0,0-49,31.4-104.1,31.4v-46L812.9,644.6z"/>
	<path class="st14" d="M709.6,685.6c0,0-9.7,0.2-16.2-6.3s-15.9-7-15.9-7c3.3-7.2,2-14.7,2-14.7s-3.2-24.7,11.2-24.7h36.9
		c14.4,0,11.2,24.7,11.2,24.7s-1.2,7.4,2,14.7c0,0-9.3,0.4-15.9,7s-16.2,6.3-16.2,6.3H709.6z"/>
	<path class="st17" d="M665.1,471l-58.8-58.8c-7-7-18.8-2-18.8,7.8v110.3L665.1,471z"/>
	<path class="st14" d="M770.5,672.2h-31.1h-31.1h-31.1h-31.1c-8.2,0-15.9-1.7-23-4.7s-13.5-7.4-18.9-12.7
		c-5.4-5.4-9.7-11.8-12.7-18.9c-3-7.1-4.7-14.9-4.7-23v-20.3v-20.3V552v-20.3c0-8.2,1.7-15.9,4.7-23s7.4-13.5,12.7-18.9
		c5.4-5.4,11.8-9.7,18.9-12.7c7.1-3,14.9-4.7,23-4.7h31.1h31.1h31.1h31.1c8.2,0,15.9,1.7,23,4.7s13.5,7.4,18.9,12.7
		c5.4,5.4,9.7,11.8,12.7,18.9c3,7.1,4.7,14.9,4.7,23V552v20.3v20.3v20.3c0,8.2-1.7,15.9-4.7,23s-7.4,13.5-12.7,18.9
		c-5.4,5.4-11.8,9.7-18.9,12.7C786.5,670.6,778.7,672.2,770.5,672.2z"/>
	<polyline class="st14" points="620.1,492.7 620.1,425.9 687.3,493.1 	"/>
	<path class="st19" d="M711.6,654.2h-4c-12.9,0-23.3-10.4-23.3-23.3l0,0H735l0,0C734.9,643.8,724.5,654.2,711.6,654.2z"/>
	<path class="st15" d="M728,632.9c14.4,0,11.2,24.7,11.2,24.7s-4.7,28,27.9,28c32.6,0,30.4-25.9,30.4-25.9
		c0-95.9-88.2-87.5-88.2-87.5l0,0c0,0-88.2-8.4-88.2,87.5c0,0-2.2,25.9,30.4,25.9s27.9-28,27.9-28s-3.2-24.7,11.2-24.7H728z"/>
	<path class="st15" d="M728,632.9c14.4,0,11.2,24.7,11.2,24.7s-4.7,28,27.9,28c32.6,0,30.4-25.9,30.4-25.9
		c0-95.9-88.2-87.5-88.2-87.5l0,0c0,0-88.2-8.4-88.2,87.5c0,0-2.2,25.9,30.4,25.9s27.9-28,27.9-28s-3.2-24.7,11.2-24.7H728z"/>
	<path class="st15" d="M708.8,571.2"/>
	<path class="st17" d="M751.1,505.2h-81.7c-3.6,0-6.6-3-6.6-6.6l0,0c0-3.6,3-6.6,6.6-6.6h81.7c3.6,0,6.6,3,6.6,6.6l0,0
		C757.6,502.2,754.7,505.2,751.1,505.2z"/>
	<path class="st17" d="M779.1,527.5H638.6c-3.6,0-6.6-3-6.6-6.6l0,0c0-3.6,3-6.6,6.6-6.6h140.5c3.6,0,6.6,3,6.6,6.6l0,0
		C785.7,524.5,782.7,527.5,779.1,527.5z"/>
	<path class="st17" d="M680.2,570h57.2c7.2,0,10.8,8.8,5.7,13.8l-10.1,10c-13.4,13.2-34.8,13.2-48.2,0l-10.1-10
		C669.4,578.8,673,570,680.2,570z"/>
	<g>
		<circle class="st17" cx="761.6" cy="652.3" r="4"/>
		<circle class="st17" cx="774.9" cy="642.6" r="4"/>
		<circle class="st17" cx="774.9" cy="661.6" r="4"/>
	</g>
	<g>
		<circle class="st17" cx="656.8" cy="651.9" r="4"/>
		<circle class="st17" cx="643.5" cy="661.6" r="4"/>
		<circle class="st17" cx="643.5" cy="642.6" r="4"/>
	</g>
	<g>
		<circle class="st20" cx="708.9" cy="739.4" r="21.7"/>
		<path class="st21" d="M690,742.1c0-12,9.7-21.7,21.7-21.7c5.3,0,10.1,1.9,13.9,5c-4-4.8-10-7.8-16.7-7.8c-12,0-21.7,9.7-21.7,21.7
			c0,6.7,3,12.7,7.8,16.7C691.9,752.2,690,747.4,690,742.1z"/>
		<path class="st22" d="M723.1,740.7c-1.2,5.9-5.7,10.7-11.5,12.3"/>
	</g>
	<path class="st23" d="M714.6,598.3h-10.5c-2.5,0-4.9-0.9-6.7-2.6l-3.7-3.5c-0.5-0.5-0.2-1.4,0.5-1.4h30.2c0.7,0,1.1,0.9,0.5,1.4
		l-3.7,3.5C719.4,597.4,717.1,598.3,714.6,598.3z"/>
	<path class="st24" d="M759.9,555.1c10.5-10.5,27.5-10.5,38.1,0"/>
	<path class="st24" d="M620.5,555.1c10.5-10.5,27.5-10.5,38.1,0"/>
</g>
</svg>
