<?xml version="1.0" encoding="utf-8"?>
<!-- Generator: Adobe Illustrator 20.1.0, SVG Export Plug-In . SVG Version: 6.00 Build 0)  -->
<svg version="1.1" id="Layer_1" xmlns="http://www.w3.org/2000/svg" xmlns:xlink="http://www.w3.org/1999/xlink" x="0px" y="0px"
	 viewBox="0 0 639 167" style="enable-background:new 0 0 639 167;" xml:space="preserve">
<style type="text/css">
	.st0{fill:#FFFFFF;}
</style>
<g>
	<path class="st0" d="M118.6,110.8c0,9,7.4,16.2,16.4,16.2c9,0,16.5-7.2,16.5-16.2c0-9-2.2-31.1-11.2-31.1
		c-4.5,0.1-9.2,6.4-13.2,12.9C120.5,102.6,118.7,106.1,118.6,110.8z"/>
	<path class="st0" d="M83.1,88.1c2.7,10.1,17,12,26.2,6.6c9.2-5.5,12.5-17.1,7.3-26.1c-5.2-9-21.5-29.7-30.7-24.4
		c-4.5,2.6-2.6,9.5-3,18.3C81.9,76.6,81.6,82.5,83.1,88.1z"/>
	<path class="st0" d="M45.6,123.8c3.1,8.5-1.3,17.8-9.8,20.9c-8.5,3.1-18-1.1-21.1-9.5s-8.7-29.9-0.3-33c4.2-1.4,10.9,2.8,16.9,7.6
		C40.9,116.8,43.9,119.4,45.6,123.8z"/>
	<path class="st0" d="M71.1,90.3c1,10.4-11.8,17.2-22.3,15.2c-10.5-2-17.6-11.7-15.8-21.9S42.9,48.3,53.3,50c5.1,0.9,5.7,8,9.2,16.1
		C68.2,79.1,70.5,84.5,71.1,90.3z"/>
	<path class="st0" d="M110.6,136.5c-9.4-5.8-17-12-27-10.2l10.4,58c6.3-1.1,35.2,8.1,38.3-18.5C133.3,155.2,124.5,145.1,110.6,136.5
		z"/>
	<path class="st0" d="M61.8,145.3c6.8-8.6,11.8-17.2,21.8-19l10.4,58c-6.3,1.1-30.2,19.8-42.4-4.1C47,170.6,51.9,158,61.8,145.3z"/>
	<path class="st0" d="M118.7,111c0,9,7.2,16.3,16.4,16.4c9,0,16.5-7.2,16.5-16.2s-2-31.2-11-31.1c-4.5-0.1-9.2,6.4-13.5,12.8
		C120.6,102.8,118.7,106.3,118.7,111z"/>
	<path class="st0" d="M83.3,88.1c2.7,10.1,17,12,26.2,6.8c9.2-5.2,12.7-16.9,7.5-26.1c-5.2-9-21.3-29.9-30.5-24.5
		c-4.5,2.6-2.6,9.5-3.2,18.4C82.4,76.5,81.9,82.7,83.3,88.1z"/>
	<path class="st0" d="M45.5,123.6c3.1,8.5-1.3,17.8-10,20.9s-18-1.3-20.9-9.8s-8.5-30-0.1-33.1c4.2-1.4,10.9,2.8,16.9,7.6
		C40.9,116.6,43.8,119.2,45.5,123.6z"/>
	<path class="st0" d="M71.3,90c1,10.4-11.8,17-22.5,15c-10.5-2-17.6-11.7-15.8-21.9C34.7,72.9,43,47.8,53.5,49.7
		c5.1,0.9,5.7,8,9.2,16.4C68.4,79,70.7,84.5,71.3,90z"/>
	<path class="st0" d="M110.7,136.7c-9.4-6-17-12.3-27.1-10.5l9.9,58.1c6.3-1.1,35,8.4,38.4-18.3
		C133.1,155.5,124.4,145.3,110.7,136.7z"/>
	<path class="st0" d="M61.7,145c6.8-8.6,12-17.2,21.8-19l9.9,58.1c-6.3,1.1-30.3,19.6-42.2-4.4C46.7,170.5,51.6,157.9,61.7,145z"/>
	<path class="st0" d="M118.6,110.8c0,9,7.4,16.2,16.4,16.2c9,0,16.5-7.2,16.5-16.2c0-9-2.2-31.1-11.2-31.1
		c-4.5,0.1-9.2,6.4-13.2,12.9C120.5,102.6,118.7,106.1,118.6,110.8z"/>
	<path class="st0" d="M83.1,88.1c2.7,10.1,17,12,26.2,6.6c9.2-5.5,12.5-17.1,7.3-26.1c-5.2-9-21.5-29.7-30.7-24.4
		c-4.5,2.6-2.6,9.5-3,18.3C81.9,76.6,81.6,82.5,83.1,88.1z"/>
	<path class="st0" d="M45.6,123.8c3.1,8.5-1.3,17.8-9.8,20.9c-8.5,3.1-18-1.1-21.1-9.5s-8.7-29.9-0.3-33c4.2-1.4,10.9,2.8,16.9,7.6
		C40.9,116.8,43.9,119.4,45.6,123.8z"/>
	<path class="st0" d="M71.1,90.3c1,10.4-11.8,17.2-22.3,15.2c-10.5-2-17.6-11.7-15.8-21.9S42.9,48.3,53.3,50c5.1,0.9,5.7,8,9.2,16.1
		C68.2,79.1,70.5,84.5,71.1,90.3z"/>
	<path class="st0" d="M110.6,136.5c-9.4-5.8-17-12-27-10.2l10.4,58c6.3-1.1,35.2,8.1,38.3-18.5C133.3,155.2,124.5,145.1,110.6,136.5
		z"/>
	<path class="st0" d="M61.8,145.3c6.8-8.6,11.8-17.2,21.8-19l10.4,58c-6.3,1.1-30.2,19.8-42.4-4.1C47,170.6,51.9,158,61.8,145.3z"/>
	<path class="st0" d="M118.7,111c0,9,7.2,16.3,16.4,16.4c9,0,16.5-7.2,16.5-16.2s-2-31.2-11-31.1c-4.5-0.1-9.2,6.4-13.5,12.8
		C120.6,102.8,118.7,106.3,118.7,111z"/>
	<path class="st0" d="M83.3,88.1c2.7,10.1,17,12,26.2,6.8c9.2-5.2,12.7-16.9,7.5-26.1c-5.2-9-21.3-29.9-30.5-24.5
		c-4.5,2.6-2.6,9.5-3.2,18.4C82.4,76.5,81.9,82.7,83.3,88.1z"/>
	<path class="st0" d="M45.5,123.6c3.1,8.5-1.3,17.8-10,20.9s-18-1.3-20.9-9.8s-8.5-30-0.1-33.1c4.2-1.4,10.9,2.8,16.9,7.6
		C40.9,116.6,43.8,119.2,45.5,123.6z"/>
	<path class="st0" d="M71.3,90c1,10.4-11.8,17-22.5,15c-10.5-2-17.6-11.7-15.8-21.9C34.7,72.9,43,47.8,53.5,49.7
		c5.1,0.9,5.7,8,9.2,16.4C68.4,79,70.7,84.5,71.3,90z"/>
	<path class="st0" d="M110.7,136.7c-9.4-6-17-12.3-27.1-10.5l9.9,58.1c6.3-1.1,35,8.4,38.4-18.3
		C133.1,155.5,124.4,145.3,110.7,136.7z"/>
	<path class="st0" d="M61.7,145c6.8-8.6,12-17.2,21.8-19l9.9,58.1c-6.3,1.1-30.3,19.6-42.2-4.4C46.7,170.5,51.6,157.9,61.7,145z"/>
	<path class="st0" d="M118.6,110.8c0,9,7.4,16.2,16.4,16.2c9,0,16.5-7.2,16.5-16.2c0-9-2.2-31.1-11.2-31.1
		c-4.5,0.1-9.2,6.4-13.2,12.9C120.5,102.6,118.7,106.1,118.6,110.8z"/>
	<path class="st0" d="M83.1,88.1c2.7,10.1,17,12,26.2,6.6c9.2-5.5,12.5-17.1,7.3-26.1c-5.2-9-21.5-29.7-30.7-24.4
		c-4.5,2.6-2.6,9.5-3,18.3C81.9,76.6,81.6,82.5,83.1,88.1z"/>
	<path class="st0" d="M45.6,123.8c3.1,8.5-1.3,17.8-9.8,20.9c-8.5,3.1-18-1.1-21.1-9.5s-8.7-29.9-0.3-33c4.2-1.4,10.9,2.8,16.9,7.6
		C40.9,116.8,43.9,119.4,45.6,123.8z"/>
	<path class="st0" d="M71.1,90.3c1,10.4-11.8,17.2-22.3,15.2c-10.5-2-17.6-11.7-15.8-21.9S42.9,48.3,53.3,50c5.1,0.9,5.7,8,9.2,16.1
		C68.2,79.1,70.5,84.5,71.1,90.3z"/>
	<path class="st0" d="M110.6,136.5c-9.4-5.8-17-12-27-10.2l10.4,58c6.3-1.1,35.2,8.1,38.3-18.5C133.3,155.2,124.5,145.1,110.6,136.5
		z"/>
	<path class="st0" d="M61.8,145.3c6.8-8.6,11.8-17.2,21.8-19l10.4,58c-6.3,1.1-30.2,19.8-42.4-4.1C47,170.6,51.9,158,61.8,145.3z"/>
	<path class="st0" d="M118.7,111c0,9,7.2,16.3,16.4,16.4c9,0,16.5-7.2,16.5-16.2s-2-31.2-11-31.1c-4.5-0.1-9.2,6.4-13.5,12.8
		C120.6,102.8,118.7,106.3,118.7,111z"/>
	<path class="st0" d="M83.3,88.1c2.7,10.1,17,12,26.2,6.8c9.2-5.2,12.7-16.9,7.5-26.1c-5.2-9-21.3-29.9-30.5-24.5
		c-4.5,2.6-2.6,9.5-3.2,18.4C82.4,76.5,81.9,82.7,83.3,88.1z"/>
	<path class="st0" d="M45.5,123.6c3.1,8.5-1.3,17.8-10,20.9s-18-1.3-20.9-9.8s-8.5-30-0.1-33.1c4.2-1.4,10.9,2.8,16.9,7.6
		C40.9,116.6,43.8,119.2,45.5,123.6z"/>
	<path class="st0" d="M71.3,90c1,10.4-11.8,17-22.5,15c-10.5-2-17.6-11.7-15.8-21.9C34.7,72.9,43,47.8,53.5,49.7
		c5.1,0.9,5.7,8,9.2,16.4C68.4,79,70.7,84.5,71.3,90z"/>
	<path class="st0" d="M110.7,136.7c-9.4-6-17-12.3-27.1-10.5l9.9,58.1c6.3-1.1,35,8.4,38.4-18.3
		C133.1,155.5,124.4,145.3,110.7,136.7z"/>
	<path class="st0" d="M61.7,145c6.8-8.6,12-17.2,21.8-19l9.9,58.1c-6.3,1.1-30.3,19.6-42.2-4.4C46.7,170.5,51.6,157.9,61.7,145z"/>
	<path class="st0" d="M118.6,110.8c0,9,7.4,16.2,16.4,16.2c9,0,16.5-7.2,16.5-16.2c0-9-2.2-31.1-11.2-31.1
		c-4.5,0.1-9.2,6.4-13.2,12.9C120.5,102.6,118.7,106.1,118.6,110.8z"/>
	<path class="st0" d="M83.1,88.1c2.7,10.1,17,12,26.2,6.6c9.2-5.5,12.5-17.1,7.3-26.1c-5.2-9-21.5-29.7-30.7-24.4
		c-4.5,2.6-2.6,9.5-3,18.3C81.9,76.6,81.6,82.5,83.1,88.1z"/>
	<path class="st0" d="M45.6,123.8c3.1,8.5-1.3,17.8-9.8,20.9c-8.5,3.1-18-1.1-21.1-9.5s-8.7-29.9-0.3-33c4.2-1.4,10.9,2.8,16.9,7.6
		C40.9,116.8,43.9,119.4,45.6,123.8z"/>
	<path class="st0" d="M71.1,90.3c1,10.4-11.8,17.2-22.3,15.2c-10.5-2-17.6-11.7-15.8-21.9S42.9,48.3,53.3,50c5.1,0.9,5.7,8,9.2,16.1
		C68.2,79.1,70.5,84.5,71.1,90.3z"/>
	<path class="st0" d="M110.6,136.5c-9.4-5.8-17-12-27-10.2l10.4,58c6.3-1.1,35.2,8.1,38.3-18.5C133.3,155.2,124.5,145.1,110.6,136.5
		z"/>
	<path class="st0" d="M61.8,145.3c6.8-8.6,11.8-17.2,21.8-19l10.4,58c-6.3,1.1-30.2,19.8-42.4-4.1C47,170.6,51.9,158,61.8,145.3z"/>
	<path class="st0" d="M118.7,111c0,9,7.2,16.3,16.4,16.4c9,0,16.5-7.2,16.5-16.2s-2-31.2-11-31.1c-4.5-0.1-9.2,6.4-13.5,12.8
		C120.6,102.8,118.7,106.3,118.7,111z"/>
	<path class="st0" d="M83.3,88.1c2.7,10.1,17,12,26.2,6.8c9.2-5.2,12.7-16.9,7.5-26.1c-5.2-9-21.3-29.9-30.5-24.5
		c-4.5,2.6-2.6,9.5-3.2,18.4C82.4,76.5,81.9,82.7,83.3,88.1z"/>
	<path class="st0" d="M45.5,123.6c3.1,8.5-1.3,17.8-10,20.9s-18-1.3-20.9-9.8s-8.5-30-0.1-33.1c4.2-1.4,10.9,2.8,16.9,7.6
		C40.9,116.6,43.8,119.2,45.5,123.6z"/>
	<path class="st0" d="M71.3,90c1,10.4-11.8,17-22.5,15c-10.5-2-17.6-11.7-15.8-21.9C34.7,72.9,43,47.8,53.5,49.7
		c5.1,0.9,5.7,8,9.2,16.4C68.4,79,70.7,84.5,71.3,90z"/>
	<path class="st0" d="M110.7,136.7c-9.4-6-17-12.3-27.1-10.5l9.9,58.1c6.3-1.1,35,8.4,38.4-18.3
		C133.1,155.5,124.4,145.3,110.7,136.7z"/>
	<path class="st0" d="M61.7,145c6.8-8.6,12-17.2,21.8-19l9.9,58.1c-6.3,1.1-30.3,19.6-42.2-4.4C46.7,170.5,51.6,157.9,61.7,145z"/>
</g>
<g>
	<path class="st0" d="M241.5,123.5c-1,6,3,11.7,9,12.7c6,1,11.8-2.8,12.9-8.8s2.2-21-3.7-22c-3-0.4-6.9,3.1-10.3,7
		C243.8,118.2,242.1,120.3,241.5,123.5z"/>
	<path class="st0" d="M220.5,104.1c0.6,7,9.9,10,16.6,7.5c6.7-2.5,10.3-9.9,7.9-16.5c-2.4-6.6-10.8-22.3-17.5-19.9
		c-3.3,1.2-2.8,6-4.2,11.8C221.1,96.3,220.2,100.2,220.5,104.1z"/>
	<path class="st0" d="M191.3,123.5c1,6-3,11.7-9,12.7c-6,1-11.8-2.8-12.9-8.8s-2.2-21,3.7-22c3-0.4,6.9,3.1,10.3,7
		C189,118.2,190.7,120.3,191.3,123.5z"/>
	<path class="st0" d="M212.3,104.1c-0.6,7-9.9,10-16.6,7.5c-6.7-2.5-10.3-9.9-7.9-16.5c2.4-6.6,10.8-22.3,17.5-19.9
		c3.3,1.2,2.8,6,4.2,11.8C211.7,96.3,212.6,100.2,212.3,104.1z"/>
	<path class="st0" d="M233.1,139.7c-5.5-4.9-9.9-10-16.8-10v39.9c4.3,0,22.5,9.6,27.7-7.8C246,154.8,241.4,147,233.1,139.7z"/>
	<path class="st0" d="M199.5,139.7c5.5-4.9,9.9-10,16.8-10v39.9c-4.3,0-22.5,9.6-27.7-7.8C186.6,154.8,191.4,147,199.5,139.7z"/>
	<path class="st0" d="M241.5,123.6c-1,6,2.8,11.7,9,12.9c6,1,11.8-2.8,12.9-8.8c1-6,2.4-21-3.6-22c-3-0.6-6.9,3.1-10.5,6.9
		C243.8,118.4,242.1,120.5,241.5,123.6z"/>
	<path class="st0" d="M220.7,104.1c0.6,7,9.9,10,16.6,7.6c6.7-2.4,10.5-9.7,8.1-16.5c-2.4-6.6-10.6-22.5-17.4-19.9
		c-3.3,1.2-2.8,6-4.3,11.8C221.4,96.3,220.4,100.4,220.7,104.1z"/>
	<path class="st0" d="M191.3,123.3c1,6-3,11.7-9.1,12.7c-6.1,1-11.8-3-12.7-9c-0.9-6-2.1-21,3.9-22c3-0.4,6.9,3.1,10.3,7
		C189,118.1,190.7,120.2,191.3,123.3z"/>
	<path class="st0" d="M212.4,104c-0.6,7-9.9,9.9-16.8,7.3c-6.7-2.5-10.3-9.9-7.9-16.5c2.4-6.6,10.9-22.3,17.7-19.8
		c3.3,1.2,2.8,6,4.2,12C211.8,96.3,212.7,100.2,212.4,104z"/>
	<path class="st0" d="M233.1,139.8c-5.5-5.1-9.9-10.2-16.8-10.2l-0.3,39.9c4.3,0,22.3,9.7,27.7-7.6
		C245.9,154.9,241.2,147.1,233.1,139.8z"/>
	<path class="st0" d="M199.5,139.5c5.5-4.9,10-10,16.8-10l-0.3,39.9c-4.3,0-22.5,9.4-27.6-7.9C186.5,154.6,191.3,146.8,199.5,139.5z
		"/>
	<path class="st0" d="M241.5,123.5c-1,6,3,11.7,9,12.7c6,1,11.8-2.8,12.9-8.8s2.2-21-3.7-22c-3-0.4-6.9,3.1-10.3,7
		C243.8,118.2,242.1,120.3,241.5,123.5z"/>
	<path class="st0" d="M220.5,104.1c0.6,7,9.9,10,16.6,7.5c6.7-2.5,10.3-9.9,7.9-16.5c-2.4-6.6-10.8-22.3-17.5-19.9
		c-3.3,1.2-2.8,6-4.2,11.8C221.1,96.3,220.2,100.2,220.5,104.1z"/>
	<path class="st0" d="M191.3,123.5c1,6-3,11.7-9,12.7c-6,1-11.8-2.8-12.9-8.8s-2.2-21,3.7-22c3-0.4,6.9,3.1,10.3,7
		C189,118.2,190.7,120.3,191.3,123.5z"/>
	<path class="st0" d="M212.3,104.1c-0.6,7-9.9,10-16.6,7.5c-6.7-2.5-10.3-9.9-7.9-16.5c2.4-6.6,10.8-22.3,17.5-19.9
		c3.3,1.2,2.8,6,4.2,11.8C211.7,96.3,212.6,100.2,212.3,104.1z"/>
	<path class="st0" d="M233.1,139.7c-5.5-4.9-9.9-10-16.8-10v39.9c4.3,0,22.5,9.6,27.7-7.8C246,154.8,241.4,147,233.1,139.7z"/>
	<path class="st0" d="M199.5,139.7c5.5-4.9,9.9-10,16.8-10v39.9c-4.3,0-22.5,9.6-27.7-7.8C186.6,154.8,191.4,147,199.5,139.7z"/>
	<path class="st0" d="M241.5,123.6c-1,6,2.8,11.7,9,12.9c6,1,11.8-2.8,12.9-8.8c1-6,2.4-21-3.6-22c-3-0.6-6.9,3.1-10.5,6.9
		C243.8,118.4,242.1,120.5,241.5,123.6z"/>
	<path class="st0" d="M220.7,104.1c0.6,7,9.9,10,16.6,7.6c6.7-2.4,10.5-9.7,8.1-16.5c-2.4-6.6-10.6-22.5-17.4-19.9
		c-3.3,1.2-2.8,6-4.3,11.8C221.4,96.3,220.4,100.4,220.7,104.1z"/>
	<path class="st0" d="M191.3,123.3c1,6-3,11.7-9.1,12.7c-6.1,1-11.8-3-12.7-9c-0.9-6-2.1-21,3.9-22c3-0.4,6.9,3.1,10.3,7
		C189,118.1,190.7,120.2,191.3,123.3z"/>
	<path class="st0" d="M212.4,104c-0.6,7-9.9,9.9-16.8,7.3c-6.7-2.5-10.3-9.9-7.9-16.5c2.4-6.6,10.9-22.3,17.7-19.8
		c3.3,1.2,2.8,6,4.2,12C211.8,96.3,212.7,100.2,212.4,104z"/>
	<path class="st0" d="M233.1,139.8c-5.5-5.1-9.9-10.2-16.8-10.2l-0.3,39.9c4.3,0,22.3,9.7,27.7-7.6
		C245.9,154.9,241.2,147.1,233.1,139.8z"/>
	<path class="st0" d="M199.5,139.5c5.5-4.9,10-10,16.8-10l-0.3,39.9c-4.3,0-22.5,9.4-27.6-7.9C186.5,154.6,191.3,146.8,199.5,139.5z
		"/>
	<path class="st0" d="M241.5,123.5c-1,6,3,11.7,9,12.7c6,1,11.8-2.8,12.9-8.8s2.2-21-3.7-22c-3-0.4-6.9,3.1-10.3,7
		C243.8,118.2,242.1,120.3,241.5,123.5z"/>
	<path class="st0" d="M220.5,104.1c0.6,7,9.9,10,16.6,7.5c6.7-2.5,10.3-9.9,7.9-16.5c-2.4-6.6-10.8-22.3-17.5-19.9
		c-3.3,1.2-2.8,6-4.2,11.8C221.1,96.3,220.2,100.2,220.5,104.1z"/>
	<path class="st0" d="M191.3,123.5c1,6-3,11.7-9,12.7c-6,1-11.8-2.8-12.9-8.8s-2.2-21,3.7-22c3-0.4,6.9,3.1,10.3,7
		C189,118.2,190.7,120.3,191.3,123.5z"/>
	<path class="st0" d="M212.3,104.1c-0.6,7-9.9,10-16.6,7.5c-6.7-2.5-10.3-9.9-7.9-16.5c2.4-6.6,10.8-22.3,17.5-19.9
		c3.3,1.2,2.8,6,4.2,11.8C211.7,96.3,212.6,100.2,212.3,104.1z"/>
	<path class="st0" d="M233.1,139.7c-5.5-4.9-9.9-10-16.8-10v39.9c4.3,0,22.5,9.6,27.7-7.8C246,154.8,241.4,147,233.1,139.7z"/>
	<path class="st0" d="M199.5,139.7c5.5-4.9,9.9-10,16.8-10v39.9c-4.3,0-22.5,9.6-27.7-7.8C186.6,154.8,191.4,147,199.5,139.7z"/>
	<path class="st0" d="M241.5,123.6c-1,6,2.8,11.7,9,12.9c6,1,11.8-2.8,12.9-8.8c1-6,2.4-21-3.6-22c-3-0.6-6.9,3.1-10.5,6.9
		C243.8,118.4,242.1,120.5,241.5,123.6z"/>
	<path class="st0" d="M220.7,104.1c0.6,7,9.9,10,16.6,7.6c6.7-2.4,10.5-9.7,8.1-16.5c-2.4-6.6-10.6-22.5-17.4-19.9
		c-3.3,1.2-2.8,6-4.3,11.8C221.4,96.3,220.4,100.4,220.7,104.1z"/>
	<path class="st0" d="M191.3,123.3c1,6-3,11.7-9.1,12.7c-6.1,1-11.8-3-12.7-9c-0.9-6-2.1-21,3.9-22c3-0.4,6.9,3.1,10.3,7
		C189,118.1,190.7,120.2,191.3,123.3z"/>
	<path class="st0" d="M212.4,104c-0.6,7-9.9,9.9-16.8,7.3c-6.7-2.5-10.3-9.9-7.9-16.5c2.4-6.6,10.9-22.3,17.7-19.8
		c3.3,1.2,2.8,6,4.2,12C211.8,96.3,212.7,100.2,212.4,104z"/>
	<path class="st0" d="M233.1,139.8c-5.5-5.1-9.9-10.2-16.8-10.2l-0.3,39.9c4.3,0,22.3,9.7,27.7-7.6
		C245.9,154.9,241.2,147.1,233.1,139.8z"/>
	<path class="st0" d="M199.5,139.5c5.5-4.9,10-10,16.8-10l-0.3,39.9c-4.3,0-22.5,9.4-27.6-7.9C186.5,154.6,191.3,146.8,199.5,139.5z
		"/>
	<path class="st0" d="M241.5,123.5c-1,6,3,11.7,9,12.7c6,1,11.8-2.8,12.9-8.8s2.2-21-3.7-22c-3-0.4-6.9,3.1-10.3,7
		C243.8,118.2,242.1,120.3,241.5,123.5z"/>
	<path class="st0" d="M220.5,104.1c0.6,7,9.9,10,16.6,7.5c6.7-2.5,10.3-9.9,7.9-16.5c-2.4-6.6-10.8-22.3-17.5-19.9
		c-3.3,1.2-2.8,6-4.2,11.8C221.1,96.3,220.2,100.2,220.5,104.1z"/>
	<path class="st0" d="M191.3,123.5c1,6-3,11.7-9,12.7c-6,1-11.8-2.8-12.9-8.8s-2.2-21,3.7-22c3-0.4,6.9,3.1,10.3,7
		C189,118.2,190.7,120.3,191.3,123.5z"/>
	<path class="st0" d="M212.3,104.1c-0.6,7-9.9,10-16.6,7.5c-6.7-2.5-10.3-9.9-7.9-16.5c2.4-6.6,10.8-22.3,17.5-19.9
		c3.3,1.2,2.8,6,4.2,11.8C211.7,96.3,212.6,100.2,212.3,104.1z"/>
	<path class="st0" d="M233.1,139.7c-5.5-4.9-9.9-10-16.8-10v39.9c4.3,0,22.5,9.6,27.7-7.8C246,154.8,241.4,147,233.1,139.7z"/>
	<path class="st0" d="M199.5,139.7c5.5-4.9,9.9-10,16.8-10v39.9c-4.3,0-22.5,9.6-27.7-7.8C186.6,154.8,191.4,147,199.5,139.7z"/>
	<path class="st0" d="M241.5,123.6c-1,6,2.8,11.7,9,12.9c6,1,11.8-2.8,12.9-8.8c1-6,2.4-21-3.6-22c-3-0.6-6.9,3.1-10.5,6.9
		C243.8,118.4,242.1,120.5,241.5,123.6z"/>
	<path class="st0" d="M220.7,104.1c0.6,7,9.9,10,16.6,7.6c6.7-2.4,10.5-9.7,8.1-16.5c-2.4-6.6-10.6-22.5-17.4-19.9
		c-3.3,1.2-2.8,6-4.3,11.8C221.4,96.3,220.4,100.4,220.7,104.1z"/>
	<path class="st0" d="M191.3,123.3c1,6-3,11.7-9.1,12.7c-6.1,1-11.8-3-12.7-9c-0.9-6-2.1-21,3.9-22c3-0.4,6.9,3.1,10.3,7
		C189,118.1,190.7,120.2,191.3,123.3z"/>
	<path class="st0" d="M212.4,104c-0.6,7-9.9,9.9-16.8,7.3c-6.7-2.5-10.3-9.9-7.9-16.5c2.4-6.6,10.9-22.3,17.7-19.8
		c3.3,1.2,2.8,6,4.2,12C211.8,96.3,212.7,100.2,212.4,104z"/>
	<path class="st0" d="M233.1,139.8c-5.5-5.1-9.9-10.2-16.8-10.2l-0.3,39.9c4.3,0,22.3,9.7,27.7-7.6
		C245.9,154.9,241.2,147.1,233.1,139.8z"/>
	<path class="st0" d="M199.5,139.5c5.5-4.9,10-10,16.8-10l-0.3,39.9c-4.3,0-22.5,9.4-27.6-7.9C186.5,154.6,191.3,146.8,199.5,139.5z
		"/>
</g>
<g>
	<path class="st0" d="M378.3,151.6c-5.2,6.1-4.5,15.2,1.6,20.5c6.1,5.2,15.3,4.8,20.5-1.3c5.2-6.1,16.7-22.2,10.6-27.4
		c-3.1-2.5-9.9-1.1-16.4,1C384.4,147.2,381.1,148.5,378.3,151.6z"/>
	<path class="st0" d="M367.6,115.7c-4.1,8.4,4.4,18,13.7,19.7c9.3,1.7,18.3-4.2,20.1-13.3c1.7-9.1,2.9-32.5-6.3-34.3
		c-4.5-0.9-7.3,4.8-12.7,10.5C373.6,107.3,369.9,111.1,367.6,115.7z"/>
	<path class="st0" d="M321.6,117.8c-2.9,7.5-11.3,11.2-18.7,8.3c-7.5-2.9-11.4-11.2-8.6-18.7c2.9-7.5,11.6-25.2,19.1-22.3
		c3.7,1.5,5.7,8.2,6.9,14.9C322.6,110.3,323,113.8,321.6,117.8z"/>
	<path class="st0" d="M358.3,110.1c-5.4,7.5-17.9,4.7-23.8-2.8c-5.9-7.4-5-18.1,2.2-24s27.3-17.9,33.2-10.7
		c2.9,3.6-0.8,8.7-3.3,16.2C362.9,100.9,361.3,105.9,358.3,110.1z"/>
	<path class="st0" d="M357.9,164.3c-2.9-9.3-4.4-18-12.2-22.7l-26.9,45c4.9,2.9,18.9,26,36.6,9.9C362.2,190,362.2,178.1,357.9,164.3
		z"/>
	<path class="st0" d="M320,141.6c9.6-1.8,17.9-4.7,25.7,0l-26.9,45c-4.9-2.9-31.9-4.3-26-27.5C295.2,150,305.9,144.4,320,141.6z"/>
	<path class="st0" d="M378.2,151.8c-5.2,6.1-4.7,15.1,1.5,20.6c6.1,5.2,15.3,4.8,20.5-1.3c5.2-6.1,16.9-22.1,10.8-27.3
		c-3-2.7-9.9-1.1-16.5,0.7C384.3,147.4,381,148.7,378.2,151.8z"/>
	<path class="st0" d="M367.8,115.8c-4.1,8.4,4.4,18,13.6,19.9s18.4-3.9,20.3-13.2c1.7-9.1,3.2-32.6-6.2-34.2
		c-4.5-0.9-7.3,4.8-12.9,10.4C373.9,107.5,370,111.3,367.8,115.8z"/>
	<path class="st0" d="M321.7,117.6c-2.9,7.5-11.3,11.2-18.9,8.2c-7.6-3-11.3-11.4-8.3-18.7c3-7.4,11.8-25.1,19.3-22.2
		c3.7,1.5,5.7,8.2,6.9,14.9C322.7,110.2,323.1,113.6,321.7,117.6z"/>
	<path class="st0" d="M358.6,110c-5.4,7.5-17.8,4.5-23.9-3c-5.9-7.4-5-18.1,2.2-24s27.4-17.8,33.3-10.4c2.9,3.6-0.8,8.7-3.4,16.4
		C363.1,101,361.5,106,358.6,110z"/>
	<path class="st0" d="M357.8,164.4c-2.8-9.5-4.3-18.2-12.1-22.8l-27.2,44.8c4.9,2.9,18.6,26.1,36.5,10.1
		C361.9,190.1,362,178.2,357.8,164.4z"/>
	<path class="st0" d="M320.1,141.4c9.6-1.8,18.1-4.6,25.7,0l-27.2,44.8c-4.9-2.9-31.8-4.5-25.8-27.6
		C295.1,149.7,305.8,144.2,320.1,141.4z"/>
	<path class="st0" d="M378.3,151.6c-5.2,6.1-4.5,15.2,1.6,20.5c6.1,5.2,15.3,4.8,20.5-1.3c5.2-6.1,16.7-22.2,10.6-27.4
		c-3.1-2.5-9.9-1.1-16.4,1C384.4,147.2,381.1,148.5,378.3,151.6z"/>
	<path class="st0" d="M367.6,115.7c-4.1,8.4,4.4,18,13.7,19.7c9.3,1.7,18.3-4.2,20.1-13.3c1.7-9.1,2.9-32.5-6.3-34.3
		c-4.5-0.9-7.3,4.8-12.7,10.5C373.6,107.3,369.9,111.1,367.6,115.7z"/>
	<path class="st0" d="M321.6,117.8c-2.9,7.5-11.3,11.2-18.7,8.3c-7.5-2.9-11.4-11.2-8.6-18.7c2.9-7.5,11.6-25.2,19.1-22.3
		c3.7,1.5,5.7,8.2,6.9,14.9C322.6,110.3,323,113.8,321.6,117.8z"/>
	<path class="st0" d="M358.3,110.1c-5.4,7.5-17.9,4.7-23.8-2.8c-5.9-7.4-5-18.1,2.2-24s27.3-17.9,33.2-10.7
		c2.9,3.6-0.8,8.7-3.3,16.2C362.9,100.9,361.3,105.9,358.3,110.1z"/>
	<path class="st0" d="M357.9,164.3c-2.9-9.3-4.4-18-12.2-22.7l-26.9,45c4.9,2.9,18.9,26,36.6,9.9C362.2,190,362.2,178.1,357.9,164.3
		z"/>
	<path class="st0" d="M320,141.6c9.6-1.8,17.9-4.7,25.7,0l-26.9,45c-4.9-2.9-31.9-4.3-26-27.5C295.2,150,305.9,144.4,320,141.6z"/>
	<path class="st0" d="M378.2,151.8c-5.2,6.1-4.7,15.1,1.5,20.6c6.1,5.2,15.3,4.8,20.5-1.3c5.2-6.1,16.9-22.1,10.8-27.3
		c-3-2.7-9.9-1.1-16.5,0.7C384.3,147.4,381,148.7,378.2,151.8z"/>
	<path class="st0" d="M367.8,115.8c-4.1,8.4,4.4,18,13.6,19.9s18.4-3.9,20.3-13.2c1.7-9.1,3.2-32.6-6.2-34.2
		c-4.5-0.9-7.3,4.8-12.9,10.4C373.9,107.5,370,111.3,367.8,115.8z"/>
	<path class="st0" d="M321.7,117.6c-2.9,7.5-11.3,11.2-18.9,8.2c-7.6-3-11.3-11.4-8.3-18.7c3-7.4,11.8-25.1,19.3-22.2
		c3.7,1.5,5.7,8.2,6.9,14.9C322.7,110.2,323.1,113.6,321.7,117.6z"/>
	<path class="st0" d="M358.6,110c-5.4,7.5-17.8,4.5-23.9-3c-5.9-7.4-5-18.1,2.2-24s27.4-17.8,33.3-10.4c2.9,3.6-0.8,8.7-3.4,16.4
		C363.1,101,361.5,106,358.6,110z"/>
	<path class="st0" d="M357.8,164.4c-2.8-9.5-4.3-18.2-12.1-22.8l-27.2,44.8c4.9,2.9,18.6,26.1,36.5,10.1
		C361.9,190.1,362,178.2,357.8,164.4z"/>
	<path class="st0" d="M320.1,141.4c9.6-1.8,18.1-4.6,25.7,0l-27.2,44.8c-4.9-2.9-31.8-4.5-25.8-27.6
		C295.1,149.7,305.8,144.2,320.1,141.4z"/>
	<path class="st0" d="M378.3,151.6c-5.2,6.1-4.5,15.2,1.6,20.5c6.1,5.2,15.3,4.8,20.5-1.3c5.2-6.1,16.7-22.2,10.6-27.4
		c-3.1-2.5-9.9-1.1-16.4,1C384.4,147.2,381.1,148.5,378.3,151.6z"/>
	<path class="st0" d="M367.6,115.7c-4.1,8.4,4.4,18,13.7,19.7c9.3,1.7,18.3-4.2,20.1-13.3c1.7-9.1,2.9-32.5-6.3-34.3
		c-4.5-0.9-7.3,4.8-12.7,10.5C373.6,107.3,369.9,111.1,367.6,115.7z"/>
	<path class="st0" d="M321.6,117.8c-2.9,7.5-11.3,11.2-18.7,8.3c-7.5-2.9-11.4-11.2-8.6-18.7c2.9-7.5,11.6-25.2,19.1-22.3
		c3.7,1.5,5.7,8.2,6.9,14.9C322.6,110.3,323,113.8,321.6,117.8z"/>
	<path class="st0" d="M358.3,110.1c-5.4,7.5-17.9,4.7-23.8-2.8c-5.9-7.4-5-18.1,2.2-24s27.3-17.9,33.2-10.7
		c2.9,3.6-0.8,8.7-3.3,16.2C362.9,100.9,361.3,105.9,358.3,110.1z"/>
	<path class="st0" d="M357.9,164.3c-2.9-9.3-4.4-18-12.2-22.7l-26.9,45c4.9,2.9,18.9,26,36.6,9.9C362.2,190,362.2,178.1,357.9,164.3
		z"/>
	<path class="st0" d="M320,141.6c9.6-1.8,17.9-4.7,25.7,0l-26.9,45c-4.9-2.9-31.9-4.3-26-27.5C295.2,150,305.9,144.4,320,141.6z"/>
	<path class="st0" d="M378.2,151.8c-5.2,6.1-4.7,15.1,1.5,20.6c6.1,5.2,15.3,4.8,20.5-1.3c5.2-6.1,16.9-22.1,10.8-27.3
		c-3-2.7-9.9-1.1-16.5,0.7C384.3,147.4,381,148.7,378.2,151.8z"/>
	<path class="st0" d="M367.8,115.8c-4.1,8.4,4.4,18,13.6,19.9s18.4-3.9,20.3-13.2c1.7-9.1,3.2-32.6-6.2-34.2
		c-4.5-0.9-7.3,4.8-12.9,10.4C373.9,107.5,370,111.3,367.8,115.8z"/>
	<path class="st0" d="M321.7,117.6c-2.9,7.5-11.3,11.2-18.9,8.2c-7.6-3-11.3-11.4-8.3-18.7c3-7.4,11.8-25.1,19.3-22.2
		c3.7,1.5,5.7,8.2,6.9,14.9C322.7,110.2,323.1,113.6,321.7,117.6z"/>
	<path class="st0" d="M358.6,110c-5.4,7.5-17.8,4.5-23.9-3c-5.9-7.4-5-18.1,2.2-24s27.4-17.8,33.3-10.4c2.9,3.6-0.8,8.7-3.4,16.4
		C363.1,101,361.5,106,358.6,110z"/>
	<path class="st0" d="M357.8,164.4c-2.8-9.5-4.3-18.2-12.1-22.8l-27.2,44.8c4.9,2.9,18.6,26.1,36.5,10.1
		C361.9,190.1,362,178.2,357.8,164.4z"/>
	<path class="st0" d="M320.1,141.4c9.6-1.8,18.1-4.6,25.7,0l-27.2,44.8c-4.9-2.9-31.8-4.5-25.8-27.6
		C295.1,149.7,305.8,144.2,320.1,141.4z"/>
	<path class="st0" d="M378.3,151.6c-5.2,6.1-4.5,15.2,1.6,20.5c6.1,5.2,15.3,4.8,20.5-1.3c5.2-6.1,16.7-22.2,10.6-27.4
		c-3.1-2.5-9.9-1.1-16.4,1C384.4,147.2,381.1,148.5,378.3,151.6z"/>
	<path class="st0" d="M367.6,115.7c-4.1,8.4,4.4,18,13.7,19.7c9.3,1.7,18.3-4.2,20.1-13.3c1.7-9.1,2.9-32.5-6.3-34.3
		c-4.5-0.9-7.3,4.8-12.7,10.5C373.6,107.3,369.9,111.1,367.6,115.7z"/>
	<path class="st0" d="M321.6,117.8c-2.9,7.5-11.3,11.2-18.7,8.3c-7.5-2.9-11.4-11.2-8.6-18.7c2.9-7.5,11.6-25.2,19.1-22.3
		c3.7,1.5,5.7,8.2,6.9,14.9C322.6,110.3,323,113.8,321.6,117.8z"/>
	<path class="st0" d="M358.3,110.1c-5.4,7.5-17.9,4.7-23.8-2.8c-5.9-7.4-5-18.1,2.2-24s27.3-17.9,33.2-10.7
		c2.9,3.6-0.8,8.7-3.3,16.2C362.9,100.9,361.3,105.9,358.3,110.1z"/>
	<path class="st0" d="M357.9,164.3c-2.9-9.3-4.4-18-12.2-22.7l-26.9,45c4.9,2.9,18.9,26,36.6,9.9C362.2,190,362.2,178.1,357.9,164.3
		z"/>
	<path class="st0" d="M320,141.6c9.6-1.8,17.9-4.7,25.7,0l-26.9,45c-4.9-2.9-31.9-4.3-26-27.5C295.2,150,305.9,144.4,320,141.6z"/>
	<path class="st0" d="M378.2,151.8c-5.2,6.1-4.7,15.1,1.5,20.6c6.1,5.2,15.3,4.8,20.5-1.3c5.2-6.1,16.9-22.1,10.8-27.3
		c-3-2.7-9.9-1.1-16.5,0.7C384.3,147.4,381,148.7,378.2,151.8z"/>
	<path class="st0" d="M367.8,115.8c-4.1,8.4,4.4,18,13.6,19.9s18.4-3.9,20.3-13.2c1.7-9.1,3.2-32.6-6.2-34.2
		c-4.5-0.9-7.3,4.8-12.9,10.4C373.9,107.5,370,111.3,367.8,115.8z"/>
	<path class="st0" d="M321.7,117.6c-2.9,7.5-11.3,11.2-18.9,8.2c-7.6-3-11.3-11.4-8.3-18.7c3-7.4,11.8-25.1,19.3-22.2
		c3.7,1.5,5.7,8.2,6.9,14.9C322.7,110.2,323.1,113.6,321.7,117.6z"/>
	<path class="st0" d="M358.6,110c-5.4,7.5-17.8,4.5-23.9-3c-5.9-7.4-5-18.1,2.2-24s27.4-17.8,33.3-10.4c2.9,3.6-0.8,8.7-3.4,16.4
		C363.1,101,361.5,106,358.6,110z"/>
	<path class="st0" d="M357.8,164.4c-2.8-9.5-4.3-18.2-12.1-22.8l-27.2,44.8c4.9,2.9,18.6,26.1,36.5,10.1
		C361.9,190.1,362,178.2,357.8,164.4z"/>
	<path class="st0" d="M320.1,141.4c9.6-1.8,18.1-4.6,25.7,0l-27.2,44.8c-4.9-2.9-31.8-4.5-25.8-27.6
		C295.1,149.7,305.8,144.2,320.1,141.4z"/>
</g>
<g>
	<path class="st0" d="M469,96.2c2.4,4.9,8.2,6.8,13.1,4.5s7-8.2,4.7-13.1s-9.3-16.3-14.1-13.9c-2.4,1.2-3.3,5.8-3.8,10.4
		C467.9,91.3,467.8,93.7,469,96.2z"/>
	<path class="st0" d="M443.9,93.2c4.1,4.8,12.3,2.1,15.9-3.3c3.5-5.3,2.3-12.5-2.9-16s-19.4-10.5-23-5.2c-1.7,2.6,1.1,5.8,3.1,10.7
		C440.2,87.3,441.6,90.6,443.9,93.2z"/>
	<path class="st0" d="M432.9,122.3c3.9,3.8,3.9,10,0.2,13.8c-3.8,3.9-10,4.1-13.9,0.3s-12.5-13.9-8.8-17.8c1.9-1.9,6.6-1.3,11.1-0.3
		C428.5,119.7,430.8,120.4,432.9,122.3z"/>
	<path class="st0" d="M437.9,97.5c3.2,5.4-1.9,12.4-8.1,14s-12.6-1.7-14.3-7.7c-1.7-6-3.8-21.7,2.3-23.4c3-0.9,5.2,2.8,9.2,6.3
		C433.4,92.2,436.1,94.6,437.9,97.5z"/>
	<path class="st0" d="M471.4,112.2c-6.6-0.7-12.3-2.1-17.3,1.5l20.7,28.7c3.1-2.3,21.2-4.8,15.9-20
		C488.5,116.4,481.1,113.2,471.4,112.2z"/>
	<path class="st0" d="M447.2,129.7c1.4-6.4,1.9-12.4,6.9-15.9l20.7,28.7c-3.1,2.3-11.2,18.6-24,8.8
		C445.8,147.3,445.2,139.2,447.2,129.7z"/>
	<path class="st0" d="M469.1,96.3c2.4,4.9,8.1,6.9,13.2,4.6c4.9-2.4,7-8.2,4.7-13.1s-9.2-16.3-14-14c-2.5,1.1-3.3,5.8-4,10.4
		C468,91.4,467.9,93.8,469.1,96.3z"/>
	<path class="st0" d="M444,93.2c4.1,4.8,12.3,2.1,15.9-3.1c3.6-5.2,2.5-12.5-2.7-16.1c-5.2-3.5-19.3-10.6-22.9-5.3
		c-1.7,2.6,1.1,5.8,3,10.8C440.5,87.2,441.8,90.6,444,93.2z"/>
	<path class="st0" d="M432.8,122.2c3.9,3.8,3.9,10,0,13.9c-3.9,3.9-10.1,4-13.8,0.2c-3.8-3.8-12.4-14-8.6-17.9
		c1.9-1.9,6.6-1.3,11.1-0.3C428.5,119.6,430.7,120.3,432.8,122.2z"/>
	<path class="st0" d="M438,97.3c3.2,5.4-2,12.3-8.3,14c-6.2,1.7-12.6-1.7-14.3-7.7c-1.7-6-3.7-21.7,2.4-23.4c3-0.9,5.2,2.8,9.2,6.4
		C433.6,92.1,436.2,94.5,438,97.3z"/>
	<path class="st0" d="M471.4,112.3c-6.6-0.8-12.4-2.2-17.4,1.4l20.5,28.8c3.1-2.3,21.1-4.6,16-19.9
		C488.5,116.6,481.1,113.4,471.4,112.3z"/>
	<path class="st0" d="M447.1,129.6c1.4-6.4,2-12.4,6.9-15.9l20.5,28.8c-3.1,2.3-11.3,18.5-24,8.6C445.6,147.2,445,139.1,447.1,129.6
		z"/>
	<path class="st0" d="M469,96.2c2.4,4.9,8.2,6.8,13.1,4.5s7-8.2,4.7-13.1s-9.3-16.3-14.1-13.9c-2.4,1.2-3.3,5.8-3.8,10.4
		C467.9,91.3,467.8,93.7,469,96.2z"/>
	<path class="st0" d="M443.9,93.2c4.1,4.8,12.3,2.1,15.9-3.3c3.5-5.3,2.3-12.5-2.9-16s-19.4-10.5-23-5.2c-1.7,2.6,1.1,5.8,3.1,10.7
		C440.2,87.3,441.6,90.6,443.9,93.2z"/>
	<path class="st0" d="M432.9,122.3c3.9,3.8,3.9,10,0.2,13.8c-3.8,3.9-10,4.1-13.9,0.3s-12.5-13.9-8.8-17.8c1.9-1.9,6.6-1.3,11.1-0.3
		C428.5,119.7,430.8,120.4,432.9,122.3z"/>
	<path class="st0" d="M437.9,97.5c3.2,5.4-1.9,12.4-8.1,14s-12.6-1.7-14.3-7.7c-1.7-6-3.8-21.7,2.3-23.4c3-0.9,5.2,2.8,9.2,6.3
		C433.4,92.2,436.1,94.6,437.9,97.5z"/>
	<path class="st0" d="M471.4,112.2c-6.6-0.7-12.3-2.1-17.3,1.5l20.7,28.7c3.1-2.3,21.2-4.8,15.9-20
		C488.5,116.4,481.1,113.2,471.4,112.2z"/>
	<path class="st0" d="M447.2,129.7c1.4-6.4,1.9-12.4,6.9-15.9l20.7,28.7c-3.1,2.3-11.2,18.6-24,8.8
		C445.8,147.3,445.2,139.2,447.2,129.7z"/>
	<path class="st0" d="M469.1,96.3c2.4,4.9,8.1,6.9,13.2,4.6c4.9-2.4,7-8.2,4.7-13.1s-9.2-16.3-14-14c-2.5,1.1-3.3,5.8-4,10.4
		C468,91.4,467.9,93.8,469.1,96.3z"/>
	<path class="st0" d="M444,93.2c4.1,4.8,12.3,2.1,15.9-3.1c3.6-5.2,2.5-12.5-2.7-16.1c-5.2-3.5-19.3-10.6-22.9-5.3
		c-1.7,2.6,1.1,5.8,3,10.8C440.5,87.2,441.8,90.6,444,93.2z"/>
	<path class="st0" d="M432.8,122.2c3.9,3.8,3.9,10,0,13.9c-3.9,3.9-10.1,4-13.8,0.2c-3.8-3.8-12.4-14-8.6-17.9
		c1.9-1.9,6.6-1.3,11.1-0.3C428.5,119.6,430.7,120.3,432.8,122.2z"/>
	<path class="st0" d="M438,97.3c3.2,5.4-2,12.3-8.3,14c-6.2,1.7-12.6-1.7-14.3-7.7c-1.7-6-3.7-21.7,2.4-23.4c3-0.9,5.2,2.8,9.2,6.4
		C433.6,92.1,436.2,94.5,438,97.3z"/>
	<path class="st0" d="M471.4,112.3c-6.6-0.8-12.4-2.2-17.4,1.4l20.5,28.8c3.1-2.3,21.1-4.6,16-19.9
		C488.5,116.6,481.1,113.4,471.4,112.3z"/>
	<path class="st0" d="M447.1,129.6c1.4-6.4,2-12.4,6.9-15.9l20.5,28.8c-3.1,2.3-11.3,18.5-24,8.6C445.6,147.2,445,139.1,447.1,129.6
		z"/>
	<path class="st0" d="M469,96.2c2.4,4.9,8.2,6.8,13.1,4.5s7-8.2,4.7-13.1s-9.3-16.3-14.1-13.9c-2.4,1.2-3.3,5.8-3.8,10.4
		C467.9,91.3,467.8,93.7,469,96.2z"/>
	<path class="st0" d="M443.9,93.2c4.1,4.8,12.3,2.1,15.9-3.3c3.5-5.3,2.3-12.5-2.9-16s-19.4-10.5-23-5.2c-1.7,2.6,1.1,5.8,3.1,10.7
		C440.2,87.3,441.6,90.6,443.9,93.2z"/>
	<path class="st0" d="M432.9,122.3c3.9,3.8,3.9,10,0.2,13.8c-3.8,3.9-10,4.1-13.9,0.3s-12.5-13.9-8.8-17.8c1.9-1.9,6.6-1.3,11.1-0.3
		C428.5,119.7,430.8,120.4,432.9,122.3z"/>
	<path class="st0" d="M437.9,97.5c3.2,5.4-1.9,12.4-8.1,14s-12.6-1.7-14.3-7.7c-1.7-6-3.8-21.7,2.3-23.4c3-0.9,5.2,2.8,9.2,6.3
		C433.4,92.2,436.1,94.6,437.9,97.5z"/>
	<path class="st0" d="M471.4,112.2c-6.6-0.7-12.3-2.1-17.3,1.5l20.7,28.7c3.1-2.3,21.2-4.8,15.9-20
		C488.5,116.4,481.1,113.2,471.4,112.2z"/>
	<path class="st0" d="M447.2,129.7c1.4-6.4,1.9-12.4,6.9-15.9l20.7,28.7c-3.1,2.3-11.2,18.6-24,8.8
		C445.8,147.3,445.2,139.2,447.2,129.7z"/>
	<path class="st0" d="M469.1,96.3c2.4,4.9,8.1,6.9,13.2,4.6c4.9-2.4,7-8.2,4.7-13.1s-9.2-16.3-14-14c-2.5,1.1-3.3,5.8-4,10.4
		C468,91.4,467.9,93.8,469.1,96.3z"/>
	<path class="st0" d="M444,93.2c4.1,4.8,12.3,2.1,15.9-3.1c3.6-5.2,2.5-12.5-2.7-16.1c-5.2-3.5-19.3-10.6-22.9-5.3
		c-1.7,2.6,1.1,5.8,3,10.8C440.5,87.2,441.8,90.6,444,93.2z"/>
	<path class="st0" d="M432.8,122.2c3.9,3.8,3.9,10,0,13.9c-3.9,3.9-10.1,4-13.8,0.2c-3.8-3.8-12.4-14-8.6-17.9
		c1.9-1.9,6.6-1.3,11.1-0.3C428.5,119.6,430.7,120.3,432.8,122.2z"/>
	<path class="st0" d="M438,97.3c3.2,5.4-2,12.3-8.3,14c-6.2,1.7-12.6-1.7-14.3-7.7c-1.7-6-3.7-21.7,2.4-23.4c3-0.9,5.2,2.8,9.2,6.4
		C433.6,92.1,436.2,94.5,438,97.3z"/>
	<path class="st0" d="M471.4,112.3c-6.6-0.8-12.4-2.2-17.4,1.4l20.5,28.8c3.1-2.3,21.1-4.6,16-19.9
		C488.5,116.6,481.1,113.4,471.4,112.3z"/>
	<path class="st0" d="M447.1,129.6c1.4-6.4,2-12.4,6.9-15.9l20.5,28.8c-3.1,2.3-11.3,18.5-24,8.6C445.6,147.2,445,139.1,447.1,129.6
		z"/>
	<path class="st0" d="M469,96.2c2.4,4.9,8.2,6.8,13.1,4.5s7-8.2,4.7-13.1s-9.3-16.3-14.1-13.9c-2.4,1.2-3.3,5.8-3.8,10.4
		C467.9,91.3,467.8,93.7,469,96.2z"/>
	<path class="st0" d="M443.9,93.2c4.1,4.8,12.3,2.1,15.9-3.3c3.5-5.3,2.3-12.5-2.9-16s-19.4-10.5-23-5.2c-1.7,2.6,1.1,5.8,3.1,10.7
		C440.2,87.3,441.6,90.6,443.9,93.2z"/>
	<path class="st0" d="M432.9,122.3c3.9,3.8,3.9,10,0.2,13.8c-3.8,3.9-10,4.1-13.9,0.3s-12.5-13.9-8.8-17.8c1.9-1.9,6.6-1.3,11.1-0.3
		C428.5,119.7,430.8,120.4,432.9,122.3z"/>
	<path class="st0" d="M437.9,97.5c3.2,5.4-1.9,12.4-8.1,14s-12.6-1.7-14.3-7.7c-1.7-6-3.8-21.7,2.3-23.4c3-0.9,5.2,2.8,9.2,6.3
		C433.4,92.2,436.1,94.6,437.9,97.5z"/>
	<path class="st0" d="M471.4,112.2c-6.6-0.7-12.3-2.1-17.3,1.5l20.7,28.7c3.1-2.3,21.2-4.8,15.9-20
		C488.5,116.4,481.1,113.2,471.4,112.2z"/>
	<path class="st0" d="M447.2,129.7c1.4-6.4,1.9-12.4,6.9-15.9l20.7,28.7c-3.1,2.3-11.2,18.6-24,8.8
		C445.8,147.3,445.2,139.2,447.2,129.7z"/>
	<path class="st0" d="M469.1,96.3c2.4,4.9,8.1,6.9,13.2,4.6c4.9-2.4,7-8.2,4.7-13.1s-9.2-16.3-14-14c-2.5,1.1-3.3,5.8-4,10.4
		C468,91.4,467.9,93.8,469.1,96.3z"/>
	<path class="st0" d="M444,93.2c4.1,4.8,12.3,2.1,15.9-3.1c3.6-5.2,2.5-12.5-2.7-16.1c-5.2-3.5-19.3-10.6-22.9-5.3
		c-1.7,2.6,1.1,5.8,3,10.8C440.5,87.2,441.8,90.6,444,93.2z"/>
	<path class="st0" d="M432.8,122.2c3.9,3.8,3.9,10,0,13.9c-3.9,3.9-10.1,4-13.8,0.2c-3.8-3.8-12.4-14-8.6-17.9
		c1.9-1.9,6.6-1.3,11.1-0.3C428.5,119.6,430.7,120.3,432.8,122.2z"/>
	<path class="st0" d="M438,97.3c3.2,5.4-2,12.3-8.3,14c-6.2,1.7-12.6-1.7-14.3-7.7c-1.7-6-3.7-21.7,2.4-23.4c3-0.9,5.2,2.8,9.2,6.4
		C433.6,92.1,436.2,94.5,438,97.3z"/>
	<path class="st0" d="M471.4,112.3c-6.6-0.8-12.4-2.2-17.4,1.4l20.5,28.8c3.1-2.3,21.1-4.6,16-19.9
		C488.5,116.6,481.1,113.4,471.4,112.3z"/>
	<path class="st0" d="M447.1,129.6c1.4-6.4,2-12.4,6.9-15.9l20.5,28.8c-3.1,2.3-11.3,18.5-24,8.6C445.6,147.2,445,139.1,447.1,129.6
		z"/>
</g>
<g>
	<path class="st0" d="M594.3,157.8c-5.2,6.1-4.5,15.2,1.6,20.5c6.1,5.2,15.3,4.8,20.5-1.3c5.2-6.1,16.7-22.2,10.6-27.4
		c-3.1-2.5-9.9-1.1-16.4,1C600.4,153.4,597.1,154.7,594.3,157.8z"/>
	<path class="st0" d="M583.6,121.9c-4.1,8.4,4.4,18,13.7,19.7c9.3,1.7,18.3-4.2,20.1-13.3s2.9-32.5-6.3-34.3
		c-4.5-0.9-7.3,4.8-12.7,10.5C589.6,113.5,585.9,117.3,583.6,121.9z"/>
	<path class="st0" d="M537.6,124c-2.9,7.5-11.3,11.2-18.7,8.3c-7.5-2.9-11.4-11.2-8.6-18.7c2.9-7.5,11.6-25.2,19.1-22.3
		c3.7,1.5,5.7,8.2,6.9,14.9C538.6,116.5,539,120,537.6,124z"/>
	<path class="st0" d="M574.3,116.3c-5.4,7.5-17.9,4.7-23.8-2.8c-5.9-7.4-5-18.1,2.2-24c7.2-5.8,27.3-17.9,33.2-10.7
		c2.9,3.6-0.8,8.7-3.3,16.2C578.9,107.1,577.3,112.1,574.3,116.3z"/>
	<path class="st0" d="M573.9,170.5c-2.9-9.3-4.4-18-12.2-22.7l-26.9,45c4.9,2.9,18.9,26,36.6,9.9
		C578.2,196.2,578.2,184.3,573.9,170.5z"/>
	<path class="st0" d="M536,147.8c9.6-1.8,17.9-4.7,25.7,0l-26.9,45c-4.9-2.9-31.9-4.3-26-27.5C511.2,156.2,521.9,150.6,536,147.8z"
		/>
	<path class="st0" d="M594.2,158c-5.2,6.1-4.7,15.1,1.5,20.6c6.1,5.2,15.3,4.8,20.5-1.3c5.2-6.1,16.9-22.1,10.8-27.3
		c-3-2.7-9.9-1.1-16.5,0.7C600.3,153.6,597,154.9,594.2,158z"/>
	<path class="st0" d="M583.8,122c-4.1,8.4,4.4,18,13.6,19.9c9.2,1.8,18.4-3.9,20.3-13.2c1.7-9.1,3.2-32.6-6.2-34.2
		c-4.5-0.9-7.3,4.8-12.9,10.4C589.9,113.7,586,117.5,583.8,122z"/>
	<path class="st0" d="M537.7,123.8c-2.9,7.5-11.3,11.2-18.9,8.2c-7.6-3-11.3-11.4-8.3-18.7s11.8-25.1,19.3-22.2
		c3.7,1.5,5.7,8.2,6.9,14.9C538.7,116.4,539.1,119.8,537.7,123.8z"/>
	<path class="st0" d="M574.6,116.2c-5.4,7.5-17.8,4.5-23.9-3c-5.9-7.4-5-18.1,2.2-24c7.2-5.8,27.4-17.8,33.3-10.4
		c2.9,3.6-0.8,8.7-3.4,16.4C579.1,107.2,577.5,112.2,574.6,116.2z"/>
	<path class="st0" d="M573.8,170.6c-2.8-9.5-4.3-18.2-12.1-22.8l-27.2,44.8c4.9,2.9,18.6,26.1,36.5,10.1
		C577.9,196.3,578,184.4,573.8,170.6z"/>
	<path class="st0" d="M536.1,147.6c9.6-1.8,18.1-4.6,25.7,0l-27.2,44.8c-4.9-2.9-31.8-4.5-25.8-27.6
		C511.1,155.9,521.8,150.4,536.1,147.6z"/>
	<path class="st0" d="M594.3,157.8c-5.2,6.1-4.5,15.2,1.6,20.5c6.1,5.2,15.3,4.8,20.5-1.3c5.2-6.1,16.7-22.2,10.6-27.4
		c-3.1-2.5-9.9-1.1-16.4,1C600.4,153.4,597.1,154.7,594.3,157.8z"/>
	<path class="st0" d="M583.6,121.9c-4.1,8.4,4.4,18,13.7,19.7c9.3,1.7,18.3-4.2,20.1-13.3s2.9-32.5-6.3-34.3
		c-4.5-0.9-7.3,4.8-12.7,10.5C589.6,113.5,585.9,117.3,583.6,121.9z"/>
	<path class="st0" d="M537.6,124c-2.9,7.5-11.3,11.2-18.7,8.3c-7.5-2.9-11.4-11.2-8.6-18.7c2.9-7.5,11.6-25.2,19.1-22.3
		c3.7,1.5,5.7,8.2,6.9,14.9C538.6,116.5,539,120,537.6,124z"/>
	<path class="st0" d="M574.3,116.3c-5.4,7.5-17.9,4.7-23.8-2.8c-5.9-7.4-5-18.1,2.2-24c7.2-5.8,27.3-17.9,33.2-10.7
		c2.9,3.6-0.8,8.7-3.3,16.2C578.9,107.1,577.3,112.1,574.3,116.3z"/>
	<path class="st0" d="M573.9,170.5c-2.9-9.3-4.4-18-12.2-22.7l-26.9,45c4.9,2.9,18.9,26,36.6,9.9
		C578.2,196.2,578.2,184.3,573.9,170.5z"/>
	<path class="st0" d="M536,147.8c9.6-1.8,17.9-4.7,25.7,0l-26.9,45c-4.9-2.9-31.9-4.3-26-27.5C511.2,156.2,521.9,150.6,536,147.8z"
		/>
	<path class="st0" d="M594.2,158c-5.2,6.1-4.7,15.1,1.5,20.6c6.1,5.2,15.3,4.8,20.5-1.3c5.2-6.1,16.9-22.1,10.8-27.3
		c-3-2.7-9.9-1.1-16.5,0.7C600.3,153.6,597,154.9,594.2,158z"/>
	<path class="st0" d="M583.8,122c-4.1,8.4,4.4,18,13.6,19.9c9.2,1.8,18.4-3.9,20.3-13.2c1.7-9.1,3.2-32.6-6.2-34.2
		c-4.5-0.9-7.3,4.8-12.9,10.4C589.9,113.7,586,117.5,583.8,122z"/>
	<path class="st0" d="M537.7,123.8c-2.9,7.5-11.3,11.2-18.9,8.2c-7.6-3-11.3-11.4-8.3-18.7s11.8-25.1,19.3-22.2
		c3.7,1.5,5.7,8.2,6.9,14.9C538.7,116.4,539.1,119.8,537.7,123.8z"/>
	<path class="st0" d="M574.6,116.2c-5.4,7.5-17.8,4.5-23.9-3c-5.9-7.4-5-18.1,2.2-24c7.2-5.8,27.4-17.8,33.3-10.4
		c2.9,3.6-0.8,8.7-3.4,16.4C579.1,107.2,577.5,112.2,574.6,116.2z"/>
	<path class="st0" d="M573.8,170.6c-2.8-9.5-4.3-18.2-12.1-22.8l-27.2,44.8c4.9,2.9,18.6,26.1,36.5,10.1
		C577.9,196.3,578,184.4,573.8,170.6z"/>
	<path class="st0" d="M536.1,147.6c9.6-1.8,18.1-4.6,25.7,0l-27.2,44.8c-4.9-2.9-31.8-4.5-25.8-27.6
		C511.1,155.9,521.8,150.4,536.1,147.6z"/>
	<path class="st0" d="M594.3,157.8c-5.2,6.1-4.5,15.2,1.6,20.5c6.1,5.2,15.3,4.8,20.5-1.3c5.2-6.1,16.7-22.2,10.6-27.4
		c-3.1-2.5-9.9-1.1-16.4,1C600.4,153.4,597.1,154.7,594.3,157.8z"/>
	<path class="st0" d="M583.6,121.9c-4.1,8.4,4.4,18,13.7,19.7c9.3,1.7,18.3-4.2,20.1-13.3s2.9-32.5-6.3-34.3
		c-4.5-0.9-7.3,4.8-12.7,10.5C589.6,113.5,585.9,117.3,583.6,121.9z"/>
	<path class="st0" d="M537.6,124c-2.9,7.5-11.3,11.2-18.7,8.3c-7.5-2.9-11.4-11.2-8.6-18.7c2.9-7.5,11.6-25.2,19.1-22.3
		c3.7,1.5,5.7,8.2,6.9,14.9C538.6,116.5,539,120,537.6,124z"/>
	<path class="st0" d="M574.3,116.3c-5.4,7.5-17.9,4.7-23.8-2.8c-5.9-7.4-5-18.1,2.2-24c7.2-5.8,27.3-17.9,33.2-10.7
		c2.9,3.6-0.8,8.7-3.3,16.2C578.9,107.1,577.3,112.1,574.3,116.3z"/>
	<path class="st0" d="M573.9,170.5c-2.9-9.3-4.4-18-12.2-22.7l-26.9,45c4.9,2.9,18.9,26,36.6,9.9
		C578.2,196.2,578.2,184.3,573.9,170.5z"/>
	<path class="st0" d="M536,147.8c9.6-1.8,17.9-4.7,25.7,0l-26.9,45c-4.9-2.9-31.9-4.3-26-27.5C511.2,156.2,521.9,150.6,536,147.8z"
		/>
	<path class="st0" d="M594.2,158c-5.2,6.1-4.7,15.1,1.5,20.6c6.1,5.2,15.3,4.8,20.5-1.3c5.2-6.1,16.9-22.1,10.8-27.3
		c-3-2.7-9.9-1.1-16.5,0.7C600.3,153.6,597,154.9,594.2,158z"/>
	<path class="st0" d="M583.8,122c-4.1,8.4,4.4,18,13.6,19.9c9.2,1.8,18.4-3.9,20.3-13.2c1.7-9.1,3.2-32.6-6.2-34.2
		c-4.5-0.9-7.3,4.8-12.9,10.4C589.9,113.7,586,117.5,583.8,122z"/>
	<path class="st0" d="M537.7,123.8c-2.9,7.5-11.3,11.2-18.9,8.2c-7.6-3-11.3-11.4-8.3-18.7s11.8-25.1,19.3-22.2
		c3.7,1.5,5.7,8.2,6.9,14.9C538.7,116.4,539.1,119.8,537.7,123.8z"/>
	<path class="st0" d="M574.6,116.2c-5.4,7.5-17.8,4.5-23.9-3c-5.9-7.4-5-18.1,2.2-24c7.2-5.8,27.4-17.8,33.3-10.4
		c2.9,3.6-0.8,8.7-3.4,16.4C579.1,107.2,577.5,112.2,574.6,116.2z"/>
	<path class="st0" d="M573.8,170.6c-2.8-9.5-4.3-18.2-12.1-22.8l-27.2,44.8c4.9,2.9,18.6,26.1,36.5,10.1
		C577.9,196.3,578,184.4,573.8,170.6z"/>
	<path class="st0" d="M536.1,147.6c9.6-1.8,18.1-4.6,25.7,0l-27.2,44.8c-4.9-2.9-31.8-4.5-25.8-27.6
		C511.1,155.9,521.8,150.4,536.1,147.6z"/>
	<path class="st0" d="M594.3,157.8c-5.2,6.1-4.5,15.2,1.6,20.5c6.1,5.2,15.3,4.8,20.5-1.3c5.2-6.1,16.7-22.2,10.6-27.4
		c-3.1-2.5-9.9-1.1-16.4,1C600.4,153.4,597.1,154.7,594.3,157.8z"/>
	<path class="st0" d="M583.6,121.9c-4.1,8.4,4.4,18,13.7,19.7c9.3,1.7,18.3-4.2,20.1-13.3s2.9-32.5-6.3-34.3
		c-4.5-0.9-7.3,4.8-12.7,10.5C589.6,113.5,585.9,117.3,583.6,121.9z"/>
	<path class="st0" d="M537.6,124c-2.9,7.5-11.3,11.2-18.7,8.3c-7.5-2.9-11.4-11.2-8.6-18.7c2.9-7.5,11.6-25.2,19.1-22.3
		c3.7,1.5,5.7,8.2,6.9,14.9C538.6,116.5,539,120,537.6,124z"/>
	<path class="st0" d="M574.3,116.3c-5.4,7.5-17.9,4.7-23.8-2.8c-5.9-7.4-5-18.1,2.2-24c7.2-5.8,27.3-17.9,33.2-10.7
		c2.9,3.6-0.8,8.7-3.3,16.2C578.9,107.1,577.3,112.1,574.3,116.3z"/>
	<path class="st0" d="M573.9,170.5c-2.9-9.3-4.4-18-12.2-22.7l-26.9,45c4.9,2.9,18.9,26,36.6,9.9
		C578.2,196.2,578.2,184.3,573.9,170.5z"/>
	<path class="st0" d="M536,147.8c9.6-1.8,17.9-4.7,25.7,0l-26.9,45c-4.9-2.9-31.9-4.3-26-27.5C511.2,156.2,521.9,150.6,536,147.8z"
		/>
	<path class="st0" d="M594.2,158c-5.2,6.1-4.7,15.1,1.5,20.6c6.1,5.2,15.3,4.8,20.5-1.3c5.2-6.1,16.9-22.1,10.8-27.3
		c-3-2.7-9.9-1.1-16.5,0.7C600.3,153.6,597,154.9,594.2,158z"/>
	<path class="st0" d="M583.8,122c-4.1,8.4,4.4,18,13.6,19.9c9.2,1.8,18.4-3.9,20.3-13.2c1.7-9.1,3.2-32.6-6.2-34.2
		c-4.5-0.9-7.3,4.8-12.9,10.4C589.9,113.7,586,117.5,583.8,122z"/>
	<path class="st0" d="M537.7,123.8c-2.9,7.5-11.3,11.2-18.9,8.2c-7.6-3-11.3-11.4-8.3-18.7s11.8-25.1,19.3-22.2
		c3.7,1.5,5.7,8.2,6.9,14.9C538.7,116.4,539.1,119.8,537.7,123.8z"/>
	<path class="st0" d="M574.6,116.2c-5.4,7.5-17.8,4.5-23.9-3c-5.9-7.4-5-18.1,2.2-24c7.2-5.8,27.4-17.8,33.3-10.4
		c2.9,3.6-0.8,8.7-3.4,16.4C579.1,107.2,577.5,112.2,574.6,116.2z"/>
	<path class="st0" d="M573.8,170.6c-2.8-9.5-4.3-18.2-12.1-22.8l-27.2,44.8c4.9,2.9,18.6,26.1,36.5,10.1
		C577.9,196.3,578,184.4,573.8,170.6z"/>
	<path class="st0" d="M536.1,147.6c9.6-1.8,18.1-4.6,25.7,0l-27.2,44.8c-4.9-2.9-31.8-4.5-25.8-27.6
		C511.1,155.9,521.8,150.4,536.1,147.6z"/>
</g>
</svg>
