<?xml version="1.0" encoding="utf-8"?>
<!-- Generator: Adobe Illustrator 19.0.0, SVG Export Plug-In . SVG Version: 6.00 Build 0)  -->
<svg version="1.1" id="Layer_1" xmlns="http://www.w3.org/2000/svg" xmlns:xlink="http://www.w3.org/1999/xlink" x="0px" y="0px"
	 viewBox="0 0 100 100" style="enable-background:new 0 0 100 100;" xml:space="preserve">
<style type="text/css">
	.st0{fill:#231F20;}
	.st1{fill:#E0E0E0;}
</style>
<g>
	<path class="st0" d="M499.8,200.5h-4.3v-1.9c0-0.9,0.6-1.1,1-1.1s3,0,3,0v-3.9l-4.3,0c-3.9,0-4.7,2.9-4.7,4.8v2.1h-3v4h3
		c0,5.2,0,12,0,12h5c0,0,0-6.9,0-12h3.9L499.8,200.5z"/>
</g>
<g>
	<path class="st0" d="M499.8,200.5h-4.3v-1.9c0-0.9,0.6-1.1,1-1.1s3,0,3,0v-3.9l-4.3,0c-3.9,0-4.7,2.9-4.7,4.8v2.1h-3v4h3
		c0,5.2,0,12,0,12h5c0,0,0-6.9,0-12h3.9L499.8,200.5z"/>
</g>
<g id="XMLID_13_">
	<path id="XMLID_14_" class="st1" d="M50,30.7c-10.6,0-19.3,8.6-19.3,19.3c0,10.6,8.6,19.3,19.3,19.3S69.3,60.6,69.3,50
		C69.3,39.4,60.6,30.7,50,30.7z"/>
</g>
<g id="XMLID_11_">
	<path id="XMLID_12_" class="st1" d="M24.3,14.8c-1.1,0.2-2.2,0.5-3.2,1v23h3.2V14.8z"/>
</g>
<path id="XMLID_10_" class="st1" d="M30.7,38.5V14.7h-3.2v24.1h3C30.6,38.7,30.7,38.6,30.7,38.5z"/>
<g id="XMLID_6_">
	<path id="XMLID_7_" class="st1" d="M85.3,72V38.8V28v-2.1c0-6.2-5-11.2-11.2-11.2H33.9v19.7c4.1-4.2,9.8-6.8,16.1-6.8
		c8.3,0,15.5,4.5,19.4,11.2h12.7V72c0,5.6-4.5,10.1-10.1,10.1H28c-5.6,0-10.1-4.5-10.1-10.1V38.8V28v-9.9c-2,2-3.2,4.8-3.2,7.8V28
		v10.8V72c0,7.4,6,13.3,13.3,13.3h44C79.3,85.3,85.3,79.3,85.3,72z M80.5,33.9h-9.6c-0.9,0-1.6-0.7-1.6-1.6v-9.6
		c0-0.9,0.7-1.6,1.6-1.6h9.6c0.9,0,1.6,0.7,1.6,1.6V28v4.3C82.1,33.2,81.4,33.9,80.5,33.9z"/>
</g>
</svg>
