<?xml version="1.0" encoding="utf-8"?>
<!-- Generator: Adobe Illustrator 20.1.0, SVG Export Plug-In . SVG Version: 6.00 Build 0)  -->
<svg version="1.1" id="Layer_1" xmlns="http://www.w3.org/2000/svg" xmlns:xlink="http://www.w3.org/1999/xlink" x="0px" y="0px"
	 viewBox="0 0 192.5 190.7" style="enable-background:new 0 0 192.5 190.7;" xml:space="preserve">
<style type="text/css">
	.st0{fill:#E8E8E8;}
</style>
<path class="st0" d="M145.3,32.6c-0.7,4,2,7.8,6,8.5c4,0.7,7.9-1.9,8.6-5.9s1.5-14-2.5-14.7c-2-0.3-4.6,2.1-6.9,4.7
	C146.8,29.1,145.7,30.5,145.3,32.6z"/>
<path class="st0" d="M131.3,19.7c0.4,4.7,6.6,6.7,11.1,5c4.5-1.7,6.9-6.6,5.3-11S140.6-1.2,136,0.4c-2.2,0.8-1.9,4-2.8,7.9
	C131.7,14.5,131.1,17.2,131.3,19.7z"/>
<path class="st0" d="M111.8,32.6c0.7,4-2,7.8-6,8.5s-7.9-1.9-8.6-5.9c-0.7-4-1.5-14,2.5-14.7c2-0.3,4.6,2.1,6.9,4.7
	C110.3,29.1,111.4,30.5,111.8,32.6z"/>
<path class="st0" d="M125.8,19.7c-0.4,4.7-6.6,6.7-11.1,5c-4.5-1.7-6.9-6.6-5.3-11S116.5-1.2,121,0.4c2.2,0.8,1.9,4,2.8,7.9
	C125.3,14.5,126,17.2,125.8,19.7z"/>
<path class="st0" d="M139.7,43.4c-3.7-3.3-6.6-6.7-11.2-6.7l0,26.6c2.9,0,15,6.4,18.5-5.2C148.3,53.5,145.1,48.3,139.7,43.4z"/>
<path class="st0" d="M117.3,43.4c3.7-3.3,6.6-6.7,11.2-6.7l0,26.6c-2.9,0-15,6.4-18.5-5.2C108.7,53.5,111.9,48.3,117.3,43.4z"/>
<path class="st0" d="M145.3,32.7c-0.7,4,1.9,7.8,6,8.6c4,0.7,7.9-1.9,8.6-5.9c0.7-4,1.6-14-2.4-14.7c-2-0.4-4.6,2.1-7,4.6
	C146.8,29.2,145.7,30.6,145.3,32.7z"/>
<path class="st0" d="M131.4,19.7c0.4,4.7,6.6,6.7,11.1,5.1c4.6-1.6,7-6.5,5.4-11c-1.6-4.4-7.1-15-11.6-13.3c-2.2,0.8-1.9,4-2.9,7.9
	C131.8,14.6,131.2,17.2,131.4,19.7z"/>
<path class="st0" d="M111.8,32.5c0.7,4-2,7.8-6.1,8.5c-4,0.7-7.9-2-8.5-6s-1.4-14,2.6-14.7c2-0.3,4.6,2.1,6.9,4.7
	C110.3,29,111.4,30.4,111.8,32.5z"/>
<path class="st0" d="M125.9,19.7c-0.4,4.7-6.6,6.6-11.2,4.9c-4.5-1.7-6.9-6.6-5.3-11s7.3-14.9,11.8-13.2c2.2,0.8,1.9,4,2.8,8
	C125.4,14.5,126.1,17.2,125.9,19.7z"/>
<path class="st0" d="M139.7,43.5c-3.7-3.4-6.6-6.8-11.2-6.8l-0.2,26.6c2.9,0,14.9,6.5,18.5-5.1C148.2,53.6,145.1,48.4,139.7,43.5z"
	/>
<path class="st0" d="M117.3,43.4c3.7-3.3,6.7-6.7,11.2-6.7l-0.2,26.6c-2.9,0-15,6.3-18.4-5.3C108.6,53.4,111.8,48.2,117.3,43.4z"/>
<path class="st0" d="M145.3,32.6c-0.7,4,2,7.8,6,8.5c4,0.7,7.9-1.9,8.6-5.9s1.5-14-2.5-14.7c-2-0.3-4.6,2.1-6.9,4.7
	C146.8,29.1,145.7,30.5,145.3,32.6z"/>
<path class="st0" d="M131.3,19.7c0.4,4.7,6.6,6.7,11.1,5c4.5-1.7,6.9-6.6,5.3-11S140.6-1.2,136,0.4c-2.2,0.8-1.9,4-2.8,7.9
	C131.7,14.5,131.1,17.2,131.3,19.7z"/>
<path class="st0" d="M111.8,32.6c0.7,4-2,7.8-6,8.5s-7.9-1.9-8.6-5.9c-0.7-4-1.5-14,2.5-14.7c2-0.3,4.6,2.1,6.9,4.7
	C110.3,29.1,111.4,30.5,111.8,32.6z"/>
<path class="st0" d="M125.8,19.7c-0.4,4.7-6.6,6.7-11.1,5c-4.5-1.7-6.9-6.6-5.3-11S116.5-1.2,121,0.4c2.2,0.8,1.9,4,2.8,7.9
	C125.3,14.5,126,17.2,125.8,19.7z"/>
<path class="st0" d="M139.7,43.4c-3.7-3.3-6.6-6.7-11.2-6.7l0,26.6c2.9,0,15,6.4,18.5-5.2C148.3,53.5,145.1,48.3,139.7,43.4z"/>
<path class="st0" d="M117.3,43.4c3.7-3.3,6.6-6.7,11.2-6.7l0,26.6c-2.9,0-15,6.4-18.5-5.2C108.7,53.5,111.9,48.3,117.3,43.4z"/>
<path class="st0" d="M145.3,32.7c-0.7,4,1.9,7.8,6,8.6c4,0.7,7.9-1.9,8.6-5.9c0.7-4,1.6-14-2.4-14.7c-2-0.4-4.6,2.1-7,4.6
	C146.8,29.2,145.7,30.6,145.3,32.7z"/>
<path class="st0" d="M131.4,19.7c0.4,4.7,6.6,6.7,11.1,5.1c4.6-1.6,7-6.5,5.4-11c-1.6-4.4-7.1-15-11.6-13.3c-2.2,0.8-1.9,4-2.9,7.9
	C131.8,14.6,131.2,17.2,131.4,19.7z"/>
<path class="st0" d="M111.8,32.5c0.7,4-2,7.8-6.1,8.5c-4,0.7-7.9-2-8.5-6s-1.4-14,2.6-14.7c2-0.3,4.6,2.1,6.9,4.7
	C110.3,29,111.4,30.4,111.8,32.5z"/>
<path class="st0" d="M125.9,19.7c-0.4,4.7-6.6,6.6-11.2,4.9c-4.5-1.7-6.9-6.6-5.3-11s7.3-14.9,11.8-13.2c2.2,0.8,1.9,4,2.8,8
	C125.4,14.5,126.1,17.2,125.9,19.7z"/>
<path class="st0" d="M139.7,43.5c-3.7-3.4-6.6-6.8-11.2-6.8l-0.2,26.6c2.9,0,14.9,6.5,18.5-5.1C148.2,53.6,145.1,48.4,139.7,43.5z"
	/>
<path class="st0" d="M117.3,43.4c3.7-3.3,6.7-6.7,11.2-6.7l-0.2,26.6c-2.9,0-15,6.3-18.4-5.3C108.6,53.4,111.8,48.2,117.3,43.4z"/>
<path class="st0" d="M145.1,223.3c-0.7,4,2,7.8,6,8.5c4,0.7,7.9-1.9,8.6-5.9s1.5-14-2.5-14.7c-2-0.3-4.6,2.1-6.9,4.7
	C146.6,219.8,145.4,221.2,145.1,223.3z"/>
<path class="st0" d="M131,210.4c0.4,4.7,6.6,6.7,11.1,5c4.5-1.7,6.9-6.6,5.3-11c-1.6-4.4-7.2-14.9-11.7-13.3c-2.2,0.8-1.9,4-2.8,7.9
	C131.5,205.2,130.8,207.8,131,210.4z"/>
<path class="st0" d="M111.5,223.3c0.7,4-2,7.8-6,8.5c-4,0.7-7.9-1.9-8.6-5.9c-0.7-4-1.5-14,2.5-14.7c2-0.3,4.6,2.1,6.9,4.7
	C110,219.8,111.2,221.2,111.5,223.3z"/>
<path class="st0" d="M125.5,210.4c-0.4,4.7-6.6,6.7-11.1,5c-4.5-1.7-6.9-6.6-5.3-11c1.6-4.4,7.2-14.9,11.7-13.3
	c2.2,0.8,1.9,4,2.8,7.9C125.1,205.2,125.8,207.8,125.5,210.4z"/>
<path class="st0" d="M139.5,234.1c-3.7-3.3-6.6-6.7-11.2-6.7l0,26.6c2.9,0,15,6.4,18.5-5.2C148.1,244.2,144.9,239,139.5,234.1z"/>
<path class="st0" d="M117.1,234.1c3.7-3.3,6.6-6.7,11.2-6.7l0,26.6c-2.9,0-15,6.4-18.5-5.2C108.5,244.2,111.7,239,117.1,234.1z"/>
<path class="st0" d="M145.1,223.4c-0.7,4,1.9,7.8,6,8.6c4,0.7,7.9-1.9,8.6-5.9c0.7-4,1.6-14-2.4-14.7c-2-0.4-4.6,2.1-7,4.6
	C146.6,219.9,145.4,221.3,145.1,223.4z"/>
<path class="st0" d="M131.1,210.4c0.4,4.7,6.6,6.7,11.1,5.1c4.6-1.6,7-6.5,5.4-11c-1.6-4.4-7.1-15-11.6-13.3c-2.2,0.8-1.9,4-2.9,7.9
	C131.6,205.2,130.9,207.9,131.1,210.4z"/>
<path class="st0" d="M111.5,223.2c0.7,4-2,7.8-6.1,8.5c-4,0.7-7.9-2-8.5-6s-1.4-14,2.6-14.7c2-0.3,4.6,2.1,6.9,4.7
	C110.1,219.7,111.2,221.1,111.5,223.2z"/>
<path class="st0" d="M125.6,210.3c-0.4,4.7-6.6,6.6-11.2,4.9s-6.9-6.6-5.3-11c1.6-4.4,7.3-14.9,11.8-13.2c2.2,0.8,1.9,4,2.8,8
	C125.2,205.2,125.9,207.8,125.6,210.3z"/>
<path class="st0" d="M139.4,234.2c-3.7-3.4-6.6-6.8-11.2-6.8l-0.2,26.6c2.9,0,14.9,6.5,18.5-5.1C148,244.3,144.8,239.1,139.4,234.2z
	"/>
<path class="st0" d="M117,234c3.7-3.3,6.7-6.7,11.2-6.7l-0.2,26.6c-2.9,0-15,6.3-18.4-5.3C108.4,244.1,111.6,238.9,117,234z"/>
<path class="st0" d="M145.1,223.3c-0.7,4,2,7.8,6,8.5c4,0.7,7.9-1.9,8.6-5.9s1.5-14-2.5-14.7c-2-0.3-4.6,2.1-6.9,4.7
	C146.6,219.8,145.4,221.2,145.1,223.3z"/>
<path class="st0" d="M131,210.4c0.4,4.7,6.6,6.7,11.1,5c4.5-1.7,6.9-6.6,5.3-11c-1.6-4.4-7.2-14.9-11.7-13.3c-2.2,0.8-1.9,4-2.8,7.9
	C131.5,205.2,130.8,207.8,131,210.4z"/>
<path class="st0" d="M111.5,223.3c0.7,4-2,7.8-6,8.5c-4,0.7-7.9-1.9-8.6-5.9c-0.7-4-1.5-14,2.5-14.7c2-0.3,4.6,2.1,6.9,4.7
	C110,219.8,111.2,221.2,111.5,223.3z"/>
<path class="st0" d="M125.5,210.4c-0.4,4.7-6.6,6.7-11.1,5c-4.5-1.7-6.9-6.6-5.3-11c1.6-4.4,7.2-14.9,11.7-13.3
	c2.2,0.8,1.9,4,2.8,7.9C125.1,205.2,125.8,207.8,125.5,210.4z"/>
<path class="st0" d="M139.5,234.1c-3.7-3.3-6.6-6.7-11.2-6.7l0,26.6c2.9,0,15,6.4,18.5-5.2C148.1,244.2,144.9,239,139.5,234.1z"/>
<path class="st0" d="M117.1,234.1c3.7-3.3,6.6-6.7,11.2-6.7l0,26.6c-2.9,0-15,6.4-18.5-5.2C108.5,244.2,111.7,239,117.1,234.1z"/>
<path class="st0" d="M145.1,223.4c-0.7,4,1.9,7.8,6,8.6c4,0.7,7.9-1.9,8.6-5.9c0.7-4,1.6-14-2.4-14.7c-2-0.4-4.6,2.1-7,4.6
	C146.6,219.9,145.4,221.3,145.1,223.4z"/>
<path class="st0" d="M131.1,210.4c0.4,4.7,6.6,6.7,11.1,5.1c4.6-1.6,7-6.5,5.4-11c-1.6-4.4-7.1-15-11.6-13.3c-2.2,0.8-1.9,4-2.9,7.9
	C131.6,205.2,130.9,207.9,131.1,210.4z"/>
<path class="st0" d="M111.5,223.2c0.7,4-2,7.8-6.1,8.5c-4,0.7-7.9-2-8.5-6s-1.4-14,2.6-14.7c2-0.3,4.6,2.1,6.9,4.7
	C110.1,219.7,111.2,221.1,111.5,223.2z"/>
<path class="st0" d="M125.6,210.3c-0.4,4.7-6.6,6.6-11.2,4.9s-6.9-6.6-5.3-11c1.6-4.4,7.3-14.9,11.8-13.2c2.2,0.8,1.9,4,2.8,8
	C125.2,205.2,125.9,207.8,125.6,210.3z"/>
<path class="st0" d="M139.4,234.2c-3.7-3.4-6.6-6.8-11.2-6.8l-0.2,26.6c2.9,0,14.9,6.5,18.5-5.1C148,244.3,144.8,239.1,139.4,234.2z
	"/>
<path class="st0" d="M117,234c3.7-3.3,6.7-6.7,11.2-6.7l-0.2,26.6c-2.9,0-15,6.3-18.4-5.3C108.4,244.1,111.6,238.9,117,234z"/>
<path class="st0" d="M48.7,128.3c-0.7,4,2,7.8,6,8.5c4,0.7,7.9-1.9,8.6-5.9c0.7-4,1.5-14-2.5-14.7c-2-0.3-4.6,2.1-6.9,4.7
	C50.2,124.8,49.1,126.2,48.7,128.3z"/>
<path class="st0" d="M34.7,115.4c0.4,4.7,6.6,6.7,11.1,5c4.5-1.7,6.9-6.6,5.3-11c-1.6-4.4-7.2-14.9-11.7-13.3
	c-2.2,0.8-1.9,4-2.8,7.9C35.1,110.2,34.5,112.8,34.7,115.4z"/>
<path class="st0" d="M15.2,128.3c0.7,4-2,7.8-6,8.5c-4,0.7-7.9-1.9-8.6-5.9c-0.7-4-1.5-14,2.5-14.7c2-0.3,4.6,2.1,6.9,4.7
	C13.7,124.8,14.8,126.2,15.2,128.3z"/>
<path class="st0" d="M29.2,115.4c-0.4,4.7-6.6,6.7-11.1,5c-4.5-1.7-6.9-6.6-5.3-11s7.2-14.9,11.7-13.3c2.2,0.8,1.9,4,2.8,7.9
	C28.8,110.2,29.4,112.8,29.2,115.4z"/>
<path class="st0" d="M43.1,139.1c-3.7-3.3-6.6-6.7-11.2-6.7l0,26.6c2.9,0,15,6.4,18.5-5.2C51.7,149.2,48.6,144,43.1,139.1z"/>
<path class="st0" d="M20.7,139.1c3.7-3.3,6.6-6.7,11.2-6.7l0,26.6c-2.9,0-15,6.4-18.5-5.2C12.1,149.2,15.3,144,20.7,139.1z"/>
<path class="st0" d="M48.7,128.4c-0.7,4,1.9,7.8,6,8.6c4,0.7,7.9-1.9,8.6-5.9c0.7-4,1.6-14-2.4-14.7c-2-0.4-4.6,2.1-7,4.6
	C50.2,124.9,49.1,126.3,48.7,128.4z"/>
<path class="st0" d="M34.8,115.4c0.4,4.7,6.6,6.7,11.1,5.1s7-6.5,5.4-11c-1.6-4.4-7.1-15-11.6-13.3c-2.2,0.8-1.9,4-2.9,7.9
	C35.3,110.2,34.6,112.9,34.8,115.4z"/>
<path class="st0" d="M15.2,128.2c0.7,4-2,7.8-6.1,8.5s-7.9-2-8.5-6s-1.4-14,2.6-14.7c2-0.3,4.6,2.1,6.9,4.7
	C13.7,124.7,14.8,126.1,15.2,128.2z"/>
<path class="st0" d="M29.3,115.3c-0.4,4.7-6.6,6.6-11.2,4.9c-4.5-1.7-6.9-6.6-5.3-11s7.3-14.9,11.8-13.2c2.2,0.8,1.9,4,2.8,8
	C28.9,110.2,29.5,112.8,29.3,115.3z"/>
<path class="st0" d="M43.1,139.2c-3.7-3.4-6.6-6.8-11.2-6.8l-0.2,26.6c2.9,0,14.9,6.5,18.5-5.1C51.6,149.3,48.5,144.1,43.1,139.2z"
	/>
<path class="st0" d="M20.7,139c3.7-3.3,6.7-6.7,11.2-6.7l-0.2,26.6c-2.9,0-15,6.3-18.4-5.3C12,149.1,15.2,143.9,20.7,139z"/>
<path class="st0" d="M48.7,128.3c-0.7,4,2,7.8,6,8.5c4,0.7,7.9-1.9,8.6-5.9c0.7-4,1.5-14-2.5-14.7c-2-0.3-4.6,2.1-6.9,4.7
	C50.2,124.8,49.1,126.2,48.7,128.3z"/>
<path class="st0" d="M34.7,115.4c0.4,4.7,6.6,6.7,11.1,5c4.5-1.7,6.9-6.6,5.3-11c-1.6-4.4-7.2-14.9-11.7-13.3
	c-2.2,0.8-1.9,4-2.8,7.9C35.1,110.2,34.5,112.8,34.7,115.4z"/>
<path class="st0" d="M15.2,128.3c0.7,4-2,7.8-6,8.5c-4,0.7-7.9-1.9-8.6-5.9c-0.7-4-1.5-14,2.5-14.7c2-0.3,4.6,2.1,6.9,4.7
	C13.7,124.8,14.8,126.2,15.2,128.3z"/>
<path class="st0" d="M29.2,115.4c-0.4,4.7-6.6,6.7-11.1,5c-4.5-1.7-6.9-6.6-5.3-11s7.2-14.9,11.7-13.3c2.2,0.8,1.9,4,2.8,7.9
	C28.8,110.2,29.4,112.8,29.2,115.4z"/>
<path class="st0" d="M43.1,139.1c-3.7-3.3-6.6-6.7-11.2-6.7l0,26.6c2.9,0,15,6.4,18.5-5.2C51.7,149.2,48.6,144,43.1,139.1z"/>
<path class="st0" d="M20.7,139.1c3.7-3.3,6.6-6.7,11.2-6.7l0,26.6c-2.9,0-15,6.4-18.5-5.2C12.1,149.2,15.3,144,20.7,139.1z"/>
<path class="st0" d="M48.7,128.4c-0.7,4,1.9,7.8,6,8.6c4,0.7,7.9-1.9,8.6-5.9c0.7-4,1.6-14-2.4-14.7c-2-0.4-4.6,2.1-7,4.6
	C50.2,124.9,49.1,126.3,48.7,128.4z"/>
<path class="st0" d="M34.8,115.4c0.4,4.7,6.6,6.7,11.1,5.1s7-6.5,5.4-11c-1.6-4.4-7.1-15-11.6-13.3c-2.2,0.8-1.9,4-2.9,7.9
	C35.3,110.2,34.6,112.9,34.8,115.4z"/>
<path class="st0" d="M15.2,128.2c0.7,4-2,7.8-6.1,8.5s-7.9-2-8.5-6s-1.4-14,2.6-14.7c2-0.3,4.6,2.1,6.9,4.7
	C13.7,124.7,14.8,126.1,15.2,128.2z"/>
<path class="st0" d="M29.3,115.3c-0.4,4.7-6.6,6.6-11.2,4.9c-4.5-1.7-6.9-6.6-5.3-11s7.3-14.9,11.8-13.2c2.2,0.8,1.9,4,2.8,8
	C28.9,110.2,29.5,112.8,29.3,115.3z"/>
<path class="st0" d="M43.1,139.2c-3.7-3.4-6.6-6.8-11.2-6.8l-0.2,26.6c2.9,0,14.9,6.5,18.5-5.1C51.6,149.3,48.5,144.1,43.1,139.2z"
	/>
<path class="st0" d="M20.7,139c3.7-3.3,6.7-6.7,11.2-6.7l-0.2,26.6c-2.9,0-15,6.3-18.4-5.3C12,149.1,15.2,143.9,20.7,139z"/>
<path class="st0" d="M48.7,128.3c-0.7,4,2,7.8,6,8.5c4,0.7,7.9-1.9,8.6-5.9c0.7-4,1.5-14-2.5-14.7c-2-0.3-4.6,2.1-6.9,4.7
	C50.2,124.8,49.1,126.2,48.7,128.3z"/>
<path class="st0" d="M34.7,115.4c0.4,4.7,6.6,6.7,11.1,5c4.5-1.7,6.9-6.6,5.3-11c-1.6-4.4-7.2-14.9-11.7-13.3
	c-2.2,0.8-1.9,4-2.8,7.9C35.1,110.2,34.5,112.8,34.7,115.4z"/>
<path class="st0" d="M15.2,128.3c0.7,4-2,7.8-6,8.5c-4,0.7-7.9-1.9-8.6-5.9c-0.7-4-1.5-14,2.5-14.7c2-0.3,4.6,2.1,6.9,4.7
	C13.7,124.8,14.8,126.2,15.2,128.3z"/>
<path class="st0" d="M29.2,115.4c-0.4,4.7-6.6,6.7-11.1,5c-4.5-1.7-6.9-6.6-5.3-11s7.2-14.9,11.7-13.3c2.2,0.8,1.9,4,2.8,7.9
	C28.8,110.2,29.4,112.8,29.2,115.4z"/>
<path class="st0" d="M43.1,139.1c-3.7-3.3-6.6-6.7-11.2-6.7l0,26.6c2.9,0,15,6.4,18.5-5.2C51.7,149.2,48.6,144,43.1,139.1z"/>
<path class="st0" d="M20.7,139.1c3.7-3.3,6.6-6.7,11.2-6.7l0,26.6c-2.9,0-15,6.4-18.5-5.2C12.1,149.2,15.3,144,20.7,139.1z"/>
<path class="st0" d="M48.7,128.4c-0.7,4,1.9,7.8,6,8.6c4,0.7,7.9-1.9,8.6-5.9c0.7-4,1.6-14-2.4-14.7c-2-0.4-4.6,2.1-7,4.6
	C50.2,124.9,49.1,126.3,48.7,128.4z"/>
<path class="st0" d="M34.8,115.4c0.4,4.7,6.6,6.7,11.1,5.1s7-6.5,5.4-11c-1.6-4.4-7.1-15-11.6-13.3c-2.2,0.8-1.9,4-2.9,7.9
	C35.3,110.2,34.6,112.9,34.8,115.4z"/>
<path class="st0" d="M15.2,128.2c0.7,4-2,7.8-6.1,8.5s-7.9-2-8.5-6s-1.4-14,2.6-14.7c2-0.3,4.6,2.1,6.9,4.7
	C13.7,124.7,14.8,126.1,15.2,128.2z"/>
<path class="st0" d="M29.3,115.3c-0.4,4.7-6.6,6.6-11.2,4.9c-4.5-1.7-6.9-6.6-5.3-11s7.3-14.9,11.8-13.2c2.2,0.8,1.9,4,2.8,8
	C28.9,110.2,29.5,112.8,29.3,115.3z"/>
<path class="st0" d="M43.1,139.2c-3.7-3.4-6.6-6.8-11.2-6.8l-0.2,26.6c2.9,0,14.9,6.5,18.5-5.1C51.6,149.3,48.5,144.1,43.1,139.2z"
	/>
<path class="st0" d="M20.7,139c3.7-3.3,6.7-6.7,11.2-6.7l-0.2,26.6c-2.9,0-15,6.3-18.4-5.3C12,149.1,15.2,143.9,20.7,139z"/>
<path class="st0" d="M48.7,128.3c-0.7,4,2,7.8,6,8.5c4,0.7,7.9-1.9,8.6-5.9c0.7-4,1.5-14-2.5-14.7c-2-0.3-4.6,2.1-6.9,4.7
	C50.2,124.8,49.1,126.2,48.7,128.3z"/>
<path class="st0" d="M34.7,115.4c0.4,4.7,6.6,6.7,11.1,5c4.5-1.7,6.9-6.6,5.3-11c-1.6-4.4-7.2-14.9-11.7-13.3
	c-2.2,0.8-1.9,4-2.8,7.9C35.1,110.2,34.5,112.8,34.7,115.4z"/>
<path class="st0" d="M15.2,128.3c0.7,4-2,7.8-6,8.5c-4,0.7-7.9-1.9-8.6-5.9c-0.7-4-1.5-14,2.5-14.7c2-0.3,4.6,2.1,6.9,4.7
	C13.7,124.8,14.8,126.2,15.2,128.3z"/>
<path class="st0" d="M29.2,115.4c-0.4,4.7-6.6,6.7-11.1,5c-4.5-1.7-6.9-6.6-5.3-11s7.2-14.9,11.7-13.3c2.2,0.8,1.9,4,2.8,7.9
	C28.8,110.2,29.4,112.8,29.2,115.4z"/>
<path class="st0" d="M43.1,139.1c-3.7-3.3-6.6-6.7-11.2-6.7l0,26.6c2.9,0,15,6.4,18.5-5.2C51.7,149.2,48.6,144,43.1,139.1z"/>
<path class="st0" d="M20.7,139.1c3.7-3.3,6.6-6.7,11.2-6.7l0,26.6c-2.9,0-15,6.4-18.5-5.2C12.1,149.2,15.3,144,20.7,139.1z"/>
<path class="st0" d="M48.7,128.4c-0.7,4,1.9,7.8,6,8.6c4,0.7,7.9-1.9,8.6-5.9c0.7-4,1.6-14-2.4-14.7c-2-0.4-4.6,2.1-7,4.6
	C50.2,124.9,49.1,126.3,48.7,128.4z"/>
<path class="st0" d="M34.8,115.4c0.4,4.7,6.6,6.7,11.1,5.1s7-6.5,5.4-11c-1.6-4.4-7.1-15-11.6-13.3c-2.2,0.8-1.9,4-2.9,7.9
	C35.3,110.2,34.6,112.9,34.8,115.4z"/>
<path class="st0" d="M15.2,128.2c0.7,4-2,7.8-6.1,8.5s-7.9-2-8.5-6s-1.4-14,2.6-14.7c2-0.3,4.6,2.1,6.9,4.7
	C13.7,124.7,14.8,126.1,15.2,128.2z"/>
<path class="st0" d="M29.3,115.3c-0.4,4.7-6.6,6.6-11.2,4.9c-4.5-1.7-6.9-6.6-5.3-11s7.3-14.9,11.8-13.2c2.2,0.8,1.9,4,2.8,8
	C28.9,110.2,29.5,112.8,29.3,115.3z"/>
<path class="st0" d="M43.1,139.2c-3.7-3.4-6.6-6.8-11.2-6.8l-0.2,26.6c2.9,0,14.9,6.5,18.5-5.1C51.6,149.3,48.5,144.1,43.1,139.2z"
	/>
<path class="st0" d="M20.7,139c3.7-3.3,6.7-6.7,11.2-6.7l-0.2,26.6c-2.9,0-15,6.3-18.4-5.3C12,149.1,15.2,143.9,20.7,139z"/>
<path class="st0" d="M145.1,33.1c-0.7,4,2,7.8,6,8.5c4,0.7,7.9-1.9,8.6-5.9s1.5-14-2.5-14.7c-2-0.3-4.6,2.1-6.9,4.7
	C146.6,29.6,145.4,31,145.1,33.1z"/>
<path class="st0" d="M131,20.2c0.4,4.7,6.6,6.7,11.1,5c4.5-1.7,6.9-6.6,5.3-11c-1.6-4.4-7.2-14.9-11.7-13.3c-2.2,0.8-1.9,4-2.8,7.9
	C131.5,15,130.8,17.7,131,20.2z"/>
<path class="st0" d="M111.5,33.1c0.7,4-2,7.8-6,8.5s-7.9-1.9-8.6-5.9c-0.7-4-1.5-14,2.5-14.7c2-0.3,4.6,2.1,6.9,4.7
	C110,29.6,111.2,31,111.5,33.1z"/>
<path class="st0" d="M125.5,20.2c-0.4,4.7-6.6,6.7-11.1,5c-4.5-1.7-6.9-6.6-5.3-11s7.2-14.9,11.7-13.3c2.2,0.8,1.9,4,2.8,7.9
	C125.1,15,125.8,17.7,125.5,20.2z"/>
<path class="st0" d="M139.5,43.9c-3.7-3.3-6.6-6.7-11.2-6.7l0,26.6c2.9,0,15,6.4,18.5-5.2C148.1,54,144.9,48.8,139.5,43.9z"/>
<path class="st0" d="M117.1,43.9c3.7-3.3,6.6-6.7,11.2-6.7l0,26.6c-2.9,0-15,6.4-18.5-5.2C108.5,54,111.7,48.8,117.1,43.9z"/>
<path class="st0" d="M145.1,33.2c-0.7,4,1.9,7.8,6,8.6c4,0.7,7.9-1.9,8.6-5.9c0.7-4,1.6-14-2.4-14.7c-2-0.4-4.6,2.1-7,4.6
	C146.6,29.7,145.4,31.1,145.1,33.2z"/>
<path class="st0" d="M131.1,20.2c0.4,4.7,6.6,6.7,11.1,5.1c4.6-1.6,7-6.5,5.4-11S140.5-0.7,136,1c-2.2,0.8-1.9,4-2.9,7.9
	C131.6,15,130.9,17.7,131.1,20.2z"/>
<path class="st0" d="M111.5,33c0.7,4-2,7.8-6.1,8.5c-4,0.7-7.9-2-8.5-6s-1.4-14,2.6-14.7c2-0.3,4.6,2.1,6.9,4.7
	C110.1,29.5,111.2,30.9,111.5,33z"/>
<path class="st0" d="M125.6,20.1c-0.4,4.7-6.6,6.6-11.2,4.9c-4.5-1.7-6.9-6.6-5.3-11c1.6-4.4,7.3-14.9,11.8-13.2
	c2.2,0.8,1.9,4,2.8,8C125.2,15,125.9,17.6,125.6,20.1z"/>
<path class="st0" d="M139.4,44c-3.7-3.4-6.6-6.8-11.2-6.8l-0.2,26.6c2.9,0,14.9,6.5,18.5-5.1C148,54.1,144.8,48.9,139.4,44z"/>
<path class="st0" d="M117,43.8c3.7-3.3,6.7-6.7,11.2-6.7l-0.2,26.6c-2.9,0-15,6.3-18.4-5.3C108.4,53.9,111.6,48.7,117,43.8z"/>
<path class="st0" d="M145.1,33.1c-0.7,4,2,7.8,6,8.5c4,0.7,7.9-1.9,8.6-5.9s1.5-14-2.5-14.7c-2-0.3-4.6,2.1-6.9,4.7
	C146.6,29.6,145.4,31,145.1,33.1z"/>
<path class="st0" d="M131,20.2c0.4,4.7,6.6,6.7,11.1,5c4.5-1.7,6.9-6.6,5.3-11c-1.6-4.4-7.2-14.9-11.7-13.3c-2.2,0.8-1.9,4-2.8,7.9
	C131.5,15,130.8,17.7,131,20.2z"/>
<path class="st0" d="M111.5,33.1c0.7,4-2,7.8-6,8.5s-7.9-1.9-8.6-5.9c-0.7-4-1.5-14,2.5-14.7c2-0.3,4.6,2.1,6.9,4.7
	C110,29.6,111.2,31,111.5,33.1z"/>
<path class="st0" d="M125.5,20.2c-0.4,4.7-6.6,6.7-11.1,5c-4.5-1.7-6.9-6.6-5.3-11s7.2-14.9,11.7-13.3c2.2,0.8,1.9,4,2.8,7.9
	C125.1,15,125.8,17.7,125.5,20.2z"/>
<path class="st0" d="M139.5,43.9c-3.7-3.3-6.6-6.7-11.2-6.7l0,26.6c2.9,0,15,6.4,18.5-5.2C148.1,54,144.9,48.8,139.5,43.9z"/>
<path class="st0" d="M117.1,43.9c3.7-3.3,6.6-6.7,11.2-6.7l0,26.6c-2.9,0-15,6.4-18.5-5.2C108.5,54,111.7,48.8,117.1,43.9z"/>
<path class="st0" d="M145.1,33.2c-0.7,4,1.9,7.8,6,8.6c4,0.7,7.9-1.9,8.6-5.9c0.7-4,1.6-14-2.4-14.7c-2-0.4-4.6,2.1-7,4.6
	C146.6,29.7,145.4,31.1,145.1,33.2z"/>
<path class="st0" d="M131.1,20.2c0.4,4.7,6.6,6.7,11.1,5.1c4.6-1.6,7-6.5,5.4-11S140.5-0.7,136,1c-2.2,0.8-1.9,4-2.9,7.9
	C131.6,15,130.9,17.7,131.1,20.2z"/>
<path class="st0" d="M111.5,33c0.7,4-2,7.8-6.1,8.5c-4,0.7-7.9-2-8.5-6s-1.4-14,2.6-14.7c2-0.3,4.6,2.1,6.9,4.7
	C110.1,29.5,111.2,30.9,111.5,33z"/>
<path class="st0" d="M125.6,20.1c-0.4,4.7-6.6,6.6-11.2,4.9c-4.5-1.7-6.9-6.6-5.3-11c1.6-4.4,7.3-14.9,11.8-13.2
	c2.2,0.8,1.9,4,2.8,8C125.2,15,125.9,17.6,125.6,20.1z"/>
<path class="st0" d="M139.4,44c-3.7-3.4-6.6-6.8-11.2-6.8l-0.2,26.6c2.9,0,14.9,6.5,18.5-5.1C148,54.1,144.8,48.9,139.4,44z"/>
<path class="st0" d="M117,43.8c3.7-3.3,6.7-6.7,11.2-6.7l-0.2,26.6c-2.9,0-15,6.3-18.4-5.3C108.4,53.9,111.6,48.7,117,43.8z"/>
</svg>
