<?xml version="1.0" encoding="utf-8"?>
<!-- Generator: Adobe Illustrator 20.1.0, SVG Export Plug-In . SVG Version: 6.00 Build 0)  -->
<svg version="1.1" id="Layer_1" xmlns="http://www.w3.org/2000/svg" xmlns:xlink="http://www.w3.org/1999/xlink" x="0px" y="0px"
	 viewBox="0 0 442 543.8" style="enable-background:new 0 0 442 543.8;" xml:space="preserve">
<style type="text/css">
	.st0{fill:#EBA3A3;}
	.st1{fill:#FFFFFF;}
	.st2{fill:#E3E4E5;}
</style>
<path class="st0" d="M221,442L221,442C99.4,442,0,342.6,0,221l0,0C0,99.4,99.4,0,221,0l0,0c121.5,0,221,99.4,221,221l0,0
	C442,342.6,342.6,442,221,442z"/>
<path class="st1" d="M303.4,218.6c-3.4,19.2,9.6,37.5,28.9,40.9s37.8-9.4,41.2-28.5s7.3-67.1-12-70.5c-9.4-1.7-21.9,10.2-33.2,22.4
	C310.6,202,305.2,208.8,303.4,218.6z"/>
<path class="st1" d="M236.2,156.7c1.8,22.5,31.7,32,53.5,24c21.8-7.9,33.2-31.6,25.5-52.8S280.8,56.3,259,64.2
	c-10.6,3.9-9.2,19.2-13.7,38.1C238.3,132,235.2,144.6,236.2,156.7z"/>
<path class="st1" d="M142.5,218.6c3.4,19.2-9.6,37.5-28.9,40.9s-37.8-9.4-41.2-28.5c-3.4-19.2-7.3-67.1,12-70.5
	c9.4-1.7,21.9,10.2,33.2,22.4C135.3,202,140.7,208.8,142.5,218.6z"/>
<path class="st1" d="M209.8,156.7c-1.8,22.5-31.7,32-53.5,24s-33.2-31.6-25.5-52.8s34.4-71.6,56.2-63.7c10.6,3.9,9.2,19.2,13.7,38.1
	C207.6,132,210.7,144.6,209.8,156.7z"/>
<path class="st1" d="M276.7,270.6c-17.5-15.8-31.3-31.7-52.7-32.3l0,0c-0.2,0-0.4,0-0.5,0c-0.2,0-0.4,0-0.5,0l0,0
	c-21.4,0.5-35.2,16.4-52.7,32.3c-26.1,23.6-41.3,48.5-34.8,70.1c16.5,55.1,73.1,25.9,88,25.1c15,0.7,71.6,30,88-25.1
	C317.9,319.1,302.7,294.2,276.7,270.6z"/>
<ellipse class="st2" cx="222.9" cy="513.1" rx="172.1" ry="15.9"/>
</svg>
