<?xml version="1.0" encoding="utf-8"?>
<!-- Generator: Adobe Illustrator 20.1.0, SVG Export Plug-In . SVG Version: 6.00 Build 0)  -->
<svg version="1.1" id="Layer_1" xmlns="http://www.w3.org/2000/svg" xmlns:xlink="http://www.w3.org/1999/xlink" x="0px" y="0px"
	 viewBox="0 0 110.4 55" style="enable-background:new 0 0 110.4 55;" xml:space="preserve">
<style type="text/css">
	.st0{fill:#FFFFFF;}
</style>
<path class="st0" d="M109.9,7.9c-1,0.9-2.5,0.7-3.4-0.3s-1-2.9,0.2-3.4c0.6-0.3,1.4-0.4,3.2-0.6c0.1,0,0.2,0,0.3,0V0.4
	c-0.3,0.2-0.7,0.4-1.2,0.7c-1.5,1-2.1,1.4-2.8,1.6c-1.3,0.4-2.4-1.1-2.4-2.5c0-0.1,0-0.2,0-0.3h-2c-0.1,0.1-0.2,0.2-0.4,0.3
	C100.6,0.8,99.6,0.6,99,0H77.4c-0.8,1.8-1.8,3.1-3.1,3.2c-2.5,0.2-2.9-1.8-3-3.2H-0.2v55h110.4V7.7C110.1,7.8,110,7.9,109.9,7.9z
	 M80.9,0.3c0.6-0.1,1.1,0.1,2.5,0.6c0.9,0.4,1.8,0.8,1.9,1.4c0.2,1.1-2.5,1.9-3.6,2.1s-2.2-0.6-2.4-1.7C79,1.5,79.8,0.5,80.9,0.3z
	 M80.5,19.6c1.3,0,4.6,0.4,4.6,1.8c0,0.7-0.9,0.9-1.8,1.5c-1.5,1-2.1,1.4-2.8,1.6c-1.3,0.4-2.4-1.1-2.4-2.5
	C78.1,20.7,79.2,19.6,80.5,19.6z M56.7,10.7c1.3,0,4.6,0.4,4.6,1.8c0,0.7-0.9,0.9-1.8,1.5c-1.5,1-2.1,1.4-2.8,1.6
	c-1.3,0.4-2.4-1.1-2.4-2.5C54.3,11.8,55.4,10.7,56.7,10.7z M40.9,35.8c1.3,0,4.6,0.4,4.6,1.8c0,0.7-0.9,0.9-1.8,1.5
	c-1.5,1-2.1,1.4-2.8,1.6c-1.3,0.4-2.4-1.1-2.4-2.5C38.6,36.9,39.6,35.8,40.9,35.8z M17.1,26.9c1.3,0,4.6,0.4,4.6,1.8
	c0,0.7-0.9,0.9-1.8,1.5c-1.5,1-2.1,1.4-2.8,1.6c-1.3,0.4-2.4-1.1-2.4-2.5C14.7,28.1,15.8,27,17.1,26.9z M12.2,37.9
	c-0.8,1.9-1.8,3.2-3.1,3.3c-3.4,0.2-2.9-3.5-3.2-4.3c-0.3-0.8-3.1-3.3-0.4-5.3c1.1-0.8,2.7-0.5,4.6,0.5c1.2,0.6,2.4,1.1,2.8,2.2l0,0
	l0,0l0,0l0,0C13.4,35.5,12.8,36.6,12.2,37.9z M12.4,29.4c-1,0.6-2.3,0.2-2.8-0.8s-0.2-2.3,0.7-2.8c1-0.6,3.5-1.8,4.1-0.8
	c0.3,0.5-0.1,1.4-0.6,2.3C13.2,28.7,12.9,29.1,12.4,29.4z M16.4,42.4c-1.1,0.2-2.2-0.6-2.4-1.7c-0.2-1.1,0.5-2.2,1.7-2.4
	c0.6-0.1,1.1,0.1,2.5,0.6c0.9,0.4,1.8,0.8,1.9,1.4C20.2,41.4,17.5,42.2,16.4,42.4z M20.9,37.1c-1,0.9-2.5,0.7-3.4-0.3
	s-1-2.9,0.2-3.4c0.6-0.3,1.4-0.4,3.2-0.6c1.1-0.1,1.9-0.5,2.4,0C24.1,33.7,21.9,36.2,20.9,37.1z M36.1,46.7
	c-0.8,1.9-1.8,3.2-3.1,3.3c-3.4,0.2-2.9-3.5-3.2-4.3c-0.3-0.8-3.1-3.3-0.4-5.3c1.1-0.8,2.7-0.5,4.6,0.5c1.2,0.6,2.4,1.1,2.8,2.2l0,0
	l0,0l0,0l0,0C37.2,44.4,36.6,45.4,36.1,46.7z M36.2,38.3c-1,0.6-2.3,0.2-2.8-0.8c-0.6-1-0.2-2.3,0.7-2.8c1-0.6,3.5-1.8,4.1-0.8
	c0.3,0.5-0.1,1.4-0.6,2.3C37,37.6,36.7,38,36.2,38.3z M40.2,51.2c-1.1,0.2-2.2-0.6-2.4-1.7s0.5-2.2,1.7-2.4c0.6-0.1,1.1,0.1,2.5,0.6
	c0.9,0.4,1.8,0.8,1.9,1.4C44,50.3,41.3,51,40.2,51.2z M44.7,46c-1,0.9-2.5,0.7-3.4-0.3s-1-2.9,0.2-3.4c0.6-0.3,1.4-0.4,3.2-0.6
	c1.1-0.1,1.9-0.5,2.4,0C47.9,42.6,45.7,45.1,44.7,46z M51.8,21.6C51,23.5,50,24.9,48.7,25c-3.4,0.2-2.9-3.5-3.2-4.3
	s-3.1-3.3-0.4-5.3c1.1-0.8,2.7-0.5,4.6,0.5c1.2,0.6,2.4,1.1,2.8,2.2l0,0l0,0l0,0l0,0C52.9,19.3,52.3,20.3,51.8,21.6z M51.9,13.2
	c-1,0.6-2.3,0.2-2.8-0.8c-0.6-1-0.2-2.3,0.7-2.8c1-0.6,3.5-1.8,4.1-0.8c0.3,0.5-0.1,1.4-0.6,2.3C52.7,12.5,52.4,12.9,51.9,13.2z
	 M55.9,26.1c-1.1,0.2-2.2-0.6-2.4-1.7s0.5-2.2,1.7-2.4c0.6-0.1,1.1,0.1,2.5,0.6c0.9,0.4,1.8,0.8,1.9,1.4
	C59.8,25.2,57.1,25.9,55.9,26.1z M60.4,20.9c-1,0.9-2.5,0.7-3.4-0.3s-1-2.9,0.2-3.4c0.6-0.3,1.4-0.4,3.2-0.6c1.1-0.1,1.9-0.5,2.4,0
	C63.7,17.5,61.4,20,60.4,20.9z M75.6,30.5c-0.8,1.9-1.8,3.2-3.1,3.3c-3.4,0.2-2.9-3.5-3.2-4.3c-0.3-0.8-3.1-3.3-0.4-5.3
	c1.1-0.8,2.7-0.5,4.6,0.5c1.2,0.6,2.4,1.1,2.8,2.2l0,0l0,0l0,0l0,0C76.7,28.1,76.1,29.2,75.6,30.5z M75.8,22.1
	c-1,0.6-2.3,0.2-2.8-0.8c-0.6-1-0.2-2.3,0.7-2.8c1-0.6,3.5-1.8,4.1-0.8c0.3,0.5-0.1,1.4-0.6,2.3C76.5,21.3,76.3,21.8,75.8,22.1z
	 M79.8,35c-1.1,0.2-2.2-0.6-2.4-1.7c-0.2-1.1,0.5-2.2,1.7-2.4c0.6-0.1,1.1,0.1,2.5,0.6c0.9,0.4,1.8,0.8,1.9,1.4
	C83.6,34.1,80.9,34.8,79.8,35z M84.2,29.7c-1,0.9-2.5,0.7-3.4-0.3s-1-2.9,0.2-3.4c0.6-0.3,1.4-0.4,3.2-0.6c1.1-0.1,1.9-0.5,2.4,0
	C87.5,26.4,85.3,28.9,84.2,29.7z M101.3,8.7c-0.8,1.9-1.8,3.2-3.1,3.3c-3.4,0.2-2.9-3.5-3.2-4.3c-0.3-0.8-3.1-3.3-0.4-5.3
	c1.1-0.8,2.7-0.5,4.6,0.5c1.2,0.6,2.4,1.1,2.8,2.2l0,0l0,0l0,0l0,0C102.4,6.3,101.8,7.4,101.3,8.7z M105.4,13.2
	c-1.1,0.2-2.2-0.6-2.4-1.7s0.5-2.2,1.7-2.4c0.6-0.1,1.1,0.1,2.5,0.6c0.9,0.4,1.8,0.8,1.9,1.4C109.3,12.3,106.5,13,105.4,13.2z"/>
<polygon class="st0" points="61.3,42.4 68.8,9.1 42,0.3 110.2,0.3 110.2,40.4 "/>
</svg>
