<?xml version="1.0" encoding="utf-8"?>
<!-- Generator: Adobe Illustrator 20.1.0, SVG Export Plug-In . SVG Version: 6.00 Build 0)  -->
<svg version="1.1" id="Layer_1" xmlns="http://www.w3.org/2000/svg" xmlns:xlink="http://www.w3.org/1999/xlink" x="0px" y="0px"
	 viewBox="0 0 110.4 55" style="enable-background:new 0 0 110.4 55;" xml:space="preserve">
<style type="text/css">
	.st0{fill:#FFFFFF;}
</style>
<path class="st0" d="M110,4.1c-0.3-0.7-1.9-2.3-1.8-4.1h-13c-0.3,0.1-0.5,0.1-0.7,0.1c-0.5,0.1-0.9,0-1.3-0.1H-0.2v55h110.4V5.2
	C110.1,4.7,110.1,4.3,110,4.1z M93.2,17.9c1.5,0,5.4,0.5,5.4,2.1c0,0.8-1,1-2.1,1.8c-1.7,1.1-2.5,1.6-3.3,1.9
	c-1.5,0.4-2.8-1.3-2.8-2.9C90.4,19.2,91.7,17.9,93.2,17.9z M65.5,7.5c1.5,0,5.4,0.5,5.4,2.1c0,0.8-1,1-2.1,1.8
	c-1.7,1.1-2.5,1.6-3.3,1.9c-1.5,0.4-2.8-1.3-2.8-2.9C62.7,8.8,63.9,7.5,65.5,7.5z M47.1,36.8c1.5,0,5.4,0.5,5.4,2.1
	c0,0.8-1,1-2.1,1.8c-1.7,1.1-2.5,1.6-3.3,1.9c-1.5,0.4-2.8-1.3-2.8-2.9S45.6,36.8,47.1,36.8z M19.4,26.4c1.5,0,5.4,0.5,5.4,2.1
	c0,0.8-1,1-2.1,1.8c-1.7,1.1-2.5,1.6-3.3,1.9c-1.5,0.4-2.8-1.3-2.8-2.9S17.9,26.4,19.4,26.4z M13.7,39.1c-0.9,2.2-2.1,3.8-3.7,3.9
	c-3.9,0.2-3.4-4.1-3.7-5C6,37,2.8,34.1,5.9,31.8c1.2-0.9,3.2-0.5,5.3,0.6c1.4,0.7,2.8,1.3,3.3,2.6l0,0c0,0,0,0,0,0c0,0,0,0,0,0l0,0
	C15,36.4,14.3,37.6,13.7,39.1z M13.9,29.3c-1.1,0.7-2.6,0.3-3.3-0.9c-0.7-1.2-0.3-2.6,0.9-3.3c1.1-0.7,4.1-2.1,4.8-0.9
	c0.3,0.6-0.1,1.6-0.6,2.7C14.8,28.5,14.5,29,13.9,29.3z M18.6,44.4c-1.3,0.2-2.6-0.6-2.8-2s0.6-2.6,1.9-2.8c0.7-0.1,1.2,0.1,2.9,0.8
	c1,0.4,2.1,1,2.2,1.6C23,43.3,19.9,44.2,18.6,44.4z M23.8,38.2c-1.2,1-3,0.8-4-0.4c-1-1.2-1.1-3.3,0.3-4c0.8-0.3,1.6-0.4,3.7-0.7
	c1.3-0.2,2.3-0.6,2.8,0C27.5,34.3,25,37.2,23.8,38.2z M41.5,49.5c-0.9,2.2-2.1,3.8-3.7,3.9c-3.9,0.2-3.4-4.1-3.7-5
	c-0.4-0.9-3.6-3.9-0.5-6.2c1.2-0.9,3.2-0.5,5.3,0.6c1.4,0.7,2.8,1.3,3.3,2.6l0,0c0,0,0,0,0,0c0,0,0,0,0,0l0,0
	C42.7,46.7,42.1,48,41.5,49.5z M41.6,39.6c-1.1,0.7-2.6,0.3-3.3-0.9c-0.7-1.2-0.3-2.6,0.9-3.3c1.1-0.7,4.1-2.1,4.8-0.9
	c0.3,0.6-0.1,1.6-0.6,2.7C42.5,38.8,42.2,39.3,41.6,39.6z M46.3,54.7c-1.3,0.2-2.6-0.6-2.8-2s0.6-2.6,1.9-2.8
	c0.7-0.1,1.2,0.1,2.9,0.8c1,0.4,2.1,1,2.2,1.6C50.7,53.6,47.6,54.5,46.3,54.7z M51.5,48.6c-1.2,1-3,0.8-4-0.4c-1-1.2-1.1-3.3,0.3-4
	c0.8-0.3,1.6-0.4,3.7-0.7c1.3-0.2,2.3-0.6,2.8,0C55.3,44.7,52.7,47.6,51.5,48.6z M59.8,20.2c-0.9,2.2-2.1,3.8-3.7,3.9
	c-3.9,0.2-3.4-4.1-3.7-5c-0.4-0.9-3.6-3.9-0.5-6.2c1.2-0.9,3.2-0.5,5.3,0.6c1.4,0.7,2.8,1.3,3.3,2.6l0,0c0,0,0,0,0,0c0,0,0,0,0,0
	l0,0C61.1,17.5,60.4,18.8,59.8,20.2z M59.9,10.4c-1.1,0.7-2.6,0.3-3.3-0.9c-0.7-1.2-0.3-2.6,0.9-3.3c1.1-0.7,4.1-2.1,4.8-0.9
	C62.6,5.9,62.2,7,61.6,8C60.8,9.6,60.5,10.1,59.9,10.4z M64.6,25.5c-1.3,0.2-2.6-0.6-2.8-2s0.6-2.6,1.9-2.8c0.7-0.1,1.2,0.1,2.9,0.8
	c1,0.4,2.1,1,2.2,1.6C69.1,24.4,65.9,25.3,64.6,25.5z M69.8,19.3c-1.2,1-3,0.8-4-0.4c-1-1.2-1.1-3.3,0.3-4c0.8-0.3,1.6-0.4,3.7-0.7
	c1.3-0.2,2.3-0.6,2.8,0C73.6,15.4,71,18.3,69.8,19.3z M87.5,30.6c-0.9,2.2-2.1,3.8-3.7,3.9c-3.9,0.2-3.4-4.1-3.7-5
	c-0.4-0.9-3.6-3.9-0.5-6.2c1.2-0.9,3.2-0.5,5.3,0.6c1.4,0.7,2.8,1.3,3.3,2.6l0,0c0,0,0,0,0,0c0,0,0,0,0,0l0,0
	C88.8,27.8,88.1,29.1,87.5,30.6z M87.7,20.8c-1.1,0.7-2.6,0.3-3.3-0.9c-0.7-1.2-0.3-2.6,0.9-3.3c1.1-0.7,4.1-2.1,4.8-0.9
	c0.3,0.6-0.1,1.6-0.6,2.7C88.6,19.9,88.2,20.4,87.7,20.8z M92.3,35.8c-1.3,0.2-2.6-0.6-2.8-2s0.6-2.6,1.9-2.8
	c0.7-0.1,1.2,0.1,2.9,0.8c1,0.4,2.1,1,2.2,1.6C96.8,34.7,93.6,35.6,92.3,35.8z M97.5,29.7c-1.2,1-3,0.8-4-0.4c-1-1.2-1.1-3.3,0.3-4
	c0.8-0.3,1.6-0.4,3.7-0.7c1.3-0.2,2.3-0.6,2.8,0C101.3,25.8,98.7,28.7,97.5,29.7z"/>
</svg>
