<?xml version="1.0" encoding="utf-8"?>
<!-- Generator: Adobe Illustrator 20.1.0, SVG Export Plug-In . SVG Version: 6.00 Build 0)  -->
<svg version="1.1" id="Layer_1" xmlns="http://www.w3.org/2000/svg" xmlns:xlink="http://www.w3.org/1999/xlink" x="0px" y="0px"
	 viewBox="0 0 1784.2 900" style="enable-background:new 0 0 1784.2 900;" xml:space="preserve">
<style type="text/css">
	.st0{fill:#FFFFFF;}
</style>
<g>
	<path class="st0" d="M16.7,742.6c-3.6,1.1-5.7,4.9-4.6,8.5s4.9,5.8,8.5,4.7c3.6-1.1,12.3-4.5,11.2-8.2c-0.5-1.8-3.7-2.9-6.8-3.8
		C20.2,742.4,18.6,742,16.7,742.6z"/>
	<path class="st0" d="M21.7,725.5c-3.8,2.2-2.8,8.3,0.4,11.4c3.2,3.1,8.4,3.1,11.4-0.1c3-3.2,9.5-12.1,6.2-15.3
		c-1.6-1.5-4.1,0.1-7.8,0.9C26.2,723.8,23.7,724.3,21.7,725.5z"/>
	<path class="st0" d="M2.9,714.6c-3,2.2-7.3,1.6-9.6-1.5s-1.6-7.4,1.4-9.6c3-2.2,11-7,13.3-4c1.1,1.5,0.1,4.7-1,7.7
		C5.2,711.9,4.4,713.4,2.9,714.6z"/>
	<path class="st0" d="M19.4,721c-4.1,1.6-8.3-2.8-8.8-7.2s2.6-8.5,7-9s15.4-0.2,15.9,4.3c0.2,2.2-2.5,3.3-5.4,5.7
		C23.5,718.4,21.6,720.1,19.4,721z"/>
	<path class="st0" d="M5.4,742.4c1.2-4.4,2.8-8.2,1.1-11.9l0,0c0,0,0-0.1,0-0.1c0,0,0-0.1,0-0.1l0,0c-1.9-3.7-5.9-4.7-10.2-6.4
		c-6.3-2.5-12-3-15.2,0c-8.2,7.6,1.8,14.9,3.2,17.5c1.2,2.7,0.9,15,11.9,13.1C0.5,753.7,3.5,748.9,5.4,742.4z"/>
</g>
<g>
	<path class="st0" d="M123.5,746.9c-3.6,1.1-5.7,4.9-4.6,8.5s4.9,5.8,8.5,4.7c3.6-1.1,12.3-4.5,11.2-8.2c-0.5-1.8-3.7-2.9-6.8-3.8
		C127,746.7,125.4,746.3,123.5,746.9z"/>
	<path class="st0" d="M128.5,729.9c-3.8,2.2-2.8,8.3,0.4,11.4c3.2,3.1,8.4,3.1,11.4-0.1c3-3.2,9.5-12.1,6.2-15.3
		c-1.6-1.5-4.1,0.1-7.8,0.9C133,728.1,130.5,728.6,128.5,729.9z"/>
	<path class="st0" d="M109.7,718.9c-3,2.2-7.3,1.6-9.6-1.5c-2.3-3.1-1.6-7.4,1.4-9.6c3-2.2,11-7,13.3-4c1.1,1.5,0.1,4.7-1,7.7
		C111.9,716.2,111.2,717.7,109.7,718.9z"/>
	<path class="st0" d="M126.2,725.3c-4.1,1.6-8.3-2.8-8.8-7.2c-0.5-4.5,2.6-8.5,7-9c4.3-0.5,15.4-0.2,15.9,4.3
		c0.2,2.2-2.5,3.3-5.4,5.7C130.3,722.8,128.4,724.4,126.2,725.3z"/>
	<path class="st0" d="M112.2,746.7c1.2-4.4,2.8-8.2,1.1-11.9l0,0c0,0,0-0.1,0-0.1c0,0,0-0.1,0-0.1l0,0c-1.9-3.7-5.9-4.7-10.2-6.4
		c-6.3-2.5-12-3-15.2,0c-8.2,7.6,1.8,14.9,3.2,17.5c1.2,2.7,0.9,15,11.9,13.1C107.3,758,110.3,753.3,112.2,746.7z"/>
</g>
<g>
	<path class="st0" d="M221.5,647.6c-3.6,1.1-5.7,4.9-4.6,8.5c1.1,3.6,4.9,5.8,8.5,4.7c3.6-1.1,12.3-4.5,11.2-8.2
		c-0.5-1.8-3.7-2.9-6.8-3.8C225,647.5,223.3,647.1,221.5,647.6z"/>
	<path class="st0" d="M226.4,630.6c-3.8,2.2-2.8,8.3,0.4,11.4c3.2,3.1,8.4,3.1,11.4-0.1c3-3.2,9.5-12.1,6.2-15.3
		c-1.6-1.5-4.1,0.1-7.8,0.9C230.9,628.9,228.5,629.4,226.4,630.6z"/>
	<path class="st0" d="M207.6,619.7c-3,2.2-7.3,1.6-9.6-1.5c-2.3-3.1-1.6-7.4,1.4-9.6c3-2.2,11-7,13.3-4c1.1,1.5,0.1,4.7-1,7.7
		C209.9,617,209.2,618.5,207.6,619.7z"/>
	<path class="st0" d="M224.2,626c-4.1,1.6-8.3-2.8-8.8-7.2c-0.5-4.5,2.6-8.5,7-9s15.4-0.2,15.9,4.3c0.2,2.2-2.5,3.3-5.4,5.7
		C228.3,623.5,226.3,625.2,224.2,626z"/>
	<path class="st0" d="M210.1,647.5c1.2-4.4,2.8-8.2,1.1-11.9l0,0c0,0,0-0.1,0-0.1c0,0,0-0.1,0-0.1l0,0c-1.9-3.7-5.9-4.7-10.2-6.4
		c-6.3-2.5-12-3-15.2,0c-8.2,7.6,1.8,14.9,3.2,17.5c1.2,2.7,0.9,15,11.9,13.1C205.2,658.8,208.2,654,210.1,647.5z"/>
</g>
<g>
	<path class="st0" d="M328.2,642c-3.6,1.1-5.7,4.9-4.6,8.5s4.9,5.8,8.5,4.7c3.6-1.1,12.3-4.5,11.2-8.2c-0.5-1.8-3.7-2.9-6.8-3.8
		C331.7,641.8,330.1,641.4,328.2,642z"/>
	<path class="st0" d="M333.2,625c-3.8,2.2-2.8,8.3,0.4,11.4c3.2,3.1,8.4,3.1,11.4-0.1c3-3.2,9.5-12.1,6.2-15.3
		c-1.6-1.5-4.1,0.1-7.8,0.9C337.7,623.2,335.2,623.7,333.2,625z"/>
	<path class="st0" d="M314.4,614c-3,2.2-7.3,1.6-9.6-1.5c-2.3-3.1-1.6-7.4,1.4-9.6c3-2.2,11-7,13.3-4c1.1,1.5,0.1,4.7-1,7.7
		C316.7,611.3,315.9,612.8,314.4,614z"/>
	<path class="st0" d="M330.9,620.4c-4.1,1.6-8.3-2.8-8.8-7.2s2.6-8.5,7-9c4.3-0.5,15.4-0.2,15.9,4.3c0.2,2.2-2.5,3.3-5.4,5.7
		C335,617.9,333.1,619.5,330.9,620.4z"/>
	<path class="st0" d="M316.9,641.8c1.2-4.4,2.8-8.2,1.1-11.9l0,0c0,0,0-0.1,0-0.1c0,0,0-0.1,0-0.1l0,0c-1.9-3.7-5.9-4.7-10.2-6.4
		c-6.3-2.5-12-3-15.2,0c-8.2,7.6,1.8,14.9,3.2,17.5c1.2,2.7,0.9,15,11.9,13.1C312,653.1,315,648.3,316.9,641.8z"/>
</g>
<g>
	<path class="st0" d="M457.7,542.9c-3.8,0.5-6.4,4-5.9,7.7c0.5,3.8,4,6.4,7.7,5.9c3.7-0.5,12.8-2.6,12.3-6.4
		c-0.2-1.8-3.2-3.5-6.1-4.8C461.1,543.3,459.6,542.7,457.7,542.9z"/>
	<path class="st0" d="M465.1,526.9c-4.1,1.7-4.1,7.7-1.3,11.3c2.7,3.6,7.8,4.3,11.3,1.6s11.2-10.6,8.5-14.1
		c-1.3-1.7-4.1-0.6-7.9-0.3C469.8,525.8,467.3,526,465.1,526.9z"/>
	<path class="st0" d="M448.2,513.2c-3.4,1.8-7.5,0.4-9.3-2.9c-1.8-3.4-0.5-7.5,2.8-9.3c3.4-1.8,12-5.3,13.7-1.9
		c0.9,1.6-0.6,4.6-2.2,7.5C450.8,510.9,449.9,512.3,448.2,513.2z"/>
	<path class="st0" d="M463.6,522c-4.3,1-7.8-4-7.6-8.5c0.2-4.5,3.9-8,8.3-7.8c4.4,0.2,15.3,2.2,15.1,6.6c-0.1,2.2-3,2.8-6.2,4.8
		C468,520.1,465.9,521.5,463.6,522z"/>
	<path class="st0" d="M446.5,541.1c1.9-4.2,4-7.7,2.9-11.6l0,0c0,0,0-0.1,0-0.1c0,0,0-0.1,0-0.1l0,0c-1.3-3.9-5.1-5.5-9.1-7.8
		c-5.9-3.4-11.4-4.8-15-2.3c-9.2,6.3-0.5,15,0.5,17.7c0.8,2.8-1.3,15,9.8,14.8C439.9,551.5,443.6,547.3,446.5,541.1z"/>
</g>
<g>
	<path class="st0" d="M562.5,563.4c-3.8,0.5-6.4,4-5.9,7.7s4,6.4,7.7,5.9c3.7-0.5,12.8-2.6,12.3-6.4c-0.2-1.8-3.2-3.5-6.1-4.8
		C566,563.7,564.5,563.1,562.5,563.4z"/>
	<path class="st0" d="M570,547.3c-4.1,1.7-4.1,7.7-1.3,11.3c2.7,3.6,7.8,4.3,11.3,1.6s11.2-10.6,8.5-14.1c-1.3-1.7-4.1-0.6-7.9-0.3
		C574.7,546.2,572.2,546.4,570,547.3z"/>
	<path class="st0" d="M553.1,533.6c-3.4,1.8-7.5,0.4-9.3-2.9c-1.8-3.4-0.5-7.5,2.8-9.3c3.4-1.8,12-5.3,13.7-1.9
		c0.9,1.6-0.6,4.6-2.2,7.5C555.7,531.3,554.8,532.7,553.1,533.6z"/>
	<path class="st0" d="M568.5,542.4c-4.3,1-7.8-4-7.6-8.5c0.2-4.5,3.9-8,8.3-7.8c4.4,0.2,15.3,2.2,15.1,6.6c-0.1,2.2-3,2.8-6.2,4.8
		C572.9,540.6,570.8,541.9,568.5,542.4z"/>
	<path class="st0" d="M551.4,561.5c1.9-4.2,4-7.7,2.9-11.6l0,0c0,0,0-0.1,0-0.1c0,0,0-0.1,0-0.1l0,0c-1.3-3.9-5.1-5.5-9.1-7.8
		c-5.9-3.4-11.4-4.8-15-2.3c-9.2,6.3-0.5,15,0.5,17.7c0.8,2.8-1.3,15,9.8,14.8C544.8,572,548.5,567.7,551.4,561.5z"/>
</g>
<g>
	<path class="st0" d="M674.4,480.1c-3.8,0.5-6.4,4-5.9,7.7c0.5,3.8,4,6.4,7.7,5.9c3.7-0.5,12.8-2.6,12.3-6.4
		c-0.2-1.8-3.2-3.5-6.1-4.8C677.9,480.5,676.3,479.9,674.4,480.1z"/>
	<path class="st0" d="M681.9,464c-4.1,1.7-4.1,7.7-1.3,11.3c2.7,3.6,7.8,4.3,11.3,1.6s11.2-10.6,8.5-14.1c-1.3-1.7-4.1-0.6-7.9-0.3
		C686.6,463,684.1,463.1,681.9,464z"/>
	<path class="st0" d="M664.9,450.3c-3.4,1.8-7.5,0.4-9.3-2.9c-1.8-3.4-0.5-7.5,2.8-9.3c3.4-1.8,12-5.3,13.7-1.9
		c0.9,1.6-0.6,4.6-2.2,7.5C667.6,448,666.6,449.4,664.9,450.3z"/>
	<path class="st0" d="M680.3,459.2c-4.3,1-7.8-4-7.6-8.5s3.9-8,8.3-7.8s15.3,2.2,15.1,6.6c-0.1,2.2-3,2.8-6.2,4.8
		C684.8,457.3,682.6,458.6,680.3,459.2z"/>
	<path class="st0" d="M663.2,478.2c1.9-4.2,4-7.7,2.9-11.6l0,0c0,0,0-0.1,0-0.1c0,0,0-0.1,0-0.1l0,0c-1.3-3.9-5.1-5.5-9.1-7.8
		c-5.9-3.4-11.4-4.8-15-2.3c-9.2,6.3-0.5,15,0.5,17.7c0.8,2.8-1.3,15,9.8,14.8C656.6,488.7,660.4,484.4,663.2,478.2z"/>
</g>
<g>
	<path class="st0" d="M780.8,490.6c-3.8,0.5-6.4,4-5.9,7.7s4,6.4,7.7,5.9c3.7-0.5,12.8-2.6,12.3-6.4c-0.2-1.8-3.2-3.5-6.1-4.8
		C784.3,491,782.7,490.4,780.8,490.6z"/>
	<path class="st0" d="M788.3,474.6c-4.1,1.7-4.1,7.7-1.3,11.3c2.7,3.6,7.8,4.3,11.3,1.6s11.2-10.6,8.5-14.1
		c-1.3-1.7-4.1-0.6-7.9-0.3C793,473.5,790.5,473.7,788.3,474.6z"/>
	<path class="st0" d="M771.3,460.9c-3.4,1.8-7.5,0.4-9.3-2.9c-1.8-3.4-0.5-7.5,2.8-9.3c3.4-1.8,12-5.3,13.7-1.9
		c0.9,1.6-0.6,4.6-2.2,7.5C774,458.6,773,460,771.3,460.9z"/>
	<path class="st0" d="M786.7,469.7c-4.3,1-7.8-4-7.6-8.5c0.2-4.5,3.9-8,8.3-7.8c4.4,0.2,15.3,2.2,15.1,6.6c-0.1,2.2-3,2.8-6.2,4.8
		C791.2,467.8,789,469.1,786.7,469.7z"/>
	<path class="st0" d="M769.6,488.7c1.9-4.2,4-7.7,2.9-11.6l0,0c0,0,0-0.1,0-0.1c0,0,0-0.1,0-0.1l0,0c-1.3-3.9-5.1-5.5-9.1-7.8
		c-5.9-3.4-11.4-4.8-15-2.3c-9.2,6.3-0.5,15,0.5,17.7c0.8,2.8-1.3,15,9.8,14.8C763,499.2,766.8,494.9,769.6,488.7z"/>
</g>
<g>
	<path class="st0" d="M892.9,395.3c-3.7-0.7-7.3,1.7-8.1,5.4c-0.7,3.7,1.7,7.4,5.4,8.1c3.7,0.7,13,1.7,13.7-2
		c0.4-1.8-1.9-4.3-4.2-6.5C896.1,396.8,894.8,395.7,892.9,395.3z"/>
	<path class="st0" d="M905.2,382.6c-4.4,0.3-6.3,6-4.9,10.3c1.4,4.3,6,6.6,10.1,5.2c4.1-1.4,14-6.4,12.6-10.6
		c-0.7-2.1-3.7-1.9-7.3-2.8C910,383.1,907.5,382.4,905.2,382.6z"/>
	<path class="st0" d="M893.6,364.1c-3.7,0.6-7.2-2-7.8-5.8c-0.6-3.8,2-7.3,5.7-7.9c3.7-0.6,13-1.1,13.6,2.6c0.3,1.8-2.1,4.2-4.5,6.3
		C896.8,362.8,895.5,363.8,893.6,364.1z"/>
	<path class="st0" d="M905.3,377.4c-4.4-0.4-6.1-6.3-4.4-10.5s6.3-6.3,10.4-4.7c4.1,1.6,13.7,7,12.1,11.2c-0.8,2-3.8,1.7-7.4,2.5
		C910.1,377.1,907.6,377.7,905.3,377.4z"/>
	<path class="st0" d="M882.9,389.9c3.1-3.3,6.3-5.9,6.5-10.1l0,0c0,0,0-0.1,0-0.1c0,0,0-0.1,0-0.1l0,0c0-4.2-3-6.9-6-10.4
		c-4.5-5.2-9.2-8.2-13.4-7.1c-10.8,3-5.3,14.1-5.2,17c-0.2,2.9-6.1,13.8,4.5,17.2C873.3,397.7,878.2,394.9,882.9,389.9z"/>
</g>
<g>
	<path class="st0" d="M985.5,448.6c-3.7-0.7-7.3,1.7-8.1,5.4s1.7,7.4,5.4,8.1c3.7,0.7,13,1.7,13.7-2c0.4-1.8-1.9-4.3-4.2-6.5
		C988.7,450.1,987.4,449,985.5,448.6z"/>
	<path class="st0" d="M997.8,435.9c-4.4,0.3-6.3,6-4.9,10.3c1.4,4.3,6,6.6,10.1,5.2c4.1-1.4,14-6.4,12.6-10.6
		c-0.7-2.1-3.7-1.9-7.3-2.8C1002.6,436.4,1000.2,435.7,997.8,435.9z"/>
	<path class="st0" d="M986.2,417.4c-3.7,0.6-7.2-2-7.8-5.8c-0.6-3.8,2-7.3,5.7-7.9c3.7-0.6,13-1.1,13.6,2.6c0.3,1.8-2.1,4.2-4.5,6.3
		C989.4,416.1,988.1,417.1,986.2,417.4z"/>
	<path class="st0" d="M997.9,430.7c-4.4-0.4-6.1-6.3-4.4-10.5s6.3-6.3,10.4-4.7c4.1,1.6,13.7,7,12.1,11.2c-0.8,2-3.8,1.7-7.4,2.5
		C1002.7,430.4,1000.3,431,997.9,430.7z"/>
	<path class="st0" d="M975.5,443.2c3.1-3.3,6.3-5.9,6.5-10.1l0,0c0,0,0-0.1,0-0.1c0,0,0-0.1,0-0.1l0,0c0-4.2-3-6.9-6-10.4
		c-4.5-5.2-9.2-8.2-13.4-7.1c-10.8,3-5.3,14.1-5.2,17c-0.2,2.9-6.1,13.8,4.5,17.2C965.9,451,970.8,448.2,975.5,443.2z"/>
</g>
<g>
	<path class="st0" d="M1118.3,406.1c-3.7-0.7-7.3,1.7-8.1,5.4s1.7,7.4,5.4,8.1s13,1.7,13.7-2c0.4-1.8-1.9-4.3-4.2-6.5
		C1121.5,407.5,1120.2,406.5,1118.3,406.1z"/>
	<path class="st0" d="M1130.6,393.3c-4.4,0.3-6.3,6-4.9,10.3c1.4,4.3,6,6.6,10.1,5.2s14-6.4,12.6-10.6c-0.7-2.1-3.7-1.9-7.3-2.8
		C1135.4,393.8,1132.9,393.2,1130.6,393.3z"/>
	<path class="st0" d="M1119,374.9c-3.7,0.6-7.2-2-7.8-5.8c-0.6-3.8,2-7.3,5.7-7.9c3.7-0.6,13-1.1,13.6,2.6c0.3,1.8-2.1,4.2-4.5,6.3
		C1122.2,373.5,1120.9,374.5,1119,374.9z"/>
	<path class="st0" d="M1130.7,388.2c-4.4-0.4-6.1-6.3-4.4-10.5c1.6-4.2,6.3-6.3,10.4-4.7s13.7,7,12.1,11.2c-0.8,2-3.8,1.7-7.4,2.5
		C1135.5,387.9,1133,388.4,1130.7,388.2z"/>
	<path class="st0" d="M1108.3,400.7c3.1-3.3,6.3-5.9,6.5-10.1l0,0c0,0,0-0.1,0-0.1c0,0,0-0.1,0-0.1l0,0c0-4.2-3-6.9-6-10.4
		c-4.5-5.2-9.2-8.2-13.4-7.1c-10.8,3-5.3,14.1-5.2,17c-0.2,2.9-6.1,13.8,4.5,17.2C1098.7,408.4,1103.6,405.6,1108.3,400.7z"/>
</g>
<g>
	<path class="st0" d="M1509.4,230.6c-3.1,2.1-3.9,6.4-1.8,9.6c2.1,3.1,6.4,4,9.5,1.9c3.1-2.1,10.3-8.1,8.2-11.2
		c-1-1.5-4.4-1.7-7.6-1.6C1512.7,229.4,1511,229.5,1509.4,230.6z"/>
	<path class="st0" d="M1508.9,212.9c-2.9,3.3-0.2,8.7,3.9,10.7c4,2,8.9,0.3,10.8-3.6c1.9-3.9,5.3-14.5,1.2-16.4
		c-2-0.9-3.9,1.3-7.2,3.3C1512.6,209.8,1510.5,211.1,1508.9,212.9z"/>
	<path class="st0" d="M1487.6,208.2c-2.2,3.1-6.5,3.7-9.6,1.5c-3.1-2.2-3.8-6.5-1.6-9.6c2.2-3.1,8.3-10.1,11.4-7.9
		c1.5,1.1,1.5,4.4,1.4,7.6C1489,205,1488.8,206.7,1487.6,208.2z"/>
	<path class="st0" d="M1505.4,209.2c-3.4,2.8-8.7-0.1-10.6-4.2c-1.8-4.1-0.1-8.9,3.9-10.7c4-1.8,14.6-4.9,16.5-0.8
		c0.9,2-1.4,3.9-3.4,7.1C1508.5,205.6,1507.2,207.7,1505.4,209.2z"/>
	<path class="st0" d="M1498.6,233.9c-0.2-4.6,0.2-8.6-2.6-11.7l0,0c0,0-0.1-0.1-0.1-0.1c0,0-0.1-0.1-0.1-0.1l0,0
		c-3-2.9-7-2.7-11.6-3c-6.8-0.4-12.3,0.8-14.5,4.6c-5.4,9.8,6.3,13.7,8.4,15.6c1.9,2.2,5.5,14,15.4,8.8
		C1497.4,246.2,1498.8,240.7,1498.6,233.9z"/>
</g>
<g>
	<path class="st0" d="M1612.3,201.9c-3.1,2.1-3.9,6.4-1.8,9.6c2.1,3.1,6.4,4,9.5,1.9c3.1-2.1,10.3-8.1,8.2-11.2
		c-1-1.5-4.4-1.7-7.6-1.6C1615.6,200.6,1614,200.8,1612.3,201.9z"/>
	<path class="st0" d="M1611.9,184.2c-2.9,3.3-0.2,8.7,3.9,10.7c4,2,8.9,0.3,10.8-3.6c1.9-3.9,5.3-14.5,1.2-16.4
		c-2-0.9-3.9,1.3-7.2,3.3C1615.6,181.1,1613.4,182.4,1611.9,184.2z"/>
	<path class="st0" d="M1590.6,179.5c-2.2,3.1-6.5,3.7-9.6,1.5c-3.1-2.2-3.8-6.5-1.6-9.6c2.2-3.1,8.3-10.1,11.4-7.9
		c1.5,1.1,1.5,4.4,1.4,7.6C1591.9,176.3,1591.7,177.9,1590.6,179.5z"/>
	<path class="st0" d="M1608.3,180.5c-3.4,2.8-8.7-0.1-10.6-4.2s-0.1-8.9,3.9-10.7c4-1.8,14.6-4.9,16.5-0.8c0.9,2-1.4,3.9-3.4,7.1
		C1611.4,176.8,1610.1,179,1608.3,180.5z"/>
	<path class="st0" d="M1601.5,205.2c-0.2-4.6,0.2-8.6-2.6-11.7l0,0c0,0-0.1-0.1-0.1-0.1c0,0-0.1-0.1-0.1-0.1l0,0
		c-3-2.9-7-2.7-11.6-3c-6.8-0.4-12.3,0.8-14.5,4.6c-5.4,9.8,6.3,13.7,8.4,15.6c1.9,2.2,5.5,14,15.4,8.8
		C1600.3,217.5,1601.7,212,1601.5,205.2z"/>
</g>
<g>
	<path class="st0" d="M1675,77.3c-3.1,2.1-3.9,6.4-1.8,9.6s6.4,4,9.5,1.9s10.3-8.1,8.2-11.2c-1-1.5-4.4-1.7-7.6-1.6
		C1678.3,76.1,1676.6,76.3,1675,77.3z"/>
	<path class="st0" d="M1674.5,59.6c-2.9,3.3-0.2,8.7,3.9,10.7c4,2,8.9,0.3,10.8-3.6s5.3-14.5,1.2-16.4c-2-0.9-3.9,1.3-7.2,3.3
		C1678.3,56.6,1676.1,57.8,1674.5,59.6z"/>
	<path class="st0" d="M1653.3,55c-2.2,3.1-6.5,3.7-9.6,1.5c-3.1-2.2-3.8-6.5-1.6-9.6c2.2-3.1,8.3-10.1,11.4-7.9
		c1.5,1.1,1.5,4.4,1.4,7.6C1654.6,51.7,1654.4,53.4,1653.3,55z"/>
	<path class="st0" d="M1671,56c-3.4,2.8-8.7-0.1-10.6-4.2s-0.1-8.9,3.9-10.7s14.6-4.9,16.5-0.8c0.9,2-1.4,3.9-3.4,7.1
		C1674.1,52.3,1672.8,54.4,1671,56z"/>
	<path class="st0" d="M1664.2,80.7c-0.2-4.6,0.2-8.6-2.6-11.7l0,0c0,0-0.1-0.1-0.1-0.1c0,0-0.1-0.1-0.1-0.1l0,0c-3-2.9-7-2.7-11.6-3
		c-6.8-0.4-12.3,0.8-14.5,4.6c-5.4,9.8,6.3,13.7,8.4,15.6c1.9,2.2,5.5,14,15.4,8.8C1663,93,1664.4,87.5,1664.2,80.7z"/>
</g>
<g>
	<path class="st0" d="M1774.9,39.1c-3.1,2.1-3.9,6.4-1.8,9.6c2.1,3.1,6.4,4,9.5,1.9s10.3-8.1,8.2-11.2c-1-1.5-4.4-1.7-7.6-1.6
		C1778.2,37.9,1776.5,38,1774.9,39.1z"/>
	<path class="st0" d="M1774.4,21.4c-2.9,3.3-0.2,8.7,3.9,10.7c4,2,8.9,0.3,10.8-3.6c1.9-3.9,5.3-14.5,1.2-16.4
		c-2-0.9-3.9,1.3-7.2,3.3C1778.1,18.3,1776,19.6,1774.4,21.4z"/>
	<path class="st0" d="M1753.1,16.7c-2.2,3.1-6.5,3.7-9.6,1.5s-3.8-6.5-1.6-9.6c2.2-3.1,8.3-10.1,11.4-7.9c1.5,1.1,1.5,4.4,1.4,7.6
		C1754.4,13.5,1754.2,15.2,1753.1,16.7z"/>
	<path class="st0" d="M1770.8,17.7c-3.4,2.8-8.7-0.1-10.6-4.2c-1.8-4.1-0.1-8.9,3.9-10.7c4-1.8,14.6-4.9,16.5-0.8
		c0.9,2-1.4,3.9-3.4,7.1C1774,14.1,1772.6,16.2,1770.8,17.7z"/>
	<path class="st0" d="M1764.1,42.4c-0.2-4.6,0.2-8.6-2.6-11.7l0,0c0,0-0.1-0.1-0.1-0.1c0,0-0.1-0.1-0.1-0.1l0,0c-3-2.9-7-2.7-11.6-3
		c-6.8-0.4-12.3,0.8-14.5,4.6c-5.4,9.8,6.3,13.7,8.4,15.6c1.9,2.2,5.5,14,15.4,8.8C1762.9,54.7,1764.3,49.2,1764.1,42.4z"/>
</g>
</svg>
