<?xml version="1.0" encoding="utf-8"?>
<!-- Generator: Adobe Illustrator 20.0.0, SVG Export Plug-In . SVG Version: 6.00 Build 0)  -->
<svg version="1.1" xmlns="http://www.w3.org/2000/svg" xmlns:xlink="http://www.w3.org/1999/xlink" x="0px" y="0px"
	 viewBox="0 0 720.3 688.4" style="enable-background:new 0 0 720.3 688.4;" xml:space="preserve">
<style type="text/css">
	.st0{display:none;}
	.st1{fill:#E6E7E8;}
	.st2{fill:#F5F0A1;}
	.st3{fill:#F2AC8C;}
	.st4{fill:#E59F83;}
	.st5{fill:#683E44;}
	.st6{fill:#7A474C;}
	.st7{opacity:0.75;}
	.st8{fill:none;stroke:#7A474C;stroke-width:6;stroke-linecap:round;stroke-linejoin:round;stroke-miterlimit:10;}
	.st9{fill:none;stroke:#082630;stroke-width:6;stroke-linecap:round;stroke-linejoin:round;stroke-miterlimit:10;}
	.st10{fill:none;stroke:#E59F83;stroke-width:6;stroke-linecap:round;stroke-linejoin:round;stroke-miterlimit:10;}
	.st11{clip-path:url(#SVGID_2_);fill:#192425;}
	.st12{clip-path:url(#SVGID_2_);fill:#FFFFFF;}
	.st13{clip-path:url(#SVGID_2_);fill:#FF5959;}
	.st14{fill:#9BE7D8;}
	.st15{fill:#F79968;}
	.st16{fill:none;stroke:#DB7252;stroke-width:6;stroke-linecap:round;stroke-linejoin:round;stroke-miterlimit:10;}
	.st17{fill:#ED8E64;}
	.st18{fill:#0A1518;}
	.st19{fill:#E57C56;}
	.st20{fill:#082630;}
	.st21{clip-path:url(#SVGID_4_);fill:#192425;}
	.st22{clip-path:url(#SVGID_4_);fill:#FFFFFF;}
	.st23{clip-path:url(#SVGID_4_);fill:#FF5959;}
	.st24{fill:#87C1B6;}
	.st25{fill:#999A9D;}
	.st26{fill:#D2D4D6;}
	.st27{fill:#EFBAB9;}
	.st28{fill:#FFFFFF;stroke:#4A494A;stroke-width:4;stroke-linecap:round;stroke-linejoin:round;stroke-miterlimit:10;}
	.st29{fill:#FBA919;}
	.st30{fill:#E89923;}
	.st31{fill:#8D8D8E;}
	.st32{fill:#8B8B8C;}
	.st33{fill:none;stroke:#4A494A;stroke-width:4;stroke-linecap:round;stroke-linejoin:round;stroke-miterlimit:10;}
	.st34{fill:#46C7ED;}
	.st35{fill:#4A494A;}
	.st36{fill:#F0876E;}
	.st37{clip-path:url(#SVGID_6_);fill:#F0876E;}
	.st38{clip-path:url(#SVGID_6_);}
	.st39{fill:none;stroke:#D87360;stroke-width:4;stroke-linecap:round;stroke-linejoin:round;stroke-miterlimit:10;}
	.st40{fill:none;stroke:#BBBBBC;stroke-width:4;stroke-linecap:round;stroke-linejoin:round;stroke-miterlimit:10;}
	.st41{display:inline;fill:#F4F0F7;}
	.st42{display:inline;}
	.st43{clip-path:url(#SVGID_8_);fill:#F4F0F7;}
	.st44{clip-path:url(#SVGID_8_);}
	.st45{clip-path:url(#SVGID_8_);fill:#87C1B6;}
	.st46{clip-path:url(#SVGID_8_);fill:#4EC1B3;}
	.st47{clip-path:url(#SVGID_8_);fill:#F79968;}
	.st48{display:inline;fill:#F2AC8C;}
	.st49{display:inline;fill:none;stroke:#E59F83;stroke-width:6;stroke-linecap:round;stroke-linejoin:round;stroke-miterlimit:10;}
	.st50{clip-path:url(#SVGID_10_);fill:#192425;}
	.st51{clip-path:url(#SVGID_10_);fill:#FFFFFF;}
	.st52{clip-path:url(#SVGID_10_);fill:#FF5959;}
	.st53{clip-path:url(#SVGID_12_);fill:#192425;}
	.st54{clip-path:url(#SVGID_12_);fill:#FFFFFF;}
	.st55{clip-path:url(#SVGID_12_);fill:#FF5959;}
	.st56{display:inline;fill:#ED8E64;}
	.st57{clip-path:url(#SVGID_14_);fill:#F0876E;}
	.st58{clip-path:url(#SVGID_14_);}
	.st59{fill:#BCBEC0;}
	.st60{fill:#696C73;}
	.st61{fill:#FFFFFF;}
	.st62{fill:#7EBC4B;}
	.st63{fill:#404B50;}
	.st64{fill:#F1F2F2;}
	.st65{fill:#6BAD44;}
	.st66{font-family:'Gotham-Book';}
	.st67{font-size:2.2224px;}
	.st68{fill:#929292;}
	.st69{fill-rule:evenodd;clip-rule:evenodd;fill:#6AAC44;}
	.st70{fill-rule:evenodd;clip-rule:evenodd;fill:#929292;}
	.st71{fill:#9498A3;}
</style>
<g id="Layer_6" class="st0">
</g>
<g id="circle">
</g>
<g id="girl">
	<g>
		<path class="st1" d="M468.1,283.3v-22c0-0.2,0-0.5,0-0.7L468.1,283.3L468.1,283.3z"/>
		<g>
			<g>
				<path class="st2" d="M653.4,445.7H482.2v242.7H649V520.4h48.3v-30.8C697.3,465.3,677.7,445.7,653.4,445.7z"/>
				<rect x="649" y="520.4" class="st3" width="48.3" height="168.1"/>
			</g>
			<g>
				<path class="st3" d="M556.2,421v27.2c0,0-1.5,25,25,25s25-25,25-25V421H556.2z"/>
				<path class="st4" d="M581.2,433.9c-14.8,0-25-6.5-25-6.5V421c0,0,10.2,6.5,25,6.5h0c14.8,0,25-6.5,25-6.5v6.5
					C606.2,427.4,596,433.9,581.2,433.9"/>
			</g>
			<path class="st3" d="M492.7,186.9c-6.2,0-11.3,5.1-11.3,11.3v142c0,7,2.2,13.8,6.2,19.4C502.1,380,540,427,581.2,427
				s79.1-47,93.6-67.3c4-5.7,6.2-12.5,6.2-19.4v-142c0-6.2-5.1-11.3-11.3-11.3H492.7z"/>
			<g>
				<path class="st4" d="M680.9,272.7h10.6c9.5,0,16.9,8.3,15.9,17.7c-1.9,17.4-7.8,41.5-26.5,41.5V272.7z"/>
				<path class="st4" d="M481.4,272.7h-10.6c-9.5,0-16.9,8.3-15.9,17.7c1.9,17.4,7.8,41.5,26.5,41.5V272.7z"/>
			</g>
			<g>
				<path class="st5" d="M535,188.8c2.5,5,2.5,10.9-0.2,15.8c-13.9,25.6-34.4,33.6-45.5,36.1c-4.7,1.1-8,5.2-8,10v35.8
					c0,0-45.3-16.4-45.3-78.3c0-90.7,66.9-100.1,83.8-101c1.9-0.1,3.5,1.6,3.2,3.5C521.3,121.5,518.4,155.2,535,188.8z"/>
				<path class="st6" d="M720.3,156.2c0-120.7-199.5-126.2-199.5-35.5c0,92,48.3,108.4,86.5,108.4c36.6,0,70.7-12.4,73.6,51.2
					c-4.9,0.9-22.2,5.5-22.2,28.2c0,5.1,0.4,9.8,0.7,13.9c1.1,14.2,1.9,23.6-13.2,38.7c-1.6,1.6-1.6,4.2,0,5.8
					c0.8,0.8,1.8,1.2,2.9,1.2c1,0,2.1-0.4,2.9-1.2c17.7-17.7,16.7-29.8,15.5-45.1c-0.3-4.1-0.7-8.4-0.7-13.2
					c0-18.1,14.9-20,16.6-20.2c0.9-0.1,1.6-0.4,2.3-0.9C695.7,281.4,720.3,254,720.3,156.2z"/>
				<g class="st7">
					<path class="st5" d="M547.4,120.7c0-36.8,32.9-57.8,71.9-61.6c-49.5-4.7-98.6,16.6-98.6,61.6c0,92,48.3,108.4,86.5,108.4
						c5.2,0,10.4-0.3,15.5-0.5C586.9,225.3,547.4,203.9,547.4,120.7z"/>
					<path class="st5" d="M667,308.5c0-18.1,14.9-20,16.6-20.2c0.9-0.1,1.6-0.4,2.3-0.9c3.5-2.1,8.8-6.9,14.2-16.6
						c4.7-8.3,4.7-18.4-0.1-26.6c-10.8-18.1-30.5-16.6-52.3-15.6c18.7,2.3,31.6,12.9,33.3,51.6c-4.9,0.9-22.2,5.5-22.2,28.2
						c0,5.1,0.4,9.8,0.7,13.9c1.1,14.2,1.9,23.6-13.2,38.7c-1.6,1.6-1.6,4.2,0,5.8c0.8,0.8,1.8,1.2,2.9,1.2c1,0,2.1-0.4,2.9-1.2
						c17.7-17.7,16.7-29.8,15.5-45.1C667.3,317.6,667,313.3,667,308.5z"/>
				</g>
			</g>
			<g>
				<path class="st8" d="M613.3,244.8c11-11,28.8-11,39.8,0"/>
				<path class="st8" d="M509.2,244.8c11-11,28.8-11,39.8,0"/>
				<path class="st9" d="M514.6,290c0-8,6.5-14.5,14.5-14.5c8,0,14.5,6.5,14.5,14.5"/>
				<path class="st9" d="M618.7,290c0-8,6.5-14.5,14.5-14.5c8,0,14.5,6.5,14.5,14.5"/>
			</g>
			<path class="st10" d="M591.9,305.9l2.2,21.2c0,3.4-2.8,6.2-6.2,6.2h-15.1c-3.4,0-6.2-2.8-6.2-6.2l2.2-21.2"/>
			<g>
				<defs>
					<path id="SVGID_1_" d="M603,349.7c3.8,0,6.7,3.6,5.7,7.3c-3.3,12.5-14.7,21.8-28.3,21.8c-13.6,0-25.1-9.3-28.3-21.8
						c-1-3.7,1.9-7.3,5.7-7.3H603z"/>
				</defs>
				<clipPath id="SVGID_2_">
					<use xlink:href="#SVGID_1_"  style="overflow:visible;"/>
				</clipPath>
				<path class="st11" d="M603,349.7c3.8,0,6.7,3.6,5.7,7.3c-3.3,12.5-14.7,21.8-28.3,21.8c-13.6,0-25.1-9.3-28.3-21.8
					c-1-3.7,1.9-7.3,5.7-7.3H603z"/>
				<path class="st12" d="M580.4,348.8h-30.9l1.4,5.2c0.5,1.8,2.2,3.1,4.1,3.1h25.4h25.4c1.9,0,3.6-1.3,4.1-3.1l1.4-5.2H580.4z"/>
				<circle class="st13" cx="580.7" cy="384.7" r="19"/>
			</g>
		</g>
	</g>
</g>
<g id="boy">
	<path class="st14" d="M420.7,457.4c0-25.5-20.7-46.2-46.2-46.2v92.4h46.2V457.4z"/>
	<rect x="374.5" y="503.6" class="st15" width="46.2" height="184.8"/>
	<g>
		<g>
			<g>
				<g>
					<rect x="179.8" y="411.2" class="st14" width="194.7" height="277.2"/>
					<g>
						<path class="st15" d="M244.9,384.2v34.4c0,0-1.9,31.7,31.7,31.7s31.7-31.7,31.7-31.7v-34.4H244.9z"/>
						<path class="st16" d="M287.1,411.2c-5.9,5.9-15.4,5.9-21.3,0"/>
						<path class="st17" d="M276.5,400.6c-18.7,0-31.7-8.2-31.7-8.2v-8.2c0,0,12.9,8.2,31.7,8.2h0c18.7,0,31.7-8.2,31.7-8.2v8.2
							C308.2,392.4,295.3,400.6,276.5,400.6"/>
					</g>
				</g>
				<g>
					<g>
						<path class="st15" d="M185.5,144.6c-6.5,0-11.7,5.2-11.7,11.7v147.1c0,7.2,2.2,14.2,6.4,20.1c15,21,54.2,69.7,96.9,69.7
							s81.9-48.7,96.9-69.7c4.2-5.9,6.4-12.9,6.4-20.1V156.3c0-6.5-5.2-11.7-11.7-11.7H185.5z"/>
						<path class="st18" d="M380.4,233.4v-77.1c0-6.5-5.2-11.7-11.7-11.7h10.5c7.9,0,13.9,7,12.7,14.8L380.4,233.4z"/>
						<path class="st19" d="M380.4,156.3c0,0-13.4,12.9-49.2,12.9s-58.1-24.6-58.1-24.6h106.1L380.4,156.3z"/>
						<path class="st20" d="M173.8,233.4v-77.1c0-6.5,5.2-11.7,11.7-11.7h87.7c15.2,9.3,32.1,19.9,59.3,19.9c94.9,0,89-75.3,89-75.3
							h-10.1c15.7-15.7,0-39.7,0-39.7C375.2,49.4,374,0,329.5,0s-64.7,17.8-64.7,17.8v-8c0,0-17.8,9.8-28.5,9.8c-0.7,0-1.4,0-2,0
							c-39.7,0.6-71.6,33.2-71.6,73v57.1c0,4.6,0.3,9.2,1,13.7L173.8,233.4z"/>
						<path class="st18" d="M185.5,144.6c-6.5,0-11.7,5.2-11.7,11.7c0-26,62-25.6,62-25.6c17,0,25.4,6.5,37.4,13.9L185.5,144.6z"/>
					</g>
					<g>
						<path class="st19" d="M380.4,233.4h10.9c9.9,0,17.5,8.5,16.5,18.3c-1.9,18.1-8.1,42.9-27.4,42.9V233.4z"/>
						<path class="st19" d="M173.8,233.4h-10.9c-9.9,0-17.5,8.5-16.5,18.3c1.9,18.1,8.1,42.9,27.4,42.9V233.4z"/>
					</g>
					<path class="st16" d="M262.3,252.5l-2.3,26c-0.3,3.6,2.5,6.7,6.2,6.7H288c3.6,0,6.5-3.1,6.2-6.7l-2.3-26"/>
					<g>
						<path class="st9" d="M312,193.6c10.6-10.6,27.8-10.6,38.5,0"/>
						<path class="st9" d="M203.8,193.6c10.6-10.6,27.8-10.6,38.5,0"/>
						<path class="st20" d="M211.6,237.3c-1.5,0-2.6-1.3-2.3-2.8c1.3-6.4,6.9-11.2,13.7-11.2c6.8,0,12.4,4.8,13.7,11.2
							c0.3,1.4-0.9,2.8-2.3,2.8H211.6z"/>
						<path class="st20" d="M319.9,237.3c-1.5,0-2.6-1.3-2.3-2.8c1.3-6.4,6.9-11.2,13.7-11.2s12.4,4.8,13.7,11.2
							c0.3,1.4-0.9,2.8-2.3,2.8H319.9z"/>
					</g>
					<g>
						<defs>
							<path id="SVGID_3_" d="M303.5,303.2c4.6,0,8,4.3,6.8,8.7c-3.9,15-17.6,26.1-33.9,26.1c-16.3,0-30-11.1-33.9-26.1
								c-1.1-4.4,2.2-8.7,6.8-8.7H303.5z"/>
						</defs>
						<clipPath id="SVGID_4_">
							<use xlink:href="#SVGID_3_"  style="overflow:visible;"/>
						</clipPath>
						<path class="st21" d="M303.5,303.2c4.6,0,8,4.3,6.8,8.7c-3.9,15-17.6,26.1-33.9,26.1c-16.3,0-30-11.1-33.9-26.1
							c-1.1-4.4,2.2-8.7,6.8-8.7H303.5z"/>
						<path class="st22" d="M276.4,302h-37l1.7,6.2c0.6,2.2,2.6,3.7,4.9,3.7h30.4h30.4c2.3,0,4.3-1.5,4.9-3.7l1.7-6.2H276.4z"/>
						<circle class="st23" cx="276.8" cy="345" r="22.7"/>
					</g>
				</g>
			</g>
		</g>
		<path class="st17" d="M328.9,372c-5,3.9-10.2,7.5-15.7,10.5v-34.3c0-12.4,10-22.4,22.4-22.4h7.1L328.9,372L328.9,372z"/>
	</g>
	<path class="st24" d="M313.2,411.2v112.2c0,0-0.3,20.6,13.5,34.4v130.7h20V411.2H313.2z"/>
</g>
<g id="lily">
	<g>
		<path class="st25" d="M453,618.6c0-19.2-15.7-34.6-34.9-34.3c-18.8,0.3-33.7,16.1-33.7,34.9v69.2h-46.5V543.8h161.7v144.6H453
			V618.6z"/>
		<path class="st26" d="M453,618.6c0-19-15.4-34.3-34.3-34.3s-34.3,15.4-34.3,34.3v69.8H453V618.6z"/>
		<g>
			<path class="st27" d="M498.3,543.8c0,0-14.2,35.9-80.3,35.9s-80.3-35.9-80.3-35.9H498.3z"/>
			<line class="st28" x1="418.1" y1="577.6" x2="418.1" y2="594"/>
			<g>
				<circle class="st29" cx="418.1" cy="598" r="13.8"/>
				<circle class="st30" cx="418.1" cy="598" r="9.4"/>
			</g>
		</g>
		<path class="st25" d="M323.5,509.6v-56.4c0-4.9,1.9-9.6,5.4-13l52.2-52.2c4.4-4.4,10.5-6.9,16.8-6.9h41.5c6.3,0,12.3,2.5,16.8,6.9
			l52.2,52.2c3.5,3.5,5.4,8.1,5.4,13v56.4c0,26.6-21.5,48.1-48.1,48.1h-94.1C345,557.7,323.5,536.2,323.5,509.6z"/>
		<path class="st31" d="M494.5,325.9l-20.8,79.7l0,0L456.2,388c-4.4-4.4-10.5-6.9-16.8-6.9C439.4,381,475.3,325.9,494.5,325.9z"/>
		<path class="st26" d="M473.8,405.6l34.6,34.6c3.5,3.5,5.4,8.1,5.4,13V345.2c0-10.6-8.6-19.3-19.3-19.3l0,0L473.8,405.6z"/>
		<path class="st31" d="M342.8,325.9l20.8,79.7l0,0l17.6-17.6c4.4-4.4,10.5-6.9,16.8-6.9C397.9,381,362,325.9,342.8,325.9z"/>
		<path class="st26" d="M363.5,405.6l-34.6,34.6c-3.5,3.5-5.4,8.1-5.4,13V345.2c0-10.6,8.6-19.3,19.3-19.3h0L363.5,405.6z"/>
		<g>
			<path class="st25" d="M379.6,557.7c8.6-12.9,12-34.4,39-34.4s30.4,21.5,39,34.4l0,0c0,0-11.8-1.1-19.8,6.8s-13.6,9.8-19.3,9.8
				c-5.7,0-11.3-1.9-19.3-9.8S379.6,557.7,379.6,557.7L379.6,557.7z"/>
			<g>
				<polygon class="st32" points="457.7,557.7 457.7,557.7 457.7,557.7 				"/>
				<polygon class="st32" points="379.6,557.7 379.6,557.7 379.6,557.7 				"/>
				<path class="st32" d="M418.6,523.4c-27,0-30.4,21.5-39,34.4c0,0,2.7-0.3,6.3,0.3c2.2-4.2,4.5-8.4,7.6-12.1
					c1-1.1,2.9-0.9,3.4,0.5c3.2,8.3,11.2,13.2,20.8,13.5c10.4,0.4,19.3-4.5,22.6-13.3c0.5-1.5,2.4-1.8,3.4-0.6
					c3.1,3.6,5.4,7.8,7.5,12c3.6-0.6,6.3-0.3,6.3-0.3C449.1,544.9,445.6,523.4,418.6,523.4z"/>
			</g>
		</g>
		<line class="st33" x1="363.5" y1="440.7" x2="474.9" y2="440.7"/>
		<line class="st33" x1="384.3" y1="422.6" x2="453" y2="422.6"/>
		<path class="st34" d="M337.8,582.9c0,3.9,3.1,7,7,7s7-3.1,7-7v-3.5c0-3.9,3.1-7,7-7c3.9,0,7,3.1,7,7v11.7c0,3.9,3.1,7,7,7
			c3.9,0,7-3.1,7-7v-45.7h-41.8V582.9z"/>
		<path class="st35" d="M376.1,464.5c0-7.1-5.9-12.9-13.1-12.6c-6.8,0.2-12.2,6.1-12.2,12.9v4.9c0,1.4,1.1,2.6,2.6,2.6l0,0
			c1.4,0,2.6-1.1,2.6-2.6v-5c0-4.1,3.2-7.7,7.4-7.8c4.2-0.1,7.6,3.3,7.6,7.5v5.2c0,1.4,1.1,2.6,2.6,2.6h0c1.4,0,2.6-1.1,2.6-2.6
			V464.5z"/>
		<path class="st35" d="M487.5,464.5c0-7.1-5.9-12.9-13.1-12.6c-6.8,0.2-12.2,6.1-12.2,12.9v4.9c0,1.4,1.1,2.6,2.6,2.6l0,0
			c1.4,0,2.6-1.1,2.6-2.6v-5c0-4.1,3.2-7.7,7.4-7.8c4.2-0.1,7.6,3.3,7.6,7.5v5.2c0,1.4,1.1,2.6,2.6,2.6l0,0c1.4,0,2.6-1.1,2.6-2.6
			V464.5z"/>
		<path class="st36" d="M437.9,532.7c0,10.6-8.6,19.3-19.3,19.3c-10.6,0-19.3-8.6-19.3-19.3v-11.1h38.5V532.7z"/>
		<g>
			<g>
				<defs>
					<path id="SVGID_5_" d="M437.9,475.4c0,10.6-8.6,19.3-19.3,19.3c-10.6,0-19.3-8.6-19.3-19.3H437.9z"/>
				</defs>
				<clipPath id="SVGID_6_">
					<use xlink:href="#SVGID_5_"  style="overflow:visible;"/>
				</clipPath>
				<path class="st37" d="M437.9,475.4c0,10.6-8.6,19.3-19.3,19.3c-10.6,0-19.3-8.6-19.3-19.3H437.9z"/>
				<g class="st38">
					<path class="st39" d="M406.9,483h3.1c1.1,0,2,0.9,2,2v8.6"/>
					<path class="st39" d="M430.3,483h-3.1c-1.1,0-2,0.9-2,2v8.6"/>
				</g>
			</g>
			<path class="st26" d="M499.5,543.8c0-71.7-61.6-68.4-61.6-68.4c0,10.6-8.6,19.3-19.3,19.3c-10.6,0-19.3-8.6-19.3-19.3
				c0,0-61.6-3.3-61.6,68.4c0,0-0.3,23.4,25.7,23.4c26.1,0,16.6-43.8,55.1-43.8c38.5,0,29.1,43.8,55.1,43.8
				C499.8,567.2,499.5,543.8,499.5,543.8z"/>
			<g>
				<circle class="st35" cx="386.8" cy="510.9" r="2.5"/>
				<circle class="st35" cx="403" cy="510.9" r="2.5"/>
				<circle class="st35" cx="381.2" cy="499.6" r="2.5"/>
				<circle class="st35" cx="397.4" cy="499.6" r="2.5"/>
			</g>
			<g>
				<circle class="st35" cx="450.5" cy="510.9" r="2.5"/>
				<circle class="st35" cx="434.3" cy="510.9" r="2.5"/>
				<circle class="st35" cx="456.1" cy="499.6" r="2.5"/>
				<circle class="st35" cx="439.9" cy="499.6" r="2.5"/>
			</g>
			<line class="st40" x1="418.6" y1="520.4" x2="418.6" y2="497.7"/>
		</g>
	</g>
</g>
<g id="everything" class="st0">
	<circle class="st41" cx="2335.2" cy="353.6" r="295.1"/>
	<g class="st42">
		<defs>
			<circle id="SVGID_7_" cx="1656.4" cy="368.8" r="295.1"/>
		</defs>
		<clipPath id="SVGID_8_">
			<use xlink:href="#SVGID_7_"  style="overflow:visible;"/>
		</clipPath>
		<circle class="st43" cx="1656.4" cy="368.8" r="295.1"/>
		<g class="st44">
			<path class="st1" d="M1921.8,688.4V531v-30.8c0-24.2-19.6-43.9-43.9-43.9h-47.2v-18.2c0,0,0,0,0,0v-5.9
				c30.9-12.9,57.1-45.8,68.5-61.9c4-5.7,6.2-12.5,6.2-19.4v-8.4c18.6,0,24.6-24,26.5-41.5c0.8-7.1-3.2-13.5-9.3-16.3
				c10.5-16.6,22.2-50.5,22.2-117.9c0-77.7-82.6-107.6-141.5-95c0,0,0,0,0,0c-0.7,0.1-1.4,0.3-2.1,0.5c0,0-0.1,0-0.1,0
				c-0.7,0.2-1.3,0.3-2,0.5c-0.1,0-0.1,0-0.2,0c-0.6,0.2-1.3,0.3-1.9,0.5c-0.1,0-0.2,0-0.2,0.1c-0.6,0.2-1.2,0.3-1.8,0.5
				c-0.1,0-0.2,0.1-0.3,0.1c-0.6,0.2-1.1,0.3-1.7,0.5c-0.1,0-0.2,0.1-0.4,0.1c-0.5,0.2-1.1,0.4-1.6,0.5c-0.1,0-0.3,0.1-0.4,0.2
				c-0.5,0.2-1,0.4-1.5,0.5c-0.2,0.1-0.3,0.1-0.5,0.2c-0.5,0.2-1,0.4-1.4,0.5c-0.2,0.1-0.4,0.1-0.6,0.2c-0.4,0.2-0.9,0.4-1.3,0.5
				c-0.2,0.1-0.4,0.2-0.6,0.3c-0.4,0.2-0.8,0.4-1.3,0.5c-0.2,0.1-0.4,0.2-0.7,0.3c-0.4,0.2-0.8,0.4-1.2,0.5
				c-0.2,0.1-0.5,0.2-0.7,0.3c-0.4,0.2-0.7,0.3-1.1,0.5c-0.3,0.1-0.5,0.3-0.8,0.4c-0.3,0.2-0.7,0.3-1,0.5c-0.3,0.1-0.5,0.3-0.8,0.4
				c-0.3,0.2-0.6,0.3-0.9,0.5c-0.3,0.2-0.6,0.3-0.9,0.5c-0.3,0.2-0.6,0.3-0.9,0.5c-0.3,0.2-0.6,0.4-0.9,0.5
				c-0.3,0.2-0.5,0.3-0.8,0.5c-0.3,0.2-0.6,0.4-0.9,0.6c-0.2,0.2-0.5,0.3-0.7,0.5c-0.3,0.2-0.6,0.4-1,0.6c-0.2,0.1-0.4,0.3-0.6,0.4
				c-0.3,0.2-0.7,0.5-1,0.7c-0.2,0.1-0.4,0.3-0.6,0.4c-0.3,0.2-0.7,0.5-1,0.8c-0.2,0.1-0.4,0.3-0.5,0.4c-0.3,0.3-0.7,0.5-1,0.8
				c-0.2,0.1-0.3,0.3-0.5,0.4c-0.3,0.3-0.7,0.6-1,0.9c-0.1,0.1-0.3,0.2-0.4,0.4c-0.3,0.3-0.7,0.6-1,0.9c-0.1,0.1-0.2,0.2-0.4,0.3
				c-0.3,0.3-0.7,0.7-1,1c-0.1,0.1-0.2,0.2-0.3,0.3c-0.3,0.3-0.7,0.7-1,1c-0.1,0.1-0.2,0.2-0.3,0.3c-0.3,0.4-0.7,0.7-1,1.1
				c-0.1,0.1-0.2,0.2-0.2,0.3c-0.3,0.4-0.7,0.8-1,1.2c-0.1,0.1-0.1,0.2-0.2,0.2c-0.3,0.4-0.7,0.8-1,1.2c-0.1,0.1-0.1,0.1-0.2,0.2
				c-0.3,0.4-0.6,0.9-0.9,1.3c-0.1,0.1-0.1,0.1-0.2,0.2c-0.3,0.4-0.6,0.9-0.9,1.3c0,0.1-0.1,0.1-0.1,0.2c-0.3,0.5-0.6,0.9-0.9,1.4
				c0,0.1-0.1,0.1-0.1,0.2c-0.3,0.5-0.6,1-0.8,1.4c0,0.1-0.1,0.1-0.1,0.2c-0.3,0.5-0.5,1-0.8,1.5c0,0,0,0.1-0.1,0.1
				c-0.3,0.5-0.5,1-0.8,1.6c0,0,0,0.1-0.1,0.1c-0.2,0.5-0.5,1.1-0.7,1.6c0,0,0,0.1,0,0.1c-0.2,0.5-0.5,1.1-0.7,1.7c0,0,0,0.1,0,0.1
				c-0.2,0.6-0.4,1.1-0.6,1.7c0,0,0,0,0,0.1c-0.2,0.6-0.4,1.2-0.6,1.7c0,0,0,0.1,0,0.1c-0.2,0.6-0.3,1.2-0.5,1.8c0,0,0,0,0,0
				c-0.1,0.4-0.2,0.9-0.3,1.3c-0.6-0.6-1.4-0.9-2.3-0.9c-16.9,0.9-83.8,10.3-83.8,101c0,34.9,14.4,55.4,27,66.6
				c-5.4,3-8.8,9-8.1,15.7c1.9,17.4,7.8,41.5,26.5,41.5v8.4c0,7,2.2,13.8,6.2,19.4c11.5,16.1,37.7,49,68.5,61.9v24.1h-73.9v232.1
				L1921.8,688.4z M1705.9,283.3v-22c0-0.2,0-0.5,0-0.7L1705.9,283.3L1705.9,283.3z"/>
			<g>
				<g>
					<path class="st2" d="M1891.2,445.7H1720v242.7h166.8V520.4h48.3v-30.8C1935.1,465.3,1915.4,445.7,1891.2,445.7z"/>
					<rect x="1886.8" y="520.4" class="st3" width="48.3" height="168.1"/>
				</g>
			</g>
		</g>
		<g class="st44">
			<path class="st1" d="M1609.6,233.4h-10.9l11.5-74.1c0.5-3.2-0.3-6.3-1.8-8.8c34.5-21.8,31.4-61.4,31.4-61.4h-10.1
				c15.7-15.7,0-39.7,0-39.7c-36.2,0-37.4-49.4-81.8-49.4s-64.7,17.8-64.7,17.8v-8c0,0-17.8,9.8-28.5,9.8c-0.7,0-1.4,0-2,0
				c-39.7,0.6-71.6,33.2-71.6,73v57.1c0,4.6,0.3,9.2,1,13.7l10,70v-77.1c0-6.5,5.2-11.7,11.7-11.7h0c-6.5,0-11.7,5.2-11.7,11.7v77.1
				h0h-10.9c-9.9,0-17.5,8.6-16.5,18.4c1.9,18.1,8.1,42.9,27.4,42.9v8.7c0,7.2,2.2,14.2,6.4,20.1c11.1,15.6,35.5,46.2,64.6,61.1
				v26.6h-42.6c-12.4,0-29.5,10.1-29.5,22.5v254.7h201.7V411.2h-66.3v-18.8c0,0,0,0,0,0v-7.2c29.7-14.7,54.6-46,65.8-61.7
				c4.2-5.9,6.4-12.9,6.4-20.1v-8.7c19.3,0,25.5-24.9,27.4-42.9C1627.2,242,1619.5,233.4,1609.6,233.4z"/>
			<g>
				<rect x="1417.5" y="411.2" class="st14" width="194.7" height="277.2"/>
			</g>
		</g>
		<path class="st45" d="M1551,411.2v112.2c0,0-0.3,20.6,13.5,34.4v101.1h20V411.2H1551z"/>
		<path class="st46" d="M1658.5,457.4c0-25.5-20.7-46.2-46.2-46.2v92.4h46.2V457.4z"/>
		<rect x="1612.3" y="503.6" class="st47" width="46.2" height="184.8"/>
		<g class="st44">
			<path class="st25" d="M1690.8,618.6c0-19.2-15.7-34.6-34.9-34.3c-18.8,0.3-33.7,16.1-33.7,34.9v101.7h-46.5v-177h161.7v177h-46.5
				V618.6z"/>
			<path class="st31" d="M1622.1,696.7c0,0,13.9,24.2,68.7,24.2V618.6c0-19-15.4-34.3-34.3-34.3s-34.3,15.4-34.3,34.3V696.7z"/>
			<path class="st26" d="M1622.1,665.3c0,0,13.9,31,68.7,31v-77.7c0-19-15.4-34.3-34.3-34.3s-34.3,15.4-34.3,34.3V665.3z"/>
			<g>
				<path class="st27" d="M1736.1,543.8c0,0-14.2,35.9-80.3,35.9c-66.1,0-80.3-35.9-80.3-35.9H1736.1z"/>
				<line class="st28" x1="1655.8" y1="577.6" x2="1655.8" y2="594"/>
				<g>
					<circle class="st29" cx="1655.8" cy="598" r="13.8"/>
					<circle class="st30" cx="1655.8" cy="598" r="9.4"/>
				</g>
			</g>
		</g>
	</g>
</g>
<g id="girlhead" class="st0">
	<g class="st42">
		<path class="st3" d="M1794,421v27.2c0,0-1.5,25,25,25s25-25,25-25V421H1794z"/>
		<path class="st4" d="M1819,433.9c-14.8,0-25-6.5-25-6.5V421c0,0,10.2,6.5,25,6.5h0c14.8,0,25-6.5,25-6.5v6.5
			C1844,427.4,1833.8,433.9,1819,433.9"/>
	</g>
	<path class="st48" d="M1730.5,186.9c-6.2,0-11.3,5.1-11.3,11.3v142c0,7,2.2,13.8,6.2,19.4c14.5,20.3,52.4,67.3,93.6,67.3
		s79.1-47,93.6-67.3c4-5.7,6.2-12.5,6.2-19.4v-142c0-6.2-5.1-11.3-11.3-11.3H1730.5z"/>
	<g class="st42">
		<path class="st4" d="M1918.7,272.7h10.6c9.5,0,16.9,8.3,15.9,17.7c-1.9,17.4-7.8,41.5-26.5,41.5V272.7z"/>
		<path class="st4" d="M1719.2,272.7h-10.6c-9.5,0-16.9,8.3-15.9,17.7c1.9,17.4,7.8,41.5,26.5,41.5V272.7z"/>
	</g>
	<g class="st42">
		<path class="st5" d="M1772.8,188.8c2.5,5,2.5,10.9-0.2,15.8c-13.9,25.6-34.4,33.6-45.5,36.1c-4.7,1.1-8,5.2-8,10v35.8
			c0,0-45.3-16.4-45.3-78.3c0-90.7,66.9-100.1,83.8-101c1.9-0.1,3.5,1.6,3.2,3.5C1759.1,121.5,1756.1,155.2,1772.8,188.8z"/>
		<path class="st6" d="M1958.1,156.2c0-120.7-199.5-126.2-199.5-35.5c0,92,48.3,108.4,86.5,108.4c36.6,0,70.7-12.4,73.6,51.2
			c-4.9,0.9-22.2,5.5-22.2,28.2c0,5.1,0.4,9.8,0.7,13.9c1.1,14.2,1.9,23.6-13.2,38.7c-1.6,1.6-1.6,4.2,0,5.8
			c0.8,0.8,1.8,1.2,2.9,1.2c1,0,2.1-0.4,2.9-1.2c17.7-17.7,16.7-29.8,15.5-45.1c-0.3-4.1-0.7-8.4-0.7-13.2c0-18.1,14.9-20,16.6-20.2
			c0.9-0.1,1.6-0.4,2.3-0.9C1933.5,281.4,1958.1,254,1958.1,156.2z"/>
		<g class="st7">
			<path class="st5" d="M1785.2,120.7c0-36.8,32.9-57.8,71.9-61.6c-49.5-4.7-98.6,16.6-98.6,61.6c0,92,48.3,108.4,86.5,108.4
				c5.2,0,10.4-0.3,15.5-0.5C1824.7,225.3,1785.2,203.9,1785.2,120.7z"/>
			<path class="st5" d="M1904.8,308.5c0-18.1,14.9-20,16.6-20.2c0.9-0.1,1.6-0.4,2.3-0.9c3.5-2.1,8.8-6.9,14.2-16.6
				c4.7-8.3,4.7-18.4-0.1-26.6c-10.8-18.1-30.5-16.6-52.3-15.6c18.7,2.3,31.6,12.9,33.3,51.6c-4.9,0.9-22.2,5.5-22.2,28.2
				c0,5.1,0.4,9.8,0.7,13.9c1.1,14.2,1.9,23.6-13.2,38.7c-1.6,1.6-1.6,4.2,0,5.8c0.8,0.8,1.8,1.2,2.9,1.2c1,0,2.1-0.4,2.9-1.2
				c17.7-17.7,16.7-29.8,15.5-45.1C1905.1,317.6,1904.8,313.3,1904.8,308.5z"/>
		</g>
	</g>
	<g class="st42">
		<path class="st8" d="M1851.1,244.8c11-11,28.8-11,39.8,0"/>
		<path class="st8" d="M1747,244.8c11-11,28.8-11,39.8,0"/>
		<path class="st9" d="M1752.4,290c0-8,6.5-14.5,14.5-14.5s14.5,6.5,14.5,14.5"/>
		<path class="st9" d="M1856.5,290c0-8,6.5-14.5,14.5-14.5s14.5,6.5,14.5,14.5"/>
	</g>
	<path class="st49" d="M1829.7,305.9l2.2,21.2c0,3.4-2.8,6.2-6.2,6.2h-15.1c-3.4,0-6.2-2.8-6.2-6.2l2.2-21.2"/>
	<g class="st42">
		<defs>
			<path id="SVGID_9_" d="M1840.8,349.7c3.8,0,6.7,3.6,5.7,7.3c-3.3,12.5-14.7,21.8-28.3,21.8c-13.6,0-25.1-9.3-28.3-21.8
				c-1-3.7,1.9-7.3,5.7-7.3H1840.8z"/>
		</defs>
		<clipPath id="SVGID_10_">
			<use xlink:href="#SVGID_9_"  style="overflow:visible;"/>
		</clipPath>
		<path class="st50" d="M1840.8,349.7c3.8,0,6.7,3.6,5.7,7.3c-3.3,12.5-14.7,21.8-28.3,21.8c-13.6,0-25.1-9.3-28.3-21.8
			c-1-3.7,1.9-7.3,5.7-7.3H1840.8z"/>
		<path class="st51" d="M1818.2,348.8h-30.9l1.4,5.2c0.5,1.8,2.2,3.1,4.1,3.1h25.4h25.4c1.9,0,3.6-1.3,4.1-3.1l1.4-5.2H1818.2z"/>
		<circle class="st52" cx="1818.5" cy="384.7" r="19"/>
	</g>
</g>
<g id="guyhead" class="st0">
	<g class="st42">
		<path class="st15" d="M1482.7,384.2v34.4c0,0-1.9,31.7,31.7,31.7s31.7-31.7,31.7-31.7v-34.4H1482.7z"/>
		<path class="st16" d="M1524.9,411.2c-5.9,5.9-15.4,5.9-21.3,0"/>
		<path class="st17" d="M1514.3,400.6c-18.7,0-31.7-8.2-31.7-8.2v-8.2c0,0,12.9,8.2,31.7,8.2h0c18.7,0,31.7-8.2,31.7-8.2v8.2
			C1546,392.4,1533.1,400.6,1514.3,400.6"/>
	</g>
	<g class="st42">
		<g>
			<path class="st15" d="M1423.3,144.6c-6.5,0-11.7,5.2-11.7,11.7v147.1c0,7.2,2.2,14.2,6.4,20.1c15,21,54.2,69.7,96.9,69.7
				c42.6,0,81.9-48.7,96.9-69.7c4.2-5.9,6.4-12.9,6.4-20.1V156.3c0-6.5-5.2-11.7-11.7-11.7H1423.3z"/>
			<path class="st18" d="M1618.2,233.4v-77.1c0-6.5-5.2-11.7-11.7-11.7h10.5c7.9,0,13.9,7,12.7,14.8L1618.2,233.4z"/>
			<path class="st19" d="M1618.2,156.3c0,0-13.4,12.9-49.2,12.9s-58.1-24.6-58.1-24.6H1617L1618.2,156.3z"/>
			<path class="st20" d="M1411.6,233.4v-77.1c0-6.5,5.2-11.7,11.7-11.7h87.7c15.2,9.3,32.1,19.9,59.3,19.9c94.9,0,89-75.3,89-75.3
				h-10.1c15.7-15.7,0-39.7,0-39.7c-36.2,0-37.4-49.4-81.8-49.4s-64.7,17.8-64.7,17.8v-8c0,0-17.8,9.8-28.5,9.8c-0.7,0-1.4,0-2,0
				c-39.7,0.6-71.6,33.2-71.6,73v57.1c0,4.6,0.3,9.2,1,13.7L1411.6,233.4z"/>
			<path class="st18" d="M1423.3,144.6c-6.5,0-11.7,5.2-11.7,11.7c0-26,62-25.6,62-25.6c17,0,25.4,6.5,37.4,13.9L1423.3,144.6z"/>
		</g>
		<g>
			<path class="st19" d="M1618.2,233.4h10.9c9.9,0,17.5,8.5,16.5,18.3c-1.9,18.1-8.1,42.9-27.4,42.9V233.4z"/>
			<path class="st19" d="M1411.6,233.4h-10.9c-9.9,0-17.5,8.5-16.5,18.3c1.9,18.1,8.1,42.9,27.4,42.9V233.4z"/>
		</g>
		<path class="st16" d="M1500.1,252.5l-2.3,26c-0.3,3.6,2.5,6.7,6.2,6.7h21.8c3.6,0,6.5-3.1,6.2-6.7l-2.3-26"/>
		<g>
			<path class="st9" d="M1549.8,193.6c10.6-10.6,27.8-10.6,38.5,0"/>
			<path class="st9" d="M1441.5,193.6c10.6-10.6,27.8-10.6,38.5,0"/>
			<path class="st20" d="M1449.4,237.3c-1.5,0-2.6-1.3-2.3-2.8c1.3-6.4,6.9-11.2,13.7-11.2c6.8,0,12.4,4.8,13.7,11.2
				c0.3,1.4-0.9,2.8-2.3,2.8H1449.4z"/>
			<path class="st20" d="M1557.7,237.3c-1.5,0-2.6-1.3-2.3-2.8c1.3-6.4,6.9-11.2,13.7-11.2c6.8,0,12.4,4.8,13.7,11.2
				c0.3,1.4-0.9,2.8-2.3,2.8H1557.7z"/>
		</g>
		<g>
			<defs>
				<path id="SVGID_11_" d="M1541.3,303.2c4.6,0,8,4.3,6.8,8.7c-3.9,15-17.6,26.1-33.9,26.1s-30-11.1-33.9-26.1
					c-1.1-4.4,2.2-8.7,6.8-8.7H1541.3z"/>
			</defs>
			<clipPath id="SVGID_12_">
				<use xlink:href="#SVGID_11_"  style="overflow:visible;"/>
			</clipPath>
			<path class="st53" d="M1541.3,303.2c4.6,0,8,4.3,6.8,8.7c-3.9,15-17.6,26.1-33.9,26.1s-30-11.1-33.9-26.1
				c-1.1-4.4,2.2-8.7,6.8-8.7H1541.3z"/>
			<path class="st54" d="M1514.2,302h-37l1.7,6.2c0.6,2.2,2.6,3.7,4.9,3.7h30.4h30.4c2.3,0,4.3-1.5,4.9-3.7l1.7-6.2H1514.2z"/>
			<circle class="st55" cx="1514.6" cy="345" r="22.7"/>
		</g>
	</g>
	<path class="st56" d="M1566.7,372c-5,3.9-10.2,7.5-15.7,10.5v-34.3c0-12.4,10-22.4,22.4-22.4h7.1L1566.7,372L1566.7,372z"/>
</g>
<g id="doghead" class="st0">
	<g class="st42">
		<path class="st25" d="M1561.3,509.6v-56.4c0-4.9,1.9-9.6,5.4-13l52.2-52.2c4.4-4.4,10.5-6.9,16.8-6.9h41.5
			c6.3,0,12.3,2.5,16.8,6.9l52.2,52.2c3.5,3.5,5.4,8.1,5.4,13v56.4c0,26.6-21.5,48.1-48.1,48.1h-94.1
			C1582.8,557.7,1561.3,536.2,1561.3,509.6z"/>
		<path class="st31" d="M1732.3,325.9l-20.8,79.7l0,0L1694,388c-4.4-4.4-10.5-6.9-16.8-6.9C1677.2,381,1713.1,325.9,1732.3,325.9z"
			/>
		<path class="st26" d="M1711.6,405.6l34.6,34.6c3.5,3.5,5.4,8.1,5.4,13V345.2c0-10.6-8.6-19.3-19.3-19.3l0,0L1711.6,405.6z"/>
		<path class="st31" d="M1580.5,325.9l20.8,79.7l0,0l17.6-17.6c4.4-4.4,10.5-6.9,16.8-6.9C1635.7,381,1599.8,325.9,1580.5,325.9z"/>
		<path class="st26" d="M1601.3,405.6l-34.6,34.6c-3.5,3.5-5.4,8.1-5.4,13V345.2c0-10.6,8.6-19.3,19.3-19.3l0,0L1601.3,405.6z"/>
		<g>
			<path class="st25" d="M1617.4,557.7c8.6-12.9,12-34.4,39-34.4s30.4,21.5,39,34.4l0,0c0,0-11.8-1.1-19.8,6.8
				c-7.9,7.9-13.6,9.8-19.3,9.8c-5.7,0-11.3-1.9-19.3-9.8S1617.4,557.7,1617.4,557.7L1617.4,557.7z"/>
			<g>
				<polygon class="st32" points="1695.5,557.7 1695.5,557.7 1695.5,557.7 				"/>
				<polygon class="st32" points="1617.4,557.7 1617.4,557.7 1617.4,557.7 				"/>
				<path class="st32" d="M1656.4,523.4c-27,0-30.4,21.5-39,34.4c0,0,2.7-0.3,6.3,0.3c2.2-4.2,4.5-8.4,7.6-12.1
					c1-1.1,2.9-0.9,3.4,0.5c3.2,8.3,11.2,13.2,20.8,13.5c10.4,0.4,19.3-4.5,22.6-13.3c0.5-1.5,2.4-1.8,3.4-0.6
					c3.1,3.6,5.4,7.8,7.5,12c3.6-0.6,6.3-0.3,6.3-0.3C1686.9,544.9,1683.4,523.4,1656.4,523.4z"/>
			</g>
		</g>
		<line class="st33" x1="1601.3" y1="440.7" x2="1712.7" y2="440.7"/>
		<line class="st33" x1="1622.1" y1="422.6" x2="1690.8" y2="422.6"/>
		<path class="st34" d="M1575.6,582.9c0,3.9,3.1,7,7,7s7-3.1,7-7v-3.5c0-3.9,3.1-7,7-7s7,3.1,7,7v11.7c0,3.9,3.1,7,7,7s7-3.1,7-7
			v-45.7h-41.8V582.9z"/>
		<path class="st35" d="M1613.9,464.5c0-7.1-5.9-12.9-13.1-12.6c-6.8,0.2-12.2,6.1-12.2,12.9v4.9c0,1.4,1.1,2.6,2.6,2.6l0,0
			c1.4,0,2.6-1.1,2.6-2.6v-5c0-4.1,3.2-7.7,7.4-7.8c4.2-0.1,7.6,3.3,7.6,7.5v5.2c0,1.4,1.1,2.6,2.6,2.6l0,0c1.4,0,2.6-1.1,2.6-2.6
			V464.5z"/>
		<path class="st35" d="M1725.3,464.5c0-7.1-5.9-12.9-13.1-12.6c-6.8,0.2-12.2,6.1-12.2,12.9v4.9c0,1.4,1.1,2.6,2.6,2.6h0
			c1.4,0,2.6-1.1,2.6-2.6v-5c0-4.1,3.2-7.7,7.4-7.8c4.2-0.1,7.6,3.3,7.6,7.5v5.2c0,1.4,1.1,2.6,2.6,2.6l0,0c1.4,0,2.6-1.1,2.6-2.6
			V464.5z"/>
		<path class="st36" d="M1675.7,532.7c0,10.6-8.6,19.3-19.3,19.3c-10.6,0-19.3-8.6-19.3-19.3v-11.1h38.5V532.7z"/>
		<g>
			<g>
				<defs>
					<path id="SVGID_13_" d="M1675.7,475.4c0,10.6-8.6,19.3-19.3,19.3c-10.6,0-19.3-8.6-19.3-19.3H1675.7z"/>
				</defs>
				<clipPath id="SVGID_14_">
					<use xlink:href="#SVGID_13_"  style="overflow:visible;"/>
				</clipPath>
				<path class="st57" d="M1675.7,475.4c0,10.6-8.6,19.3-19.3,19.3c-10.6,0-19.3-8.6-19.3-19.3H1675.7z"/>
				<g class="st58">
					<path class="st39" d="M1644.7,483h3.1c1.1,0,2,0.9,2,2v8.6"/>
					<path class="st39" d="M1668.1,483h-3.1c-1.1,0-2,0.9-2,2v8.6"/>
				</g>
			</g>
			<path class="st26" d="M1737.3,543.8c0-71.7-61.6-68.4-61.6-68.4c0,10.6-8.6,19.3-19.3,19.3c-10.6,0-19.3-8.6-19.3-19.3
				c0,0-61.6-3.3-61.6,68.4c0,0-0.3,23.4,25.7,23.4s16.6-43.8,55.1-43.8c38.5,0,29.1,43.8,55.1,43.8S1737.3,543.8,1737.3,543.8z"/>
			<g>
				<circle class="st35" cx="1624.6" cy="510.9" r="2.5"/>
				<circle class="st35" cx="1640.8" cy="510.9" r="2.5"/>
				<circle class="st35" cx="1619" cy="499.6" r="2.5"/>
				<circle class="st35" cx="1635.2" cy="499.6" r="2.5"/>
			</g>
			<g>
				<circle class="st35" cx="1688.3" cy="510.9" r="2.5"/>
				<circle class="st35" cx="1672.1" cy="510.9" r="2.5"/>
				<circle class="st35" cx="1693.9" cy="499.6" r="2.5"/>
				<circle class="st35" cx="1677.7" cy="499.6" r="2.5"/>
			</g>
			<line class="st40" x1="1656.4" y1="520.4" x2="1656.4" y2="497.7"/>
		</g>
	</g>
</g>
<g id="arm">
	<g>
		<path class="st15" d="M179.8,411.2c-7.5-0.2-15,2.5-20.8,8.2L47,529.6c-11.2,11.1-11.4,29.1-0.3,40.4
			c11.1,11.2,29.1,11.4,40.4,0.3l92.7-91.3L179.8,411.2z"/>
		<g>
			<path class="st59" d="M29.9,396.8h-7.8c-2.4,0-4.4-2-4.4-4.4V254.5c0-2.7,2.1-4.8,4.8-4.8h7.4V396.8z"/>
		</g>
		<g>
			<path class="st1" d="M28.3,396.8h70.1c2.4,0,4.3-1.9,4.3-4.3V254c0-2.4-1.9-4.3-4.3-4.3H28.3c-2.4,0-4.3,1.9-4.3,4.3v138.5
				C24,394.8,25.9,396.8,28.3,396.8z"/>
		</g>
		<g>
			<circle class="st60" cx="63.4" cy="384.4" r="5.3"/>
		</g>
		<g>
			
				<rect x="29.9" y="274.9" transform="matrix(-1 4.490307e-11 -4.490307e-11 -1 125.7504 651.1148)" class="st61" width="65.9" height="101.3"/>
			<rect x="29.9" y="274.9" class="st62" width="65.9" height="8.6"/>
			<rect x="29.9" y="283.6" class="st63" width="65.9" height="6.7"/>
			
				<rect x="29.9" y="361.4" transform="matrix(-1 4.487731e-11 -4.487731e-11 -1 125.7679 737.593)" class="st64" width="65.9" height="14.8"/>
			<path class="st1" d="M43,308.1L43,308.1c-3,0-5.5-2.4-5.5-5.5l0,0c0-3,2.4-5.5,5.5-5.5h0c3,0,5.5,2.4,5.5,5.5l0,0
				C48.5,305.7,46,308.1,43,308.1z"/>
			<path class="st1" d="M43,331.7L43,331.7c-3,0-5.5-2.4-5.5-5.5l0,0c0-3,2.4-5.5,5.5-5.5h0c3,0,5.5,2.4,5.5,5.5l0,0
				C48.5,329.2,46,331.7,43,331.7z"/>
			<path class="st1" d="M43,354L43,354c-3,0-5.5-2.4-5.5-5.5v0c0-3,2.4-5.5,5.5-5.5h0c3,0,5.5,2.4,5.5,5.5v0
				C48.5,351.6,46,354,43,354z"/>
			<rect x="54" y="297.2" class="st1" width="33.2" height="4.9"/>
			<rect x="54" y="320.8" class="st1" width="33.2" height="4.9"/>
			<rect x="54" y="343.1" class="st1" width="33.2" height="4.9"/>
		</g>
		<g>
			<g>
				<path class="st15" d="M22.8,321c7,0,12.6,5.7,12.6,12.6c0,7-5.7,12.6-12.6,12.6H12.6c-7,0-12.6-5.7-12.6-12.6
					c0-7,5.7-12.6,12.6-12.6H22.8z"/>
			</g>
			<g>
				<path class="st15" d="M22.8,346.3c7,0,12.6,5.7,12.6,12.6c0,7-5.7,12.6-12.6,12.6h-8.2c-7,0-12.6-5.7-12.6-12.6
					c0-7,5.7-12.6,12.6-12.6H22.8z"/>
			</g>
			<g>
				<path class="st15" d="M22.8,371.5c7,0,12.6,5.7,12.6,12.6c0,7-5.7,12.6-12.6,12.6h-5.2c-7,0-12.6-5.7-12.6-12.6
					c0-7,5.7-12.6,12.6-12.6H22.8z"/>
			</g>
		</g>
		<g>
			<text transform="matrix(1 0 0 1 36.7436 373.0762)"><tspan x="0" y="0" class="st65 st66 st67">Hom</tspan><tspan x="5.4" y="0" class="st65 st66 st67">e</tspan></text>
			<text transform="matrix(1 0 0 1 57.6294 373.0762)"><tspan x="0" y="0" class="st68 st66 st67">A</tspan><tspan x="1.7" y="0" class="st68 st66 st67">c</tspan><tspan x="3" y="0" class="st68 st66 st67">c</tspan><tspan x="4.3" y="0" class="st68 st66 st67">oun</tspan><tspan x="8.6" y="0" class="st68 st66 st67">t</tspan></text>
			<text transform="matrix(1 0 0 1 78.314 373.0762)"><tspan x="0" y="0" class="st68 st66 st67">Y</tspan><tspan x="1.4" y="0" class="st68 st66 st67">our O</tspan><tspan x="7.8" y="0" class="st68 st66 st67">r</tspan><tspan x="8.7" y="0" class="st68 st66 st67">de</tspan><tspan x="11.6" y="0" class="st68 st66 st67">r</tspan></text>
			<path class="st69" d="M42.6,368C42.6,368,42.6,368,42.6,368c0,0-0.1,0-0.1,0l-2.4-2.4l-1.8,1.9l-0.6,0.6c0,0,0,0,0,0
				c0,0-0.1,0-0.1,0c0,0,0,0,0,0c0,0,0,0,0,0c0,0,0-0.1,0-0.1l2.5-2.5c0,0,0.1,0,0.1,0l2.5,2.5C42.7,367.9,42.7,367.9,42.6,368
				 M41.9,366.8C41.9,366.8,41.9,366.8,41.9,366.8C41.9,366.8,41.8,366.8,41.9,366.8l-1.1-1c0,0,0,0,0,0c0,0,0-0.1,0.1-0.1h1
				c0,0,0.1,0,0.1,0.1L41.9,366.8C42,366.7,41.9,366.8,41.9,366.8 M42,367.6v2.5h-1.2v-1.6h-1.2v1.6h-1.2v-2.5l1.8-1.9L42,367.6z"/>
			<path class="st70" d="M64.1,369.4c-0.5,0.5-1.1,0.7-1.7,0.7c-0.6,0-1.2-0.2-1.7-0.7c-0.4-0.4-0.7-1-0.7-1.7
				c0-1.3,1.1-2.4,2.4-2.4c1.3,0,2.4,1.1,2.4,2.4C64.8,368.4,64.5,369,64.1,369.4 M63.9,369.4c-0.2-0.1-0.5-0.2-0.8-0.3
				c-0.1,0-0.2-0.1-0.3-0.1c0,0-0.1,0-0.1-0.1v-0.5c0,0,0-0.1,0.1-0.1c0,0,0.2-0.1,0.2-0.5c0,0,0-0.1,0.1-0.1c0,0,0-0.1,0-0.1
				c0-0.1,0-0.1,0-0.1c0,0-0.1,0-0.1-0.1c0,0,0-0.1,0-0.1c0-0.1,0.1-0.4,0.1-0.6c0-0.1-0.3-0.2-0.6-0.2c-0.3,0-0.5,0.1-0.6,0.2
				c0,0-0.1,0.1-0.1,0.1c-0.1,0-0.1,0-0.2,0c-0.1,0.1,0,0.4,0,0.5c0,0.1,0,0.1,0,0.1c0,0,0,0.1-0.1,0.1c0,0,0,0.1,0,0.1
				c0,0.1,0,0.1,0,0.1c0,0,0.1,0,0.1,0.1c0,0.4,0.2,0.5,0.2,0.5c0,0,0.1,0,0.1,0.1v0.5c0,0,0,0.1-0.1,0.1c-0.1,0-0.2,0.1-0.3,0.1
				c-0.3,0.1-0.6,0.2-0.8,0.3c0.4,0.4,0.9,0.6,1.5,0.6C63,370,63.5,369.8,63.9,369.4 M62.4,365.6c-1.2,0-2.2,1-2.2,2.2
				c0,0.6,0.2,1.1,0.6,1.5c0.2-0.1,0.6-0.3,0.9-0.4c0.1,0,0.2-0.1,0.3-0.1v-0.4c-0.1-0.1-0.3-0.2-0.3-0.6c-0.1,0-0.1-0.1-0.1-0.3
				c0-0.1,0-0.2,0.1-0.2c0,0,0,0,0,0c0-0.2-0.1-0.5,0-0.6c0,0,0.1-0.1,0.3-0.1c0.1-0.2,0.4-0.3,0.7-0.3c0.3,0,0.7,0.1,0.7,0.4
				c0.1,0.2,0,0.5-0.1,0.7c0,0,0,0,0,0c0.1,0,0.1,0.1,0.1,0.2c0,0.1,0,0.2-0.1,0.3c0,0.4-0.2,0.5-0.3,0.6v0.4c0.1,0,0.2,0.1,0.3,0.1
				c0.4,0.1,0.7,0.2,0.9,0.4c0.4-0.4,0.6-0.9,0.6-1.5C64.6,366.5,63.6,365.6,62.4,365.6"/>
			<path class="st70" d="M87.3,365.6h-0.7l-0.9,3.7c0.2,0.1,0.3,0.2,0.3,0.4c0,0.2-0.2,0.5-0.5,0.5c-0.3,0-0.5-0.2-0.5-0.5
				c0-0.1,0-0.2,0.1-0.3h-1.7c0.1,0.1,0.1,0.2,0.1,0.3c0,0.2-0.2,0.5-0.5,0.5c-0.3,0-0.5-0.2-0.5-0.5s0.2-0.5,0.5-0.5h2.5l0-0.2
				h-2.9c0,0-0.1,0-0.1-0.1l-0.7-2.2c0,0,0-0.1,0-0.1c0,0,0,0,0.1,0h4.1l0.3-1.2c0,0,0-0.1,0.1-0.1h0.8
				C87.3,365.4,87.4,365.4,87.3,365.6C87.4,365.5,87.3,365.6,87.3,365.6 M83,369.4c-0.2,0-0.3,0.1-0.3,0.3s0.1,0.3,0.3,0.3
				c0.2,0,0.3-0.1,0.3-0.3S83.1,369.4,83,369.4 M85.4,369.4c-0.2,0-0.3,0.1-0.3,0.3s0.1,0.3,0.3,0.3s0.3-0.1,0.3-0.3
				S85.6,369.4,85.4,369.4 M82.1,366.8l0.6,2h2.8l0.5-2H82.1z"/>
		</g>
		<g>
			<circle class="st60" cx="63.4" cy="259.7" r="2.7"/>
		</g>
		<g>
			<path class="st71" d="M76.7,268.8H50c-1,0-1.8-0.8-1.8-1.8v-0.5c0-1,0.8-1.8,1.8-1.8h26.7c1,0,1.8,0.8,1.8,1.8v0.5
				C78.4,268,77.7,268.8,76.7,268.8z"/>
		</g>
		<path class="st14" d="M179.8,411.2c-7.5-0.2-15,2.5-20.8,8.2l-52.1,51.3l40,40.7l32.8-32.3L179.8,411.2z"/>
		<polygon class="st17" points="95.6,481.8 103.5,554.1 87,570.3 		"/>
		<path class="st15" d="M21.4,396.8c0,0,2.8,28,17.1,28l0,125.2c0,15.8,12.8,28.6,28.6,28.6s28.6-12.8,28.6-28.6l0.1-124.5
			c25.3-5.7,25.3-39,25.3-39v-27.8c0-10.7-8.7-19.4-19.4-19.4H82.9c-7,0-12.9,5.4-13,12.4c-0.1,7.1,5.6,12.9,12.6,12.9h13.2v7v20.1
			c0,2.9-2.3,5.2-5.2,5.2H21.4"/>
		<path class="st17" d="M66.1,396.8L22.9,405c0,0-1.5-6.9-1.5-8.3H66.1z"/>
	</g>
</g>
</svg>
