<?xml version="1.0" encoding="utf-8"?>
<!-- Generator: Adobe Illustrator 20.1.0, SVG Export Plug-In . SVG Version: 6.00 Build 0)  -->
<svg version="1.1" id="Layer_1" xmlns="http://www.w3.org/2000/svg" xmlns:xlink="http://www.w3.org/1999/xlink" x="0px" y="0px"
	 viewBox="0 0 472.5 472.5" style="enable-background:new 0 0 472.5 472.5;" xml:space="preserve">
<style type="text/css">
	.st0{fill:#EBA3A3;}
	.st1{fill:#FFFFFF;}
</style>
<circle class="st0" cx="236.2" cy="236.2" r="236.2"/>
<path class="st1" d="M289.3,138.7c-19.2,0-40,10.3-53,32.5c-13-22.1-33.7-32.5-53-32.5c-31,0-63.1,25.8-63.1,69
	c0,49.4,69.2,112.4,109.4,141.8c0,0,0.1,0.1,0.2,0.1c1.9,1.4,4.2,2.1,6.5,2.1s4.6-0.7,6.5-2.1c0,0,0.1-0.1,0.2-0.1
	c39.7-28.9,109.4-92.5,109.4-141.8C352.3,164.5,320.3,138.7,289.3,138.7z"/>
</svg>
