<?xml version="1.0" encoding="utf-8"?>
<!-- Generator: Adobe Illustrator 20.1.0, SVG Export Plug-In . SVG Version: 6.00 Build 0)  -->
<svg version="1.1" id="Layer_1" xmlns="http://www.w3.org/2000/svg" xmlns:xlink="http://www.w3.org/1999/xlink" x="0px" y="0px"
	 viewBox="0 0 23.5 22" style="enable-background:new 0 0 23.5 22;" xml:space="preserve">
<style type="text/css">
	.st0{fill:#FFFFFF;}
</style>
<path class="st0" d="M107.9-14.1c-1,0.9-2.5,0.7-3.4-0.3s-1-2.9,0.2-3.4c0.6-0.3,1.4-0.4,3.2-0.6c0.1,0,0.2,0,0.3,0v-3.2
	c-0.3,0.2-0.7,0.4-1.2,0.7c-1.5,1-2.1,1.4-2.8,1.6c-1.3,0.4-2.4-1.1-2.4-2.5c0-0.1,0-0.2,0-0.3h-2c-0.1,0.1-0.2,0.2-0.4,0.3
	c-0.8,0.6-1.8,0.4-2.4-0.2H75.4c-0.8,1.8-1.8,3.1-3.1,3.2c-2.5,0.2-2.9-1.8-3-3.2H-2.2v55h110.4v-47.3
	C108.1-14.2,108-14.1,107.9-14.1z M78.9-21.7c0.6-0.1,1.1,0.1,2.5,0.6c0.9,0.4,1.8,0.8,1.9,1.4c0.2,1.1-2.5,1.9-3.6,2.1
	c-1.1,0.2-2.2-0.6-2.4-1.7C77-20.5,77.8-21.5,78.9-21.7z M78.5-2.4c1.3,0,4.6,0.4,4.6,1.8c0,0.7-0.9,0.9-1.8,1.5
	c-1.5,1-2.1,1.4-2.8,1.6c-1.3,0.4-2.4-1.1-2.4-2.5C76.1-1.3,77.2-2.4,78.5-2.4z M54.7-11.3c1.3,0,4.6,0.4,4.6,1.8
	c0,0.7-0.9,0.9-1.8,1.5c-1.5,1-2.1,1.4-2.8,1.6c-1.3,0.4-2.4-1.1-2.4-2.5C52.3-10.2,53.4-11.3,54.7-11.3z M38.9,13.8
	c1.3,0,4.6,0.4,4.6,1.8c0,0.7-0.9,0.9-1.8,1.5c-1.5,1-2.1,1.4-2.8,1.6c-1.3,0.4-2.4-1.1-2.4-2.5C36.6,14.9,37.6,13.8,38.9,13.8z
	 M15.1,4.9c1.3,0,4.6,0.4,4.6,1.8c0,0.7-0.9,0.9-1.8,1.5c-1.5,1-2.1,1.4-2.8,1.6c-1.3,0.4-2.4-1.1-2.4-2.5C12.7,6.1,13.8,5,15.1,4.9
	z M10.2,15.9c-0.8,1.9-1.8,3.2-3.1,3.3c-3.4,0.2-2.9-3.5-3.2-4.3c-0.3-0.8-3.1-3.3-0.4-5.3c1.1-0.8,2.7-0.5,4.6,0.5
	c1.2,0.6,2.4,1.1,2.8,2.2l0,0l0,0l0,0l0,0C11.4,13.5,10.8,14.6,10.2,15.9z M10.4,7.4C9.4,8,8.1,7.6,7.6,6.6S7.4,4.3,8.3,3.8
	c1-0.6,3.5-1.8,4.1-0.8c0.3,0.5-0.1,1.4-0.6,2.3C11.2,6.7,10.9,7.1,10.4,7.4z M14.4,20.4c-1.1,0.2-2.2-0.6-2.4-1.7
	c-0.2-1.1,0.5-2.2,1.7-2.4c0.6-0.1,1.1,0.1,2.5,0.6c0.9,0.4,1.8,0.8,1.9,1.4C18.2,19.4,15.5,20.2,14.4,20.4z M18.9,15.1
	c-1,0.9-2.5,0.7-3.4-0.3s-1-2.9,0.2-3.4c0.6-0.3,1.4-0.4,3.2-0.6c1.1-0.1,1.9-0.5,2.4,0C22.1,11.7,19.9,14.2,18.9,15.1z M34.1,24.7
	c-0.8,1.9-1.8,3.2-3.1,3.3c-3.4,0.2-2.9-3.5-3.2-4.3c-0.3-0.8-3.1-3.3-0.4-5.3c1.1-0.8,2.7-0.5,4.6,0.5c1.2,0.6,2.4,1.1,2.8,2.2l0,0
	l0,0l0,0l0,0C35.2,22.4,34.6,23.4,34.1,24.7z M34.2,16.3c-1,0.6-2.3,0.2-2.8-0.8c-0.6-1-0.2-2.3,0.7-2.8c1-0.6,3.5-1.8,4.1-0.8
	c0.3,0.5-0.1,1.4-0.6,2.3C35,15.6,34.7,16,34.2,16.3z M38.2,29.2c-1.1,0.2-2.2-0.6-2.4-1.7s0.5-2.2,1.7-2.4c0.6-0.1,1.1,0.1,2.5,0.6
	c0.9,0.4,1.8,0.8,1.9,1.4C42,28.3,39.3,29,38.2,29.2z M42.7,24c-1,0.9-2.5,0.7-3.4-0.3s-1-2.9,0.2-3.4c0.6-0.3,1.4-0.4,3.2-0.6
	c1.1-0.1,1.9-0.5,2.4,0C45.9,20.6,43.7,23.1,42.7,24z M49.8-0.4C49,1.5,48,2.9,46.7,3c-3.4,0.2-2.9-3.5-3.2-4.3s-3.1-3.3-0.4-5.3
	c1.1-0.8,2.7-0.5,4.6,0.5c1.2,0.6,2.4,1.1,2.8,2.2l0,0l0,0l0,0l0,0C50.9-2.7,50.3-1.7,49.8-0.4z M49.9-8.8c-1,0.6-2.3,0.2-2.8-0.8
	c-0.6-1-0.2-2.3,0.7-2.8c1-0.6,3.5-1.8,4.1-0.8c0.3,0.5-0.1,1.4-0.6,2.3C50.7-9.5,50.4-9.1,49.9-8.8z M53.9,4.1
	c-1.1,0.2-2.2-0.6-2.4-1.7S52,0.2,53.2,0c0.6-0.1,1.1,0.1,2.5,0.6C56.6,1,57.5,1.4,57.6,2C57.8,3.2,55.1,3.9,53.9,4.1z M58.4-1.1
	c-1,0.9-2.5,0.7-3.4-0.3s-1-2.9,0.2-3.4c0.6-0.3,1.4-0.4,3.2-0.6c1.1-0.1,1.9-0.5,2.4,0C61.7-4.5,59.4-2,58.4-1.1z M73.6,8.5
	c-0.8,1.9-1.8,3.2-3.1,3.3c-3.4,0.2-2.9-3.5-3.2-4.3c-0.3-0.8-3.1-3.3-0.4-5.3c1.1-0.8,2.7-0.5,4.6,0.5c1.2,0.6,2.4,1.1,2.8,2.2l0,0
	l0,0l0,0l0,0C74.7,6.1,74.1,7.2,73.6,8.5z M73.8,0.1c-1,0.6-2.3,0.2-2.8-0.8c-0.6-1-0.2-2.3,0.7-2.8c1-0.6,3.5-1.8,4.1-0.8
	c0.3,0.5-0.1,1.4-0.6,2.3C74.5-0.7,74.3-0.2,73.8,0.1z M77.8,13c-1.1,0.2-2.2-0.6-2.4-1.7c-0.2-1.1,0.5-2.2,1.7-2.4
	c0.6-0.1,1.1,0.1,2.5,0.6c0.9,0.4,1.8,0.8,1.9,1.4C81.6,12.1,78.9,12.8,77.8,13z M82.2,7.7c-1,0.9-2.5,0.7-3.4-0.3S77.8,4.5,79,4
	c0.6-0.3,1.4-0.4,3.2-0.6c1.1-0.1,1.9-0.5,2.4,0C85.5,4.4,83.3,6.9,82.2,7.7z M99.3-13.3c-0.8,1.9-1.8,3.2-3.1,3.3
	c-3.4,0.2-2.9-3.5-3.2-4.3c-0.3-0.8-3.1-3.3-0.4-5.3c1.1-0.8,2.7-0.5,4.6,0.5c1.2,0.6,2.4,1.1,2.8,2.2l0,0l0,0l0,0l0,0
	C100.4-15.7,99.8-14.6,99.3-13.3z M103.4-8.8c-1.1,0.2-2.2-0.6-2.4-1.7s0.5-2.2,1.7-2.4c0.6-0.1,1.1,0.1,2.5,0.6
	c0.9,0.4,1.8,0.8,1.9,1.4C107.3-9.7,104.5-9,103.4-8.8z"/>
</svg>
